<svg width="1670" height="868" viewBox="0 0 1670 868" fill="none" xmlns="http://www.w3.org/2000/svg">
<g clip-path="url(#clip0)">
<g clip-path="url(#clip1)">
<g filter="url(#filter0_d)">
<path d="M525.356 504.457L638.828 614.965C654.675 630.398 676.167 639.069 698.576 639.068H758.312C780.722 639.068 802.214 647.739 818.061 663.172L954.14 795.7C969.986 811.133 991.477 819.804 1013.89 819.805H1342.47C1380.46 819.805 1411.26 789.806 1411.26 752.799C1411.26 744 1409.48 735.286 1406.03 727.157C1402.57 719.027 1397.5 711.64 1391.11 705.418L1318.11 634.321C1307.94 624.419 1307.94 608.363 1318.11 598.459C1320.53 596.104 1323.4 594.236 1326.56 592.962C1329.72 591.687 1333.1 591.031 1336.52 591.031C1350.9 591.031 1362.56 579.678 1362.56 565.672C1362.56 558.947 1359.81 552.496 1354.93 547.741L1189.87 386.988C1174.02 371.555 1152.53 362.884 1130.12 362.884H932.019C909.609 362.884 888.117 354.214 872.27 338.781L842.481 309.769C826.635 294.336 805.143 285.666 782.734 285.666H584.029C557.184 285.666 535.422 306.862 535.422 333.009C535.422 339.226 536.68 345.383 539.123 351.127C541.566 356.871 545.146 362.09 549.66 366.486L573.964 390.156C587.387 403.229 587.388 424.426 573.966 437.5C570.774 440.609 566.985 443.075 562.815 444.758C558.644 446.44 554.174 447.306 549.66 447.306C530.677 447.306 515.288 462.294 515.288 480.783C515.288 485.18 516.177 489.533 517.905 493.595C519.632 497.657 522.164 501.348 525.356 504.456V504.457Z" fill="black"/>
</g>
<path d="M525.356 504.457L638.828 614.965C654.675 630.398 676.167 639.069 698.576 639.068H758.312C780.722 639.068 802.214 647.739 818.061 663.172L954.14 795.7C969.986 811.133 991.477 819.804 1013.89 819.805H1342.47C1380.46 819.805 1411.26 789.806 1411.26 752.799C1411.26 744 1409.48 735.286 1406.03 727.157C1402.57 719.027 1397.5 711.64 1391.11 705.418L1318.11 634.321C1307.94 624.419 1307.94 608.363 1318.11 598.459C1320.53 596.104 1323.4 594.236 1326.56 592.962C1329.72 591.687 1333.1 591.031 1336.52 591.031C1350.9 591.031 1362.56 579.678 1362.56 565.672C1362.56 558.947 1359.81 552.496 1354.93 547.741L1189.87 386.988C1174.02 371.555 1152.53 362.884 1130.12 362.884H932.019C909.609 362.884 888.117 354.214 872.27 338.781L842.481 309.769C826.635 294.336 805.143 285.666 782.734 285.666H584.029C557.184 285.666 535.422 306.862 535.422 333.009C535.422 339.226 536.68 345.383 539.123 351.127C541.566 356.871 545.146 362.09 549.66 366.486L573.964 390.156C587.387 403.229 587.388 424.426 573.966 437.5C570.774 440.609 566.985 443.075 562.815 444.758C558.644 446.44 554.174 447.306 549.66 447.306C530.677 447.306 515.288 462.294 515.288 480.783C515.288 485.18 516.177 489.533 517.905 493.595C519.632 497.657 522.164 501.348 525.356 504.456V504.457Z" fill="#2D314D"/>
<path fill-rule="evenodd" clip-rule="evenodd" d="M641.967 251.791L755.438 362.299C771.285 377.732 792.777 386.402 815.187 386.402H874.923C897.332 386.402 918.824 395.072 934.671 410.506L1070.75 543.034C1086.6 558.467 1108.09 567.137 1130.5 567.138H1459.08C1497.07 567.138 1527.87 537.139 1527.87 500.133C1527.87 491.334 1526.1 482.62 1522.64 474.49C1519.18 466.361 1514.11 458.974 1507.72 452.752L1434.72 381.655C1424.55 371.752 1424.55 355.697 1434.72 345.793C1437.14 343.438 1440.01 341.57 1443.17 340.295C1446.33 339.021 1449.71 338.365 1453.13 338.365C1467.51 338.365 1479.17 327.011 1479.17 313.006C1479.17 306.28 1476.42 299.83 1471.54 295.074L1306.48 134.322C1290.64 118.888 1269.14 110.218 1246.73 110.218H1048.63C1026.22 110.218 1004.73 101.548 988.881 86.1143L959.092 57.1029C943.245 41.6701 921.753 33.0001 899.344 33H700.64C673.795 33 652.033 54.196 652.033 80.3424C652.033 86.5598 653.29 92.7162 655.733 98.4603C658.176 104.204 661.757 109.423 666.271 113.819L690.574 137.489C703.998 150.562 703.999 171.76 690.577 184.834C687.385 187.943 683.596 190.409 679.425 192.091C675.255 193.774 670.785 194.64 666.271 194.64C647.288 194.64 631.899 209.628 631.899 228.117C631.899 232.513 632.788 236.867 634.515 240.929C636.243 244.991 638.775 248.681 641.967 251.79V251.791Z" fill="url(#paint0_linear)"/>
</g>
<path d="M1643.67 577H1358.84C1352.09 576.992 1345.61 574.307 1340.84 569.533C1336.07 564.76 1333.38 558.287 1333.37 551.536V138.464C1333.38 131.713 1336.07 125.24 1340.84 120.467C1345.61 115.693 1352.09 113.008 1358.84 113H1643.67C1650.42 113.008 1656.89 115.693 1661.67 120.467C1666.44 125.24 1669.13 131.713 1669.14 138.464V551.536C1669.13 558.287 1666.44 564.76 1661.67 569.533C1656.89 574.307 1650.42 576.992 1643.67 577Z" fill="#E6E6E6"/>
<path d="M1644.17 560.753H1358.34C1356.26 560.751 1354.26 559.923 1352.79 558.452C1351.32 556.98 1350.49 554.985 1350.49 552.904V137.096C1350.49 135.015 1351.32 133.02 1352.79 131.548C1354.26 130.077 1356.26 129.249 1358.34 129.246H1644.17C1646.25 129.249 1648.25 130.077 1649.72 131.548C1651.19 133.02 1652.02 135.015 1652.02 137.096V552.904C1652.02 554.985 1651.19 556.98 1649.72 558.452C1648.25 559.923 1646.25 560.751 1644.17 560.753Z" fill="white"/>
<path d="M1500.17 122.964C1501.37 122.964 1502.34 121.995 1502.34 120.798C1502.34 119.602 1501.37 118.632 1500.17 118.632C1498.98 118.632 1498.01 119.602 1498.01 120.798C1498.01 121.995 1498.98 122.964 1500.17 122.964Z" fill="white"/>
<path d="M1616.47 403.05H1386.04C1385.85 403.05 1385.67 402.974 1385.53 402.839C1385.4 402.703 1385.32 402.52 1385.32 402.329V291.888C1385.32 291.696 1385.4 291.513 1385.53 291.378C1385.67 291.242 1385.85 291.166 1386.04 291.166C1386.23 291.166 1386.42 291.242 1386.55 291.378C1386.69 291.513 1386.76 291.696 1386.76 291.888V401.608H1616.47C1616.66 401.608 1616.84 401.685 1616.97 401.82C1617.11 401.955 1617.18 402.138 1617.18 402.329C1617.18 402.519 1617.11 402.702 1616.97 402.838C1616.84 402.973 1616.66 403.049 1616.47 403.05Z" fill="#3F3D56"/>
<path d="M1435.27 395.117H1414.32C1413.75 395.117 1413.21 394.891 1412.8 394.49C1412.4 394.089 1412.18 393.544 1412.18 392.977V364.087C1412.18 363.519 1412.4 362.975 1412.8 362.574C1413.21 362.172 1413.75 361.947 1414.32 361.946H1435.27C1435.84 361.947 1436.39 362.172 1436.79 362.574C1437.19 362.975 1437.41 363.519 1437.42 364.087V392.977C1437.41 393.544 1437.19 394.089 1436.79 394.49C1436.39 394.891 1435.84 395.117 1435.27 395.117Z" fill="#31CD76"/>
<path d="M1473.49 395.117H1452.54C1451.97 395.117 1451.42 394.891 1451.02 394.49C1450.62 394.089 1450.4 393.544 1450.4 392.977V336.684C1450.4 336.117 1450.62 335.573 1451.02 335.171C1451.42 334.77 1451.97 334.544 1452.54 334.544H1473.49C1474.06 334.544 1474.61 334.77 1475.01 335.171C1475.41 335.573 1475.63 336.117 1475.63 336.684V392.977C1475.63 393.544 1475.41 394.089 1475.01 394.49C1474.61 394.891 1474.06 395.117 1473.49 395.117Z" fill="#31CD76"/>
<path d="M1511.71 395.117H1490.76C1490.19 395.117 1489.64 394.891 1489.24 394.49C1488.84 394.089 1488.62 393.544 1488.61 392.977V364.087C1488.62 363.519 1488.84 362.975 1489.24 362.574C1489.64 362.172 1490.19 361.947 1490.76 361.946H1511.71C1512.28 361.947 1512.82 362.172 1513.23 362.574C1513.63 362.975 1513.85 363.519 1513.85 364.087V392.977C1513.85 393.544 1513.63 394.089 1513.23 394.49C1512.82 394.891 1512.28 395.117 1511.71 395.117Z" fill="#31CD76"/>
<path d="M1549.93 395.117H1528.97C1528.42 395.129 1527.88 394.921 1527.48 394.538C1527.08 394.155 1526.85 393.629 1526.83 393.074V325.771C1526.85 325.216 1527.08 324.69 1527.48 324.307C1527.88 323.924 1528.42 323.715 1528.97 323.727H1549.93C1550.49 323.715 1551.02 323.924 1551.42 324.307C1551.83 324.69 1552.06 325.216 1552.07 325.771V393.074C1552.06 393.629 1551.83 394.155 1551.42 394.538C1551.02 394.921 1550.49 395.129 1549.93 395.117Z" fill="#31CD76"/>
<path d="M1588.15 395.117H1567.19C1566.63 395.117 1566.08 394.891 1565.68 394.49C1565.28 394.089 1565.05 393.545 1565.05 392.977V306.397C1565.05 305.83 1565.28 305.286 1565.68 304.885C1566.08 304.483 1566.63 304.258 1567.19 304.257H1588.15C1588.72 304.258 1589.26 304.483 1589.66 304.885C1590.07 305.286 1590.29 305.83 1590.29 306.397V392.977C1590.29 393.545 1590.07 394.089 1589.66 394.49C1589.26 394.891 1588.72 395.117 1588.15 395.117Z" fill="#31CD76"/>
<path d="M1424.8 353.293C1427.19 353.293 1429.12 351.356 1429.12 348.966C1429.12 346.577 1427.19 344.639 1424.8 344.639C1422.41 344.639 1420.47 346.577 1420.47 348.966C1420.47 351.356 1422.41 353.293 1424.8 353.293Z" fill="#3F3D56"/>
<path d="M1463.01 325.169C1465.4 325.169 1467.34 323.232 1467.34 320.843C1467.34 318.453 1465.4 316.516 1463.01 316.516C1460.63 316.516 1458.69 318.453 1458.69 320.843C1458.69 323.232 1460.63 325.169 1463.01 325.169Z" fill="#3F3D56"/>
<path d="M1501.23 353.293C1503.62 353.293 1505.56 351.356 1505.56 348.966C1505.56 346.577 1503.62 344.639 1501.23 344.639C1498.84 344.639 1496.91 346.577 1496.91 348.966C1496.91 351.356 1498.84 353.293 1501.23 353.293Z" fill="#3F3D56"/>
<path d="M1539.45 311.468C1541.84 311.468 1543.78 309.531 1543.78 307.142C1543.78 304.752 1541.84 302.815 1539.45 302.815C1537.06 302.815 1535.13 304.752 1535.13 307.142C1535.13 309.531 1537.06 311.468 1539.45 311.468Z" fill="#3F3D56"/>
<path d="M1577.67 295.604C1580.06 295.604 1582 293.667 1582 291.277C1582 288.887 1580.06 286.95 1577.67 286.95C1575.28 286.95 1573.35 288.887 1573.35 291.277C1573.35 293.667 1575.28 295.604 1577.67 295.604Z" fill="#3F3D56"/>
<path d="M1501.33 349.935L1463.02 321.241L1425.23 349.543L1424.36 348.389L1463.02 319.438L1501.14 347.997L1539.03 306.534L1539.18 306.472L1577.4 291.073L1577.94 292.411L1539.88 307.749L1501.33 349.935Z" fill="#3F3D56"/>
<path d="M1272 663H891C890.735 663 890.48 662.895 890.293 662.707C890.105 662.52 890 662.265 890 662C890 661.735 890.105 661.48 890.293 661.293C890.48 661.105 890.735 661 891 661H1272C1272.27 661 1272.52 661.105 1272.71 661.293C1272.89 661.48 1273 661.735 1273 662C1273 662.265 1272.89 662.52 1272.71 662.707C1272.52 662.895 1272.27 663 1272 663Z" fill="#CBCBCB"/>
<path d="M290.812 361.936H100.199V363.936H290.812V361.936Z" fill="#3F3D56"/>
<path d="M641.752 361.936H451.14V363.936H641.752V361.936Z" fill="#3F3D56"/>
<path d="M1079.98 361.936H889.372V363.936H1079.98V361.936Z" fill="#3F3D56"/>
<path d="M118.904 374.516C125.299 374.516 130.483 369.331 130.483 362.936C130.483 356.541 125.299 351.357 118.904 351.357C112.509 351.357 107.325 356.541 107.325 362.936C107.325 369.331 112.509 374.516 118.904 374.516Z" fill="#31CD76"/>
<path d="M546.446 374.516C552.841 374.516 558.026 369.331 558.026 362.936C558.026 356.541 552.841 351.357 546.446 351.357C540.051 351.357 534.867 356.541 534.867 362.936C534.867 369.331 540.051 374.516 546.446 374.516Z" fill="#31CD76"/>
<path d="M1061.28 374.516C1067.67 374.516 1072.86 369.331 1072.86 362.936C1072.86 356.541 1067.67 351.357 1061.28 351.357C1054.88 351.357 1049.7 356.541 1049.7 362.936C1049.7 369.331 1054.88 374.516 1061.28 374.516Z" fill="#31CD76"/>
<path d="M538.152 167.129C550.936 205.602 546.446 241.727 546.446 241.727C546.446 241.727 521.23 215.473 508.446 176.999C495.662 138.526 500.152 102.401 500.152 102.401C500.152 102.401 525.368 128.655 538.152 167.129Z" fill="#31CD76"/>
<path d="M554.741 167.129C541.957 205.602 546.446 241.727 546.446 241.727C546.446 241.727 571.663 215.473 584.447 176.999C597.23 138.526 592.741 102.401 592.741 102.401C592.741 102.401 567.524 128.655 554.741 167.129Z" fill="#31CD76"/>
<path d="M559.889 167.545C560.746 208.078 545.793 241.267 545.793 241.267C545.793 241.267 529.45 208.739 528.593 168.206C527.737 127.673 542.69 94.4843 542.69 94.4843C542.69 94.4843 559.033 127.012 559.889 167.545Z" fill="#3F3D56"/>
<path d="M544.241 135.691C546.433 135.691 548.209 133.914 548.209 131.723C548.209 129.531 546.433 127.755 544.241 127.755C542.05 127.755 540.273 129.531 540.273 131.723C540.273 133.914 542.05 135.691 544.241 135.691Z" fill="#31CD76"/>
<path d="M536.526 165.671C537.743 165.671 538.73 164.684 538.73 163.467C538.73 162.249 537.743 161.262 536.526 161.262C535.308 161.262 534.321 162.249 534.321 163.467C534.321 164.684 535.308 165.671 536.526 165.671Z" fill="#31CD76"/>
<path d="M509.632 143.847C510.849 143.847 511.836 142.86 511.836 141.643C511.836 140.425 510.849 139.438 509.632 139.438C508.414 139.438 507.427 140.425 507.427 141.643C507.427 142.86 508.414 143.847 509.632 143.847Z" fill="#3F3D56"/>
<path d="M587.448 122.464C588.666 122.464 589.653 121.477 589.653 120.26C589.653 119.042 588.666 118.055 587.448 118.055C586.231 118.055 585.244 119.042 585.244 120.26C585.244 121.477 586.231 122.464 587.448 122.464Z" fill="#3F3D56"/>
<path d="M521.095 164.569C522.312 164.569 523.299 163.582 523.299 162.364C523.299 161.147 522.312 160.16 521.095 160.16C519.877 160.16 518.89 161.147 518.89 162.364C518.89 163.582 519.877 164.569 521.095 164.569Z" fill="#3F3D56"/>
<path d="M567.388 151.783C568.605 151.783 569.592 150.796 569.592 149.579C569.592 148.361 568.605 147.374 567.388 147.374C566.17 147.374 565.184 148.361 565.184 149.579C565.184 150.796 566.17 151.783 567.388 151.783Z" fill="#3F3D56"/>
<path d="M522.418 196.974C523.635 196.974 524.622 195.987 524.622 194.77C524.622 193.552 523.635 192.565 522.418 192.565C521.2 192.565 520.213 193.552 520.213 194.77C520.213 195.987 521.2 196.974 522.418 196.974Z" fill="#3F3D56"/>
<path d="M569.592 184.409C570.81 184.409 571.797 183.422 571.797 182.204C571.797 180.987 570.81 180 569.592 180C568.375 180 567.388 180.987 567.388 182.204C567.388 183.422 568.375 184.409 569.592 184.409Z" fill="#3F3D56"/>
<path d="M548.209 186.613C549.427 186.613 550.414 185.626 550.414 184.409C550.414 183.191 549.427 182.204 548.209 182.204C546.992 182.204 546.005 183.191 546.005 184.409C546.005 185.626 546.992 186.613 548.209 186.613Z" fill="#31CD76"/>
<path d="M560.178 266.779L559.672 264.843L677.942 233.953L628.733 45.5481L414.95 101.386L451.42 241.014L449.484 241.52L412.51 99.9561L630.163 43.1071L630.416 44.0751L680.383 235.382L560.178 266.779Z" fill="#3F3D56"/>
<path d="M973.155 171.823C990.915 225.273 984.677 275.459 984.677 275.459C984.677 275.459 949.645 238.986 931.885 185.536C914.125 132.086 920.363 81.8997 920.363 81.8997C920.363 81.8997 955.395 118.373 973.155 171.823Z" fill="#31CD76"/>
<path d="M996.2 171.823C978.44 225.273 984.677 275.459 984.677 275.459C984.677 275.459 1019.71 238.986 1037.47 185.536C1055.23 132.086 1048.99 81.8997 1048.99 81.8997C1048.99 81.8997 1013.96 118.373 996.2 171.823Z" fill="#31CD76"/>
<path d="M1003.35 172.401C1004.54 228.712 983.77 274.82 983.77 274.82C983.77 274.82 961.065 229.631 959.875 173.32C958.685 117.01 979.459 70.901 979.459 70.901C979.459 70.901 1002.16 116.09 1003.35 172.401Z" fill="#3F3D56"/>
<path d="M981.614 128.148C984.659 128.148 987.127 125.68 987.127 122.635C987.127 119.59 984.659 117.122 981.614 117.122C978.57 117.122 976.102 119.59 976.102 122.635C976.102 125.68 978.57 128.148 981.614 128.148Z" fill="#31CD76"/>
<path d="M970.895 169.798C972.587 169.798 973.958 168.427 973.958 166.736C973.958 165.044 972.587 163.673 970.895 163.673C969.204 163.673 967.833 165.044 967.833 166.736C967.833 168.427 969.204 169.798 970.895 169.798Z" fill="#31CD76"/>
<path d="M933.532 139.479C935.224 139.479 936.595 138.108 936.595 136.416C936.595 134.725 935.224 133.354 933.532 133.354C931.841 133.354 930.47 134.725 930.47 136.416C930.47 138.108 931.841 139.479 933.532 139.479Z" fill="#3F3D56"/>
<path d="M1041.64 109.772C1043.33 109.772 1044.7 108.401 1044.7 106.71C1044.7 105.018 1043.33 103.647 1041.64 103.647C1039.95 103.647 1038.58 105.018 1038.58 106.71C1038.58 108.401 1039.95 109.772 1041.64 109.772Z" fill="#3F3D56"/>
<path d="M949.458 168.267C951.149 168.267 952.52 166.896 952.52 165.204C952.52 163.513 951.149 162.142 949.458 162.142C947.766 162.142 946.395 163.513 946.395 165.204C946.395 166.896 947.766 168.267 949.458 168.267Z" fill="#3F3D56"/>
<path d="M1013.77 150.504C1015.46 150.504 1016.83 149.133 1016.83 147.442C1016.83 145.75 1015.46 144.379 1013.77 144.379C1012.08 144.379 1010.71 145.75 1010.71 147.442C1010.71 149.133 1012.08 150.504 1013.77 150.504Z" fill="#3F3D56"/>
<path d="M951.295 213.286C952.986 213.286 954.358 211.915 954.358 210.224C954.358 208.532 952.986 207.161 951.295 207.161C949.604 207.161 948.232 208.532 948.232 210.224C948.232 211.915 949.604 213.286 951.295 213.286Z" fill="#3F3D56"/>
<path d="M1016.83 195.83C1018.52 195.83 1019.9 194.459 1019.9 192.767C1019.9 191.076 1018.52 189.705 1016.83 189.705C1015.14 189.705 1013.77 191.076 1013.77 192.767C1013.77 194.459 1015.14 195.83 1016.83 195.83Z" fill="#3F3D56"/>
<path d="M987.127 198.892C988.818 198.892 990.189 197.521 990.189 195.83C990.189 194.138 988.818 192.767 987.127 192.767C985.435 192.767 984.064 194.138 984.064 195.83C984.064 197.521 985.435 198.892 987.127 198.892Z" fill="#31CD76"/>
<path d="M1003.66 309.886L1003.15 307.951L1167.83 264.937L1099.27 2.44L801.52 80.211L852.285 274.567L850.349 275.073L799.079 78.781L1100.7 0L1100.96 0.967L1170.28 266.367L1003.66 309.886Z" fill="#3F3D56"/>
<path d="M191.424 211.509C195.219 223.351 196.607 235.833 195.505 248.22C187.102 239.034 180.73 228.18 176.805 216.366C172.879 204.552 171.488 192.043 172.723 179.655C181.019 188.919 187.377 199.75 191.424 211.509Z" fill="#31CD76"/>
<path d="M199.587 211.509C195.791 223.351 194.404 235.833 195.505 248.22C203.908 239.034 210.28 228.18 214.206 216.366C218.132 204.552 219.522 192.043 218.288 179.655C209.992 188.919 203.634 199.75 199.587 211.509Z" fill="#31CD76"/>
<path d="M202.121 211.713C202.251 224.148 199.893 236.484 195.184 247.994C189.867 236.737 186.983 224.486 186.719 212.039C186.456 199.592 188.82 187.23 193.657 175.759C198.848 187.059 201.726 199.284 202.121 211.713Z" fill="#3F3D56"/>
<path d="M206.146 272.979L205.64 271.043L296.57 247.293L258.76 102.534L94.44 145.452L122.49 252.842L120.554 253.348L92 144.022L260.19 100.093L299.01 248.723L206.146 272.979Z" fill="#3F3D56"/>
<path d="M1014.07 101.067C1021.45 101.067 1027.43 95.0848 1027.43 87.7059C1027.43 80.327 1021.45 74.3452 1014.07 74.3452C1006.69 74.3452 1000.71 80.327 1000.71 87.7059C1000.71 95.0848 1006.69 101.067 1014.07 101.067Z" fill="#31CD76"/>
<path d="M952.612 101.957C956.547 101.957 959.737 98.7671 959.737 94.8316C959.737 90.8962 956.547 87.7059 952.612 87.7059C948.676 87.7059 945.486 90.8962 945.486 94.8316C945.486 98.7671 948.676 101.957 952.612 101.957Z" fill="#3F3D56"/>
<path d="M195.505 429.417C205.999 429.417 214.505 420.91 214.505 410.417C214.505 399.923 205.999 391.417 195.505 391.417C185.012 391.417 176.505 399.923 176.505 410.417C176.505 420.91 185.012 429.417 195.505 429.417Z" fill="#3F3D56"/>
<path d="M546.446 429.417C556.94 429.417 565.446 420.91 565.446 410.417C565.446 399.923 556.94 391.417 546.446 391.417C535.953 391.417 527.446 399.923 527.446 410.417C527.446 420.91 535.953 429.417 546.446 429.417Z" fill="#3F3D56"/>
<path d="M984.677 429.417C995.171 429.417 1003.68 420.91 1003.68 410.417C1003.68 399.923 995.171 391.417 984.677 391.417C974.184 391.417 965.677 399.923 965.677 410.417C965.677 420.91 974.184 429.417 984.677 429.417Z" fill="#3F3D56"/>
<path d="M95.3848 802.136C99.308 803.516 103.52 803.861 107.616 803.14C111.711 802.418 115.552 800.654 118.768 798.018C126.957 791.143 129.526 779.822 131.614 769.336L137.794 738.319L124.856 747.228C115.552 753.634 106.038 760.246 99.5961 769.525C93.1543 778.805 90.3439 791.473 95.5182 801.513" fill="#E6E6E6"/>
<path d="M97.3825 841.847C95.7541 829.983 94.0787 817.966 95.2237 805.975C96.2384 795.326 99.4873 784.926 106.102 776.396C109.613 771.877 113.885 768.006 118.727 764.956C119.989 764.159 121.151 766.159 119.894 766.952C111.517 772.247 105.037 780.064 101.39 789.278C97.361 799.524 96.714 810.694 97.4079 821.578C97.8273 828.161 98.7187 834.7 99.6139 841.231C99.6846 841.526 99.6404 841.837 99.4904 842.102C99.3404 842.366 99.0957 842.563 98.8059 842.653C98.5101 842.733 98.1948 842.693 97.9285 842.542C97.6622 842.39 97.4664 842.14 97.3833 841.845L97.3825 841.847Z" fill="#F2F2F2"/>
<path d="M109.104 822.811C110.786 825.368 113.099 827.45 115.819 828.854C118.539 830.259 121.575 830.939 124.635 830.829C132.499 830.456 139.053 824.969 144.952 819.759L162.404 804.35L150.854 803.797C142.548 803.399 134.028 803.026 126.116 805.591C118.205 808.155 110.909 814.317 109.462 822.506" fill="#E6E6E6"/>
<path d="M92.7796 848.667C100.619 834.795 109.712 819.379 125.96 814.451C130.478 813.086 135.215 812.597 139.916 813.01C141.398 813.138 141.028 815.422 139.549 815.295C131.668 814.64 123.803 816.721 117.277 821.187C110.997 825.461 106.107 831.404 101.969 837.706C99.4343 841.566 97.1636 845.59 94.8929 849.609C94.1674 850.893 92.0456 849.966 92.7796 848.667Z" fill="#F2F2F2"/>
<path d="M880.857 818.651C878.577 820.694 875.809 822.115 872.82 822.778C869.831 823.44 866.722 823.322 863.792 822.434C856.284 820.063 851.351 813.084 846.979 806.539L834.045 787.181L845.352 789.599C853.484 791.337 861.817 793.154 868.811 797.655C875.804 802.156 881.283 809.978 880.588 818.265" fill="#E6E6E6"/>
<path d="M890.031 847.821C885.997 832.406 881.146 815.178 866.697 806.261C862.678 803.787 858.224 802.103 853.573 801.301C852.108 801.046 851.882 803.349 853.344 803.604C861.13 804.985 868.202 809.007 873.37 814.992C878.349 820.73 881.557 827.725 883.948 834.875C885.412 839.255 886.579 843.726 887.747 848.191C888.12 849.619 890.408 849.264 890.031 847.821Z" fill="#F2F2F2"/>
<path d="M731.159 622.093H466.835C464.724 622.09 462.701 621.251 461.208 619.758C459.715 618.266 458.876 616.242 458.873 614.131V524.962C458.876 522.851 459.715 520.827 461.208 519.335C462.701 517.842 464.724 517.002 466.835 517H731.159C733.27 517.002 735.294 517.842 736.786 519.335C738.279 520.827 739.118 522.851 739.121 524.962V614.131C739.118 616.242 738.279 618.266 736.786 619.758C735.294 621.251 733.27 622.09 731.159 622.093Z" fill="#F1F1F1"/>
<path d="M570.335 540.885H500.274V548.846H570.335V540.885Z" fill="#31CD76"/>
<path d="M662.69 550.439C665.328 550.439 667.466 548.3 667.466 545.662C667.466 543.023 665.328 540.885 662.69 540.885C660.051 540.885 657.913 543.023 657.913 545.662C657.913 548.3 660.051 550.439 662.69 550.439Z" fill="#31CD76"/>
<path d="M678.613 550.439C681.251 550.439 683.39 548.3 683.39 545.662C683.39 543.023 681.251 540.885 678.613 540.885C675.974 540.885 673.836 543.023 673.836 545.662C673.836 548.3 675.974 550.439 678.613 550.439Z" fill="#31CD76"/>
<path d="M694.536 550.439C697.174 550.439 699.313 548.3 699.313 545.662C699.313 543.023 697.174 540.885 694.536 540.885C691.898 540.885 689.759 543.023 689.759 545.662C689.759 548.3 691.898 550.439 694.536 550.439Z" fill="#31CD76"/>
<path d="M731.159 735.147H466.835C464.724 735.145 462.701 734.305 461.208 732.812C459.715 731.32 458.876 729.296 458.873 727.185V638.016C458.876 635.905 459.715 633.881 461.208 632.389C462.701 630.896 464.724 630.057 466.835 630.054H731.159C733.27 630.057 735.294 630.896 736.786 632.389C738.279 633.881 739.118 635.905 739.121 638.016V727.185C739.118 729.296 738.279 731.32 736.786 732.812C735.294 734.305 733.27 735.145 731.159 735.147Z" fill="#F1F1F1"/>
<path d="M570.335 653.939H500.274V661.901H570.335V653.939Z" fill="#31CD76"/>
<path d="M662.69 663.493C665.328 663.493 667.466 661.354 667.466 658.716C667.466 656.078 665.328 653.939 662.69 653.939C660.051 653.939 657.913 656.078 657.913 658.716C657.913 661.354 660.051 663.493 662.69 663.493Z" fill="#31CD76"/>
<path d="M678.613 663.493C681.251 663.493 683.39 661.354 683.39 658.716C683.39 656.078 681.251 653.939 678.613 653.939C675.974 653.939 673.836 656.078 673.836 658.716C673.836 661.354 675.974 663.493 678.613 663.493Z" fill="#31CD76"/>
<path d="M694.536 663.493C697.174 663.493 699.313 661.354 699.313 658.716C699.313 656.078 697.174 653.939 694.536 653.939C691.898 653.939 689.759 656.078 689.759 658.716C689.759 661.354 691.898 663.493 694.536 663.493Z" fill="#31CD76"/>
<path d="M731.159 848.201H466.835C464.724 848.199 462.701 847.359 461.208 845.867C459.715 844.374 458.876 842.351 458.873 840.24V751.07C458.876 748.959 459.715 746.936 461.208 745.443C462.701 743.951 464.724 743.111 466.835 743.109H731.159C733.27 743.111 735.294 743.951 736.786 745.443C738.279 746.936 739.118 748.959 739.121 751.07V840.24C739.118 842.351 738.279 844.374 736.786 845.867C735.294 847.359 733.27 848.199 731.159 848.201Z" fill="#F1F1F1"/>
<path d="M570.335 766.993H500.274V774.955H570.335V766.993Z" fill="#31CD76"/>
<path d="M662.69 776.547C665.328 776.547 667.466 774.408 667.466 771.77C667.466 769.132 665.328 766.993 662.69 766.993C660.051 766.993 657.913 769.132 657.913 771.77C657.913 774.408 660.051 776.547 662.69 776.547Z" fill="#31CD76"/>
<path d="M678.613 776.547C681.251 776.547 683.39 774.408 683.39 771.77C683.39 769.132 681.251 766.993 678.613 766.993C675.974 766.993 673.836 769.132 673.836 771.77C673.836 774.408 675.974 776.547 678.613 776.547Z" fill="#31CD76"/>
<path d="M694.536 776.547C697.174 776.547 699.313 774.408 699.313 771.77C699.313 769.132 697.174 766.993 694.536 766.993C691.898 766.993 689.759 769.132 689.759 771.77C689.759 774.408 691.898 776.547 694.536 776.547Z" fill="#31CD76"/>
<path d="M631.512 429.927L631.219 429.711L631.212 429.705C630.835 429.425 630.407 429.222 629.951 429.108C629.496 428.994 629.022 428.97 628.558 429.039C628.093 429.107 627.647 429.267 627.244 429.508C626.841 429.749 626.489 430.067 626.209 430.444L566.713 510.55H560.168V509.012C560.168 508.633 560.017 508.269 559.749 508.001C559.48 507.732 559.116 507.582 558.737 507.582H554.832C554.452 507.582 554.089 507.732 553.82 508.001C553.552 508.269 553.401 508.633 553.401 509.012V510.55H551.141V509.012C551.141 508.633 550.99 508.269 550.722 508.001C550.454 507.732 550.09 507.582 549.71 507.582H545.805C545.426 507.582 545.062 507.732 544.794 508.001C544.525 508.269 544.375 508.633 544.375 509.012V510.55H542.122V509.012C542.122 508.633 541.971 508.269 541.703 508.001C541.434 507.732 541.07 507.582 540.691 507.582H536.786C536.406 507.582 536.042 507.732 535.774 508.001C535.506 508.269 535.355 508.633 535.355 509.012V510.55H533.095V509.012C533.095 508.633 532.944 508.269 532.676 508.001C532.408 507.732 532.044 507.582 531.664 507.582H527.759C527.38 507.582 527.016 507.732 526.747 508.001C526.479 508.269 526.329 508.633 526.328 509.012V510.55H524.076V509.012C524.075 508.633 523.925 508.269 523.656 508.001C523.388 507.732 523.024 507.582 522.645 507.582H518.74C518.552 507.582 518.366 507.619 518.192 507.691C518.019 507.762 517.861 507.868 517.728 508.001C517.595 508.133 517.49 508.291 517.418 508.465C517.346 508.638 517.309 508.824 517.309 509.012V510.55H515.049V509.012C515.049 508.633 514.898 508.269 514.63 508.001C514.362 507.732 513.998 507.582 513.618 507.582H509.713C509.334 507.582 508.97 507.732 508.701 508.001C508.433 508.269 508.282 508.633 508.282 509.012V510.55H506.022V509.012C506.022 508.633 505.871 508.269 505.603 508.001C505.335 507.732 504.971 507.582 504.592 507.582H500.686C500.307 507.582 499.943 507.732 499.675 508.001C499.407 508.269 499.256 508.633 499.256 509.012V510.55H497.003V509.012C497.003 508.633 496.852 508.269 496.584 508.001C496.316 507.732 495.952 507.582 495.572 507.582H491.667C491.288 507.582 490.924 507.732 490.655 508.001C490.387 508.269 490.236 508.633 490.236 509.012V510.55H487.976V509.012C487.976 508.633 487.825 508.269 487.557 508.001C487.289 507.732 486.925 507.582 486.546 507.582H482.64C482.261 507.582 481.897 507.732 481.629 508.001C481.36 508.269 481.21 508.633 481.21 509.012V510.55H478.957V509.012C478.957 508.633 478.806 508.269 478.538 508.001C478.269 507.732 477.906 507.582 477.526 507.582H473.621C473.242 507.582 472.878 507.732 472.609 508.001C472.341 508.269 472.19 508.633 472.19 509.012V510.55H469.358C468.888 510.55 468.423 510.643 467.989 510.822C467.555 511.002 467.161 511.265 466.829 511.598C466.497 511.93 466.234 512.324 466.054 512.758C465.874 513.192 465.782 513.657 465.782 514.126V517.538C465.782 518.008 465.874 518.473 466.054 518.907C466.234 519.341 466.497 519.735 466.829 520.067C467.161 520.399 467.555 520.663 467.989 520.842C468.423 521.022 468.888 521.114 469.358 521.114H566.12C567.345 521.114 568.533 520.692 569.483 519.918C570.434 519.145 571.088 518.067 571.337 516.867L571.374 516.895L632.245 434.937L632.251 434.93C632.816 434.169 633.056 433.214 632.917 432.275C632.779 431.337 632.273 430.492 631.512 429.927Z" fill="#3F3D56"/>
<path d="M255.504 817.825L267.523 823.976L296.966 780.544L279.228 771.466L255.504 817.825Z" fill="#FFB7B7"/>
<path d="M254.446 812.332L278.116 824.445L278.117 824.446C282.117 826.493 285.14 830.046 286.521 834.323C287.902 838.599 287.528 843.249 285.481 847.25L285.23 847.74L246.476 827.907L254.446 812.332Z" fill="#2F2E41"/>
<path d="M394.317 834.652H407.819L414.242 782.575H394.315L394.317 834.652Z" fill="#FFB7B7"/>
<path d="M390.873 830.244L417.462 830.243H417.464C421.957 830.243 426.267 832.029 429.445 835.206C432.623 838.384 434.408 842.694 434.408 847.188V847.738L390.874 847.74L390.873 830.244Z" fill="#2F2E41"/>
<path d="M331.163 409.873C331.163 409.873 322.122 402.946 322.122 419.866L320.694 475.778L336.635 528.598L345.914 511.467L342.107 474.351L331.163 409.873Z" fill="#2F2E41"/>
<path d="M427.877 562.804C427.877 562.804 438.362 613.862 425.082 655.764L417.743 816.871L390.833 814.774L381.397 695.254L372.311 635.844L353.44 690.012L291.233 804.639L262.577 782.273C262.577 782.273 294.333 695.624 317.793 677.431L329.56 543.42L427.877 562.804Z" fill="#2F2E41"/>
<path d="M422.903 325.643C431.031 310.774 425.566 292.131 410.697 284.003C395.828 275.875 377.186 281.34 369.058 296.209C360.93 311.078 366.394 329.72 381.263 337.848C396.132 345.976 414.775 340.512 422.903 325.643Z" fill="#FFB7B7"/>
<path d="M393.809 317.434C397.487 317.912 400.261 314.149 401.548 310.67C402.835 307.192 403.816 303.142 407.013 301.263C411.382 298.695 416.972 301.783 421.968 300.936C427.61 299.98 431.279 294 431.566 288.285C431.854 282.569 429.579 277.072 427.348 271.803L426.568 278.352C426.673 276.132 426.206 273.923 425.212 271.935C424.218 269.948 422.731 268.249 420.893 267L421.897 276.609C421.684 275.284 421.21 274.013 420.504 272.871C419.798 271.728 418.874 270.737 417.784 269.953C416.694 269.169 415.459 268.607 414.152 268.302C412.844 267.996 411.489 267.951 410.164 268.17L410.322 273.896C403.806 273.121 397.232 272.345 390.696 272.935C384.16 273.526 377.579 275.594 372.625 279.898C365.215 286.337 362.509 296.939 363.417 306.713C364.326 316.488 368.361 325.67 372.566 334.54C373.624 336.772 375.087 339.29 377.541 339.575C379.745 339.83 381.762 337.987 382.448 335.877C382.976 333.711 382.955 331.448 382.388 329.292C381.768 325.997 380.987 322.63 381.569 319.329C382.152 316.027 384.527 312.765 387.855 312.36C391.183 311.956 394.589 315.76 392.989 318.706L393.809 317.434Z" fill="#2F2E41"/>
<path d="M429.776 576.458L327.357 569.85L335.066 537.913L428.674 558.838L429.776 576.458Z" fill="#CBCBCB"/>
<path d="M366.614 352.77L373.038 343.852C373.038 343.852 380.218 346.292 399.448 355.863L400.806 364.22L434.185 569.521L373.514 566.904L356.992 566.553L351.585 554.433L344.918 566.296L328.784 565.952L312.367 556.435L328.546 506.947L333.78 461.741L325.691 419.152C325.691 419.152 315.511 380.043 354.718 358.957L366.614 352.77Z" fill="#2F2E41"/>
<path d="M503.363 508.185C501.877 508.563 500.326 508.61 498.82 508.323C497.314 508.037 495.89 507.424 494.646 506.527C493.403 505.63 492.371 504.472 491.624 503.133C490.877 501.795 490.432 500.308 490.322 498.779L454.327 489.138L468.807 476.281L500.768 487.408C503.349 487.392 505.846 488.324 507.786 490.026C509.726 491.728 510.974 494.083 511.294 496.644C511.614 499.205 510.983 501.795 509.521 503.922C508.06 506.049 505.868 507.566 503.363 508.185Z" fill="#FFB7B7"/>
<path d="M487.241 502.742C486.484 503.154 485.649 503.403 484.79 503.471C483.931 503.539 483.067 503.426 482.254 503.138L423.041 480.664C408.595 475.543 396.501 465.35 389.009 451.98L364.316 407.931C362.582 405.995 361.247 403.737 360.387 401.285C359.527 398.832 359.158 396.235 359.303 393.64C359.448 391.046 360.103 388.505 361.231 386.164C362.359 383.823 363.938 381.727 365.876 379.997C367.815 378.267 370.076 376.935 372.529 376.08C374.983 375.224 377.581 374.861 380.176 375.01C382.77 375.16 385.309 375.82 387.648 376.952C389.987 378.084 392.08 379.666 393.807 381.608L436.547 449.349L490.334 480.884C491.388 481.575 492.204 482.574 492.672 483.745C493.14 484.916 493.238 486.202 492.951 487.43L490.276 498.764C489.989 499.979 489.338 501.078 488.41 501.914C488.055 502.235 487.662 502.513 487.241 502.742Z" fill="#2F2E41"/>
<path d="M944 850H1C0.734784 850 0.480429 849.895 0.292892 849.707C0.105356 849.52 0 849.265 0 849C0 848.735 0.105356 848.48 0.292892 848.293C0.480429 848.105 0.734784 848 1 848H944C944.265 848 944.52 848.105 944.707 848.293C944.895 848.48 945 848.735 945 849C945 849.265 944.895 849.52 944.707 849.707C944.52 849.895 944.265 850 944 850Z" fill="#CBCBCB"/>
<path d="M778.369 806.222L776.843 804.137C789.757 791.182 805.83 775.059 811.845 753.749C817.776 732.742 813.315 707.382 800.203 687.563C789.045 670.696 771.815 657.415 750.377 649.153C746.148 647.523 741.758 646.076 737.512 644.676C727.248 641.292 716.636 637.792 707.237 631.397C694.292 622.588 682.535 605.286 685.448 586.489C686.437 580.474 688.847 574.904 692.405 570.412C695.962 565.92 700.524 562.686 705.573 561.076L706.197 563.723C701.571 565.197 697.391 568.159 694.131 572.273C690.871 576.387 688.662 581.489 687.753 586.998C685.046 604.466 696.18 620.696 708.416 629.023C717.558 635.244 728.025 638.695 738.148 642.032C742.418 643.44 746.834 644.896 751.111 646.545C772.995 654.978 790.613 668.58 802.058 685.881C815.641 706.413 820.245 732.748 814.073 754.611C807.852 776.646 791.505 793.046 778.369 806.222Z" fill="#F1F1F1"/>
<path d="M722.718 571.548C733.799 568.745 741.84 561.365 740.677 555.065C739.514 548.764 729.588 545.929 718.506 548.731C707.425 551.534 699.384 558.914 700.547 565.214C701.71 571.515 711.636 574.35 722.718 571.548Z" fill="#F1F1F1"/>
<path d="M752.642 642.647C763.724 639.844 771.765 632.465 770.602 626.164C769.439 619.864 759.513 617.028 748.431 619.831C737.349 622.633 729.309 630.013 730.472 636.313C731.634 642.614 741.561 645.45 752.642 642.647Z" fill="#F1F1F1"/>
<path d="M718.181 664.005C729.263 661.203 737.304 653.823 736.141 647.523C734.978 641.222 725.052 638.387 713.97 641.189C702.888 643.992 694.848 651.371 696.011 657.672C697.174 663.972 707.1 666.808 718.181 664.005Z" fill="#F1F1F1"/>
<path d="M1006.68 652.691H1004.33V660.929H1006.68V652.691Z" fill="#E5E5E5"/>
<path d="M1006.68 836.465H1004.33V818.911H1006.68V836.465ZM1006.68 801.358H1004.33V783.804H1006.68V801.358ZM1006.68 766.25H1004.33V748.697H1006.68V766.25ZM1006.68 731.143H1004.33V713.589H1006.68V731.143ZM1006.68 696.036H1004.33V678.482H1006.68V696.036Z" fill="#E5E5E5"/>
<path d="M1006.68 854.019H1004.33V862.258H1006.68V854.019Z" fill="#E5E5E5"/>
<path d="M1263.57 652.691H1261.22V660.929H1263.57V652.691Z" fill="#E5E5E5"/>
<path d="M1263.57 836.465H1261.22V818.911H1263.57V836.465ZM1263.57 801.358H1261.22V783.804H1263.57V801.358ZM1263.57 766.25H1261.22V748.697H1263.57V766.25ZM1263.57 731.143H1261.22V713.589H1263.57V731.143ZM1263.57 696.036H1261.22V678.482H1263.57V696.036Z" fill="#E5E5E5"/>
<path d="M1263.57 854.019H1261.22V862.258H1263.57V854.019Z" fill="#E5E5E5"/>
<path d="M1393.15 491.522H1390.81V499.761H1393.15V491.522Z" fill="#E5E5E5"/>
<path d="M1393.15 837.15H1390.81V820.28H1393.15V837.15ZM1393.15 803.411H1390.81V786.541H1393.15V803.411ZM1393.15 769.672H1390.81V752.802H1393.15V769.672ZM1393.15 735.933H1390.81V719.064H1393.15V735.933ZM1393.15 702.194H1390.81V685.324H1393.15V702.194ZM1393.15 668.455H1390.81V651.586H1393.15V668.455ZM1393.15 634.716H1390.81V617.847H1393.15V634.716ZM1393.15 600.978H1390.81V584.108H1393.15V600.978ZM1393.15 567.238H1390.81V550.369H1393.15V567.238ZM1393.15 533.5H1390.81V516.63H1393.15V533.5Z" fill="#E5E5E5"/>
<path d="M1393.15 854.019H1390.81V862.258H1393.15V854.019Z" fill="#E5E5E5"/>
<path d="M1521.45 425.614H1519.1V433.853H1521.45V425.614Z" fill="#E5E5E5"/>
<path d="M1521.45 837.213H1519.1V820.406H1521.45V837.213ZM1521.45 803.599H1519.1V786.792H1521.45V803.599ZM1521.45 769.986H1519.1V753.179H1521.45V769.986ZM1521.45 736.373H1519.1V719.566H1521.45V736.373ZM1521.45 702.759H1519.1V685.953H1521.45V702.759ZM1521.45 669.146H1519.1V652.339H1521.45V669.146ZM1521.45 635.533H1519.1V618.726H1521.45V635.533ZM1521.45 601.919H1519.1V585.113H1521.45V601.919ZM1521.45 568.306H1519.1V551.499H1521.45V568.306ZM1521.45 534.693H1519.1V517.886H1521.45V534.693ZM1521.45 501.08H1519.1V484.273H1521.45V501.08ZM1521.45 467.466H1519.1V450.66H1521.45V467.466Z" fill="#E5E5E5"/>
<path d="M1521.45 854.019H1519.1V862.258H1521.45V854.019Z" fill="#E5E5E5"/>
<path d="M1135.71 542.327H1133.36V550.565H1135.71V542.327Z" fill="#E5E5E5"/>
<path d="M1135.71 838.048H1133.36V822.077H1135.71V838.048ZM1135.71 806.106H1133.36V790.135H1135.71V806.106ZM1135.71 774.163H1133.36V758.192H1135.71V774.163ZM1135.71 742.221H1133.36V726.25H1135.71V742.221ZM1135.71 710.278H1133.36V694.307H1135.71V710.278ZM1135.71 678.336H1133.36V662.365H1135.71V678.336ZM1135.71 646.393H1133.36V630.422H1135.71V646.393ZM1135.71 614.451H1133.36V598.48H1135.71V614.451ZM1135.71 582.508H1133.36V566.537H1135.71V582.508Z" fill="#E5E5E5"/>
<path d="M1135.71 854.019H1133.36V862.258H1135.71V854.019Z" fill="#E5E5E5"/>
<path d="M1651.57 866.083H874.879C874.235 866.083 873.617 865.783 873.161 865.25C872.705 864.716 872.449 863.992 872.449 863.238V427.48C872.45 426.727 872.707 426.005 873.163 425.473C873.618 424.94 874.236 424.641 874.879 424.641C875.523 424.641 876.141 424.94 876.596 425.473C877.052 426.005 877.309 426.727 877.31 427.48V860.393H1651.57C1651.89 860.392 1652.21 860.465 1652.5 860.607C1652.8 860.75 1653.07 860.959 1653.29 861.224C1653.52 861.488 1653.7 861.802 1653.82 862.148C1653.94 862.493 1654.01 862.864 1654.01 863.238C1654.01 863.612 1653.94 863.982 1653.82 864.328C1653.7 864.674 1653.52 864.988 1653.29 865.252C1653.07 865.516 1652.8 865.726 1652.5 865.868C1652.21 866.011 1651.89 866.084 1651.57 866.083Z" fill="#3F3D56"/>
<path d="M1263.46 656.515L1134.33 543.296L1006.96 654.967L1004.05 650.413L1134.33 536.185L1262.85 648.865L1390.56 485.269L1391.07 485.026L1519.9 424.268L1521.72 429.548L1393.4 490.063L1263.46 656.515Z" fill="#3F3D56"/>
<path d="M1005.5 669.762C1013.56 669.762 1020.09 662.119 1020.09 652.69C1020.09 643.262 1013.56 635.619 1005.5 635.619C997.448 635.619 990.919 643.262 990.919 652.69C990.919 662.119 997.448 669.762 1005.5 669.762Z" fill="#31CD76"/>
<path d="M1134.33 558.798C1142.38 558.798 1148.91 551.154 1148.91 541.726C1148.91 532.298 1142.38 524.655 1134.33 524.655C1126.27 524.655 1119.74 532.298 1119.74 541.726C1119.74 551.154 1126.27 558.798 1134.33 558.798Z" fill="#31CD76"/>
<path d="M1263.16 669.762C1271.21 669.762 1277.74 662.119 1277.74 652.69C1277.74 643.262 1271.21 635.619 1263.16 635.619C1255.1 635.619 1248.57 643.262 1248.57 652.69C1248.57 662.119 1255.1 669.762 1263.16 669.762Z" fill="#E5E5E5"/>
<path d="M1259.64 730.178C1267.69 730.178 1274.22 722.535 1274.22 713.106C1274.22 703.678 1267.69 696.035 1259.64 696.035C1251.58 696.035 1245.05 703.678 1245.05 713.106C1245.05 722.535 1251.58 730.178 1259.64 730.178Z" fill="#31CD76"/>
<path d="M1391.98 504.738C1400.04 504.738 1406.57 497.095 1406.57 487.667C1406.57 478.238 1400.04 470.595 1391.98 470.595C1383.93 470.595 1377.4 478.238 1377.4 487.667C1377.4 497.095 1383.93 504.738 1391.98 504.738Z" fill="#31CD76"/>
<path d="M1520.81 442.143C1528.86 442.143 1535.39 434.5 1535.39 425.071C1535.39 415.643 1528.86 408 1520.81 408C1512.75 408 1506.22 415.643 1506.22 425.071C1506.22 434.5 1512.75 442.143 1520.81 442.143Z" fill="#31CD76"/>
<path d="M870.835 742.072C875.816 726.818 876.537 712.969 872.447 711.139C868.356 709.309 861.002 720.19 856.021 735.444C851.04 750.698 850.319 764.547 854.41 766.377C858.501 768.207 865.855 757.326 870.835 742.072Z" fill="#2F2E41"/>
<path d="M816.733 842.549C844.634 842.549 867.252 816.074 867.252 783.414C867.252 750.754 844.634 724.278 816.733 724.278C788.832 724.278 766.214 750.754 766.214 783.414C766.214 816.074 788.832 842.549 816.733 842.549Z" fill="#2F2E41"/>
<path d="M809.059 829.824H793.711V862.012H809.059V829.824Z" fill="#2F2E41"/>
<path d="M839.754 829.824H824.407V862.012H839.754V829.824Z" fill="#2F2E41"/>
<path d="M806.501 868C813.565 868 819.291 865.486 819.291 862.386C819.291 859.285 813.565 856.772 806.501 856.772C799.438 856.772 793.711 859.285 793.711 862.386C793.711 865.486 799.438 868 806.501 868Z" fill="#2F2E41"/>
<path d="M837.197 867.251C844.26 867.251 849.986 864.738 849.986 861.637C849.986 858.537 844.26 856.023 837.197 856.023C830.133 856.023 824.407 858.537 824.407 861.637C824.407 864.738 830.133 867.251 837.197 867.251Z" fill="#2F2E41"/>
<path d="M818.012 788.654C827.548 788.654 835.278 779.605 835.278 768.443C835.278 757.281 827.548 748.232 818.012 748.232C808.476 748.232 800.746 757.281 800.746 768.443C800.746 779.605 808.476 788.654 818.012 788.654Z" fill="white"/>
<path d="M818.012 775.18C821.191 775.18 823.767 772.164 823.767 768.443C823.767 764.722 821.191 761.706 818.012 761.706C814.833 761.706 812.257 764.722 812.257 768.443C812.257 772.164 814.833 775.18 818.012 775.18Z" fill="#3F3D56"/>
<path d="M767.727 728.419C763.648 707.035 776.688 685.427 796.852 680.157C817.017 674.886 836.67 687.949 840.749 709.334C844.828 730.718 831.465 738.605 811.3 743.875C791.136 749.146 771.807 749.804 767.727 728.419Z" fill="#E6E6E6"/>
<path d="M782.654 768.645C784.531 764.014 775.834 754.586 763.229 747.588C750.625 740.59 738.885 738.672 737.008 743.304C735.132 747.936 743.828 757.364 756.433 764.361C769.038 771.359 780.777 773.277 782.654 768.645Z" fill="#2F2E41"/>
<path d="M791.918 804.748C791.918 810.535 804.649 821.964 818.776 821.964C832.904 821.964 846.149 805.67 846.149 799.882C846.149 794.094 832.904 801.005 818.776 801.005C804.649 801.005 791.918 798.96 791.918 804.748Z" fill="white"/>
<path d="M1198.12 833.139C1226.02 833.139 1248.64 806.663 1248.64 774.003C1248.64 741.344 1226.02 714.868 1198.12 714.868C1170.22 714.868 1147.6 741.344 1147.6 774.003C1147.6 806.663 1170.22 833.139 1198.12 833.139Z" fill="#2F2E41"/>
<path d="M1190.45 820.413H1175.1V852.601H1190.45V820.413Z" fill="#2F2E41"/>
<path d="M1221.14 820.413H1205.79V852.601H1221.14V820.413Z" fill="#2F2E41"/>
<path d="M1198.37 863.264C1199.46 860.439 1195.13 855.386 1188.69 851.979C1182.26 848.572 1176.15 848.1 1175.06 850.925C1173.97 853.75 1178.3 858.803 1184.74 862.21C1191.18 865.617 1197.28 866.089 1198.37 863.264Z" fill="#2F2E41"/>
<path d="M1227.74 861.512C1228.9 858.723 1224.69 853.534 1218.33 849.923C1211.98 846.311 1205.89 845.645 1204.73 848.434C1203.58 851.223 1207.79 856.412 1214.14 860.023C1220.5 863.635 1226.59 864.301 1227.74 861.512Z" fill="#2F2E41"/>
<path d="M1149.12 719.009C1145.04 697.625 1158.08 676.017 1178.24 670.746C1198.4 665.476 1218.06 678.539 1222.14 699.923C1226.22 721.307 1212.85 729.194 1192.69 734.465C1172.52 739.735 1153.19 740.393 1149.12 719.009Z" fill="#31CD76"/>
<path d="M1252.56 748.162C1263.5 735.345 1269.58 721.696 1266.15 717.676C1262.71 713.655 1251.05 720.786 1240.11 733.603C1229.17 746.42 1223.09 760.069 1226.53 764.089C1229.96 768.11 1241.62 760.979 1252.56 748.162Z" fill="#2F2E41"/>
<path d="M1156.65 798.448C1160.62 780.936 1160.03 765.557 1155.34 764.097C1150.64 762.638 1143.61 775.652 1139.64 793.164C1135.67 810.677 1136.26 826.056 1140.96 827.515C1145.65 828.974 1152.68 815.96 1156.65 798.448Z" fill="#2F2E41"/>
</g>
<defs>
<filter id="filter0_d" x="438.288" y="210.666" width="1049.98" height="688.138" filterUnits="userSpaceOnUse" color-interpolation-filters="sRGB">
<feFlood flood-opacity="0" result="BackgroundImageFix"/>
<feColorMatrix in="SourceAlpha" type="matrix" values="0 0 0 0 0 0 0 0 0 0 0 0 0 0 0 0 0 0 127 0"/>
<feOffset dy="2"/>
<feGaussianBlur stdDeviation="38.5"/>
<feColorMatrix type="matrix" values="0 0 0 0 0 0 0 0 0 0 0 0 0 0 0 0 0 0 0.0240111 0"/>
<feBlend mode="normal" in2="BackgroundImageFix" result="effect1_dropShadow"/>
<feBlend mode="normal" in="SourceGraphic" in2="effect1_dropShadow" result="shape"/>
</filter>
<linearGradient id="paint0_linear" x1="631.899" y1="226.075" x2="1421.96" y2="593.245" gradientUnits="userSpaceOnUse">
<stop stop-color="#33D35E"/>
<stop offset="1" stop-color="#2AB6D9"/>
</linearGradient>
<clipPath id="clip0">
<rect width="1670" height="868" fill="white"/>
</clipPath>
<clipPath id="clip1">
<rect width="1074" height="851" fill="white" transform="translate(454 33)"/>
</clipPath>
</defs>
</svg>
