<svg width="1012" height="794" viewBox="0 0 1012 794" fill="none" xmlns="http://www.w3.org/2000/svg">
<g clip-path="url(#clip0)">
<path d="M639.605 442.892H301.232V794H639.605V442.892Z" fill="#31CD76"/>
<path d="M658.477 401.825H325.499C324.426 401.827 323.398 402.477 322.639 403.632C321.881 404.788 321.454 406.354 321.452 407.987V750.878C321.452 751.687 321.557 752.489 321.76 753.236C321.964 753.984 322.262 754.664 322.637 755.236C323.013 755.808 323.459 756.262 323.95 756.572C324.441 756.881 324.967 757.041 325.499 757.041H658.477C659.008 757.041 659.534 756.881 660.025 756.572C660.516 756.262 660.962 755.808 661.338 755.236C661.713 754.663 662.011 753.984 662.215 753.236C662.418 752.489 662.523 751.687 662.523 750.878V407.987C662.521 406.354 662.094 404.788 661.336 403.632C660.577 402.477 659.549 401.827 658.477 401.825V401.825ZM659.825 750.878C659.826 751.148 659.791 751.416 659.724 751.665C659.656 751.915 659.557 752.142 659.432 752.333C659.306 752.524 659.157 752.675 658.993 752.778C658.83 752.881 658.654 752.933 658.477 752.932H325.499C325.321 752.933 325.146 752.881 324.982 752.778C324.818 752.675 324.669 752.524 324.544 752.333C324.418 752.142 324.319 751.915 324.251 751.665C324.184 751.416 324.149 751.148 324.15 750.878V407.987C324.15 407.443 324.293 406.921 324.545 406.536C324.798 406.15 325.141 405.934 325.499 405.933H658.477C658.834 405.934 659.177 406.15 659.43 406.536C659.682 406.921 659.825 407.443 659.825 407.987V750.878Z" fill="#3F3D56"/>
<path d="M489.345 644.111H340.948C339.86 644.111 338.979 645.453 338.979 647.109V667.804C338.979 669.46 339.86 670.803 340.948 670.803H489.345C490.432 670.803 491.314 669.46 491.314 667.804V647.109C491.314 645.453 490.432 644.111 489.345 644.111Z" fill="#3F3D56"/>
<path d="M630.164 621.527H581.641C581.109 621.527 580.583 621.687 580.092 621.996C579.602 622.306 579.156 622.76 578.78 623.332C578.404 623.904 578.106 624.584 577.903 625.332C577.699 626.079 577.595 626.88 577.595 627.69V685.176C577.595 685.985 577.699 686.786 577.903 687.534C578.106 688.282 578.404 688.961 578.78 689.533C579.155 690.105 579.602 690.559 580.092 690.869C580.583 691.179 581.109 691.338 581.641 691.338H630.164C630.695 691.338 631.222 691.179 631.712 690.869C632.203 690.559 632.649 690.105 633.025 689.533C633.401 688.961 633.699 688.282 633.902 687.534C634.106 686.786 634.21 685.985 634.21 685.176V627.69C634.21 626.88 634.105 626.079 633.902 625.332C633.699 624.584 633.401 623.904 633.025 623.332C632.649 622.76 632.203 622.306 631.712 621.996C631.222 621.687 630.695 621.527 630.164 621.527V621.527ZM631.513 685.176C631.512 685.72 631.37 686.242 631.117 686.627C630.864 687.012 630.522 687.229 630.164 687.23H581.641C581.283 687.229 580.941 687.012 580.688 686.627C580.435 686.242 580.293 685.72 580.292 685.176V627.69C580.292 627.42 580.326 627.152 580.394 626.903C580.461 626.653 580.561 626.426 580.686 626.235C580.811 626.044 580.96 625.893 581.124 625.79C581.288 625.687 581.464 625.635 581.641 625.636H630.164C630.341 625.635 630.517 625.687 630.681 625.79C630.845 625.893 630.994 626.044 631.119 626.235C631.244 626.426 631.344 626.653 631.411 626.903C631.479 627.152 631.513 627.42 631.513 627.69V685.176Z" fill="#3F3D56"/>
<path d="M620.474 634.792H591.331C590.244 634.792 589.362 636.135 589.362 637.791V642.217C589.362 643.874 590.244 645.216 591.331 645.216H620.474C621.561 645.216 622.443 643.874 622.443 642.217V637.791C622.443 636.135 621.561 634.792 620.474 634.792Z" fill="#3F3D56"/>
<path d="M620.474 651.218H591.331C590.244 651.218 589.362 652.56 589.362 654.217V658.643C589.362 660.3 590.244 661.642 591.331 661.642H620.474C621.561 661.642 622.443 660.3 622.443 658.643V654.217C622.443 652.56 621.561 651.218 620.474 651.218Z" fill="#3F3D56"/>
<path d="M620.474 667.644H591.331C590.244 667.644 589.362 668.986 589.362 670.643V675.069C589.362 676.725 590.244 678.068 591.331 678.068H620.474C621.561 678.068 622.443 676.725 622.443 675.069V670.643C622.443 668.986 621.561 667.644 620.474 667.644Z" fill="#3F3D56"/>
<path d="M411.155 426.467H344.992C343.904 426.467 343.023 427.81 343.023 429.466V468.64C343.023 470.296 343.904 471.638 344.992 471.638H411.155C412.243 471.638 413.124 470.296 413.124 468.64V429.466C413.124 427.81 412.243 426.467 411.155 426.467Z" fill="#3F3D56"/>
<path d="M383.466 449.052C383.466 456.99 381.052 463.425 378.074 463.425C375.095 463.425 372.681 456.99 372.681 449.052C372.681 441.115 378.074 434.68 378.074 434.68C378.074 434.68 383.466 441.115 383.466 449.052Z" fill="#31CD76"/>
<path d="M887.96 242.654H885.991V577.934H662.522V580.933H887.96V242.654Z" fill="#3F3D56"/>
<path d="M301.232 580.933H75.7942V242.654H77.7631V577.934H301.232V580.933Z" fill="#3F3D56"/>
<path d="M1011.37 56.6906H1010.11V53.3276H1011.05C1011.22 53.3276 1011.38 53.2264 1011.5 53.0462C1011.62 52.866 1011.68 52.6216 1011.68 52.3668V35.0713C1011.68 34.8165 1011.62 34.5721 1011.5 34.3919C1011.38 34.2117 1011.22 34.1105 1011.05 34.1105H1010.11V24.2881C1010.11 21.5402 1009.75 18.8191 1009.06 16.2804C1008.37 13.7416 1007.36 11.4348 1006.08 9.49175C1004.81 7.54867 1003.29 6.00735 1001.63 4.95578C999.959 3.9042 998.173 3.36299 996.369 3.36301H994.967V0.960855C994.967 0.706021 994.9 0.461624 994.782 0.281429C994.663 0.101235 994.503 3.97647e-06 994.336 0H982.98C982.813 3.97647e-06 982.652 0.101235 982.534 0.281429C982.416 0.461624 982.349 0.706021 982.349 0.960855V3.36301H777.176C775.371 3.36299 773.585 3.9042 771.918 4.95578C770.251 6.00735 768.737 7.54867 767.461 9.49175C766.185 11.4348 765.173 13.7416 764.483 16.2804C763.792 18.8191 763.437 21.5402 763.437 24.2881V469.592C763.437 472.34 763.792 475.061 764.483 477.6C765.173 480.139 766.185 482.446 767.461 484.389C768.737 486.332 770.251 487.873 771.918 488.925C773.585 489.977 775.371 490.518 777.176 490.518H996.369C998.173 490.518 999.959 489.977 1001.63 488.925C1003.29 487.873 1004.81 486.332 1006.08 484.389C1007.36 482.446 1008.37 480.139 1009.06 477.6C1009.75 475.061 1010.11 472.34 1010.11 469.592V75.9078H1011.37C1011.54 75.9078 1011.7 75.8065 1011.82 75.6263C1011.93 75.4461 1012 75.2017 1012 74.9469V57.6515C1012 57.5253 1011.98 57.4003 1011.95 57.2838C1011.92 57.1672 1011.87 57.0613 1011.82 56.972C1011.76 56.8828 1011.69 56.812 1011.61 56.7638C1011.53 56.7155 1011.45 56.6906 1011.37 56.6906V56.6906Z" fill="#3F3D56"/>
<path d="M998.77 17.0504H776.666C775.631 17.0504 774.791 18.329 774.791 19.9064V470.611C774.791 472.189 775.631 473.467 776.666 473.467H998.77C999.806 473.467 1000.65 472.189 1000.65 470.611V19.9064C1000.65 18.329 999.806 17.0504 998.77 17.0504Z" fill="#D0CDE1"/>
<path d="M898.558 240.736H863.752C862.664 240.736 861.783 242.079 861.783 243.735V255.224C861.783 256.881 862.664 258.223 863.752 258.223H898.558C899.645 258.223 900.527 256.881 900.527 255.224V243.735C900.527 242.079 899.645 240.736 898.558 240.736Z" fill="#3F3D56"/>
<path d="M945.398 104.587H816.912C815.824 104.587 814.943 105.929 814.943 107.586V109.083C814.943 110.739 815.824 112.081 816.912 112.081H945.398C946.486 112.081 947.367 110.739 947.367 109.083V107.586C947.367 105.929 946.486 104.587 945.398 104.587Z" fill="#3F3D56"/>
<path d="M945.398 128.319H816.912C815.824 128.319 814.943 129.662 814.943 131.318V132.815C814.943 134.471 815.824 135.814 816.912 135.814H945.398C946.486 135.814 947.367 134.471 947.367 132.815V131.318C947.367 129.662 946.486 128.319 945.398 128.319Z" fill="#3F3D56"/>
<path d="M945.398 152.052H816.912C815.824 152.052 814.943 153.394 814.943 155.05V156.547C814.943 158.204 815.824 159.546 816.912 159.546H945.398C946.486 159.546 947.367 158.204 947.367 156.547V155.05C947.367 153.394 946.486 152.052 945.398 152.052Z" fill="#3F3D56"/>
<path d="M945.398 175.784H816.912C815.824 175.784 814.943 177.127 814.943 178.783V180.28C814.943 181.936 815.824 183.279 816.912 183.279H945.398C946.486 183.279 947.367 181.936 947.367 180.28V178.783C947.367 177.127 946.486 175.784 945.398 175.784Z" fill="#3F3D56"/>
<path d="M945.398 199.517H816.912C815.824 199.517 814.943 200.859 814.943 202.515V204.012C814.943 205.668 815.824 207.011 816.912 207.011H945.398C946.486 207.011 947.367 205.668 947.367 204.012V202.515C947.367 200.859 946.486 199.517 945.398 199.517Z" fill="#3F3D56"/>
<path d="M876.467 455.446C899.182 455.446 917.597 427.4 917.597 392.803C917.597 358.206 899.182 330.159 876.467 330.159C853.752 330.159 835.337 358.206 835.337 392.803C835.337 427.4 853.752 455.446 876.467 455.446Z" fill="#31CD76"/>
<path d="M888.59 441.121C878.391 441.121 868.421 436.515 859.941 427.885C851.461 419.254 844.851 406.988 840.948 392.637C837.045 378.286 836.024 362.494 838.014 347.259C840.003 332.023 844.915 318.029 852.126 307.045C859.338 296.061 868.527 288.581 878.53 285.55C888.533 282.52 898.901 284.075 908.324 290.02C917.746 295.964 925.8 306.031 931.466 318.947C937.133 331.862 940.157 347.047 940.157 362.581C940.141 383.404 934.703 403.367 925.036 418.091C915.369 432.815 902.261 441.097 888.59 441.121V441.121ZM888.59 286.897C878.762 286.897 869.154 291.336 860.982 299.652C852.811 307.968 846.442 319.789 842.68 333.618C838.919 347.447 837.935 362.665 839.853 377.346C841.77 392.027 846.503 405.513 853.452 416.098C860.402 426.682 869.256 433.89 878.895 436.811C888.535 439.731 898.526 438.232 907.606 432.504C916.686 426.775 924.447 417.075 929.907 404.629C935.367 392.183 938.282 377.55 938.282 362.581C938.267 342.515 933.027 323.278 923.711 309.089C914.395 294.901 901.764 286.92 888.59 286.897V286.897Z" fill="#3F3D56"/>
<path d="M153.073 131.812H151.386V61.4341C151.386 56.085 150.695 50.7883 149.351 45.8463C148.007 40.9044 146.037 36.414 143.553 32.6316C141.07 28.8492 138.121 25.8488 134.877 23.8018C131.632 21.7548 128.154 20.7012 124.642 20.7012H26.7441C23.232 20.7012 19.7543 21.7548 16.5096 23.8018C13.2648 25.8488 10.3166 28.8492 7.83316 32.6316C5.34974 36.414 3.37978 40.9044 2.03577 45.8463C0.691755 50.7883 -3.87837e-06 56.085 0 61.4341V447.533C-3.87838e-06 452.882 0.691753 458.179 2.03577 463.121C3.37979 468.063 5.34974 472.553 7.83316 476.336C10.3166 480.118 13.2648 483.119 16.5096 485.166C19.7543 487.213 23.232 488.266 26.7441 488.266H124.642C128.154 488.266 131.632 487.213 134.877 485.166C138.122 483.119 141.07 480.118 143.553 476.336C146.037 472.553 148.007 468.063 149.351 463.121C150.695 458.179 151.386 452.882 151.386 447.533V181.908H153.073V131.812Z" fill="#3F3D56"/>
<path d="M145.691 63.8282V449.364C145.692 457.432 143.589 465.17 139.844 470.876C136.099 476.582 131.019 479.788 125.722 479.789H27.351C22.0539 479.788 16.9742 476.582 13.2292 470.876C9.48429 465.17 7.38092 457.432 7.38184 449.364V63.8282C7.3824 55.762 9.48648 48.0265 13.2313 42.3229C16.9761 36.6193 22.055 33.4147 27.351 33.4139H39.2857C38.6984 35.6081 38.4743 37.9887 38.6333 40.3459C38.7924 42.7031 39.3295 44.9645 40.1975 46.931C41.0656 48.8976 42.2378 50.5088 43.6109 51.6228C44.9841 52.7368 46.516 53.3194 48.0718 53.3192H104.157C105.713 53.3194 107.245 52.7369 108.618 51.6229C109.991 50.5089 111.163 48.8976 112.031 46.9311C112.9 44.9646 113.437 42.7031 113.596 40.3459C113.755 37.9887 113.531 35.6081 112.943 33.4139H125.722C131.018 33.4148 136.097 36.6194 139.842 42.323C143.586 48.0266 145.69 55.762 145.691 63.8282Z" fill="#D0CDE1"/>
<path d="M87.7437 260.55H65.3295C64.2421 260.55 63.3606 261.893 63.3606 263.549V269.445C63.3606 271.101 64.2421 272.444 65.3295 272.444H87.7437C88.8311 272.444 89.7126 271.101 89.7126 269.445V263.549C89.7126 261.893 88.8311 260.55 87.7437 260.55Z" fill="#3F3D56"/>
<path d="M119.898 167.948H33.1756C32.2514 167.948 31.5022 169.089 31.5022 170.497C31.5022 171.904 32.2514 173.045 33.1756 173.045H119.898C120.822 173.045 121.571 171.904 121.571 170.497C121.571 169.089 120.822 167.948 119.898 167.948Z" fill="#3F3D56"/>
<path d="M119.898 184.089H33.1756C32.2514 184.089 31.5022 185.231 31.5022 186.638C31.5022 188.046 32.2514 189.187 33.1756 189.187H119.898C120.822 189.187 121.571 188.046 121.571 186.638C121.571 185.231 120.822 184.089 119.898 184.089Z" fill="#3F3D56"/>
<path d="M119.898 200.231H33.1756C32.2514 200.231 31.5022 201.372 31.5022 202.78C31.5022 204.187 32.2514 205.329 33.1756 205.329H119.898C120.822 205.329 121.571 204.187 121.571 202.78C121.571 201.372 120.822 200.231 119.898 200.231Z" fill="#3F3D56"/>
<path d="M119.898 216.373H33.1756C32.2514 216.373 31.5022 217.514 31.5022 218.922C31.5022 220.329 32.2514 221.47 33.1756 221.47H119.898C120.822 221.47 121.571 220.329 121.571 218.922C121.571 217.514 120.822 216.373 119.898 216.373Z" fill="#3F3D56"/>
<path d="M119.898 232.515H33.1756C32.2514 232.515 31.5022 233.656 31.5022 235.063C31.5022 236.471 32.2514 237.612 33.1756 237.612H119.898C120.822 237.612 121.571 236.471 121.571 235.063C121.571 233.656 120.822 232.515 119.898 232.515Z" fill="#3F3D56"/>
<path d="M68.788 427.572C84.4534 427.572 97.1526 408.23 97.1526 384.371C97.1526 360.511 84.4534 341.17 68.788 341.17C53.1226 341.17 40.4233 360.511 40.4233 384.371C40.4233 408.23 53.1226 427.572 68.788 427.572Z" fill="#31CD76"/>
<path d="M77.1484 417.693C70.1148 417.693 63.2391 414.516 57.3908 408.565C51.5426 402.613 46.9844 394.154 44.2928 384.256C41.6011 374.359 40.8968 363.469 42.269 352.962C43.6412 342.455 47.0282 332.804 52.0018 325.229C56.9753 317.654 63.3119 312.495 70.2104 310.405C77.1089 308.315 84.2594 309.388 90.7576 313.488C97.2558 317.587 102.81 324.529 106.718 333.437C110.625 342.344 112.711 352.816 112.711 363.529C112.7 377.889 108.95 391.656 102.283 401.811C95.6162 411.965 86.5769 417.677 77.1484 417.693V417.693ZM77.1484 311.334C70.3705 311.334 63.7449 314.395 58.1093 320.131C52.4737 325.866 48.0813 334.017 45.4875 343.555C42.8938 353.092 42.2151 363.587 43.5374 373.711C44.8597 383.836 48.1236 393.136 52.9162 400.436C57.7089 407.735 63.8151 412.706 70.4627 414.72C77.1104 416.734 84.0008 415.701 90.2627 411.75C96.5247 407.8 101.877 401.11 105.642 392.527C109.408 383.943 111.418 373.852 111.418 363.529C111.408 349.691 107.794 336.424 101.369 326.639C94.9447 316.854 86.2341 311.35 77.1484 311.334Z" fill="#3F3D56"/>
<path d="M172.774 562.548H145.21V604.531H172.774V562.548Z" fill="#D0CDE1"/>
<path d="M189.51 580.541H156.039V529.562H189.51V580.541ZM157.494 578.324H188.055V531.779H157.494V578.324Z" fill="#3F3D56"/>
<path d="M790.02 562.548H762.456V604.531H790.02V562.548Z" fill="#D0CDE1"/>
<path d="M806.756 580.541H773.285V529.562H806.756V580.541ZM774.74 578.324H805.301V531.779H774.74V578.324Z" fill="#3F3D56"/>
</g>
<defs>
<clipPath id="clip0">
<rect width="1012" height="794" fill="white"/>
</clipPath>
</defs>
</svg>
