<svg width="1012" height="794" viewBox="0 0 1012 794" fill="none" xmlns="http://www.w3.org/2000/svg">
<g clip-path="url(#clip0)">
<path d="M669.345 649.13H64.8784V0H669.345V649.13Z" fill="white"/>
<path d="M669.345 649.13H64.8784V0H669.345V649.13ZM73.7346 641.377H660.489V7.75265H73.7346V641.377Z" fill="#E6E6E6"/>
<path d="M669.591 0H65.8975V83.039H669.591V0Z" fill="#47E6B1"/>
<path d="M152.45 206.165C180.836 206.165 203.848 184.448 203.848 157.658C203.848 130.869 180.836 109.152 152.45 109.152C124.064 109.152 101.052 130.869 101.052 157.658C101.052 184.448 124.064 206.165 152.45 206.165Z" fill="#E6E6E6"/>
<path d="M421.229 123.419H245.168V137.685H421.229V123.419Z" fill="#E6E6E6"/>
<path d="M633.171 157.658H245.168V171.925H633.171V157.658Z" fill="#E6E6E6"/>
<path d="M633.171 191.898H245.168V206.165H633.171V191.898Z" fill="#E6E6E6"/>
<path d="M152.45 603.205C180.836 603.205 203.848 581.488 203.848 554.699C203.848 527.91 180.836 506.193 152.45 506.193C124.064 506.193 101.052 527.91 101.052 554.699C101.052 581.488 124.064 603.205 152.45 603.205Z" fill="#E6E6E6"/>
<path d="M421.229 520.459H245.168V534.726H421.229V520.459Z" fill="#E6E6E6"/>
<path d="M633.171 554.699H245.168V568.965H633.171V554.699Z" fill="#E6E6E6"/>
<path d="M633.171 588.939H245.168V603.205H633.171V588.939Z" fill="#E6E6E6"/>
<path d="M161.016 21.2173H84.4235V31.6795H161.016V21.2173Z" fill="white"/>
<path d="M161.016 39.2883H84.4235V49.7505H161.016V39.2883Z" fill="white"/>
<path d="M161.016 57.3593H84.4235V67.8214H161.016V57.3593Z" fill="white"/>
<path d="M734.223 448.482H0V263.876H734.223V448.482Z" fill="white"/>
<path d="M734.223 448.482H0V263.876H734.223V448.482ZM8.85615 440.124H725.367V272.233H8.85615V440.124Z" fill="#CCCCCC"/>
<path d="M91.1134 403.869C119.178 403.869 141.929 382.398 141.929 355.912C141.929 329.426 119.178 307.955 91.1134 307.955C63.0488 307.955 40.2979 329.426 40.2979 355.912C40.2979 382.398 63.0488 403.869 91.1134 403.869Z" fill="#47E6B1"/>
<path d="M407.963 315.478H197.726V329.583H407.963V315.478Z" fill="#3F3D56"/>
<path d="M661.045 349.33H197.726V363.435H661.045V349.33Z" fill="#3F3D56"/>
<path d="M661.045 383.182H197.726V397.286H661.045V383.182Z" fill="#3F3D56"/>
<path d="M851.681 497.143C852.327 496.9 852.994 496.705 853.673 496.56L876.091 441.591L866.579 430.449L882.521 414.702C887.126 421.099 909.91 434.577 902.977 444.187L868.184 502.602C869.159 504.249 869.726 506.083 869.843 507.966C869.959 509.849 869.621 511.733 868.855 513.475C868.089 515.218 866.914 516.774 865.419 518.026C863.924 519.278 862.147 520.194 860.223 520.705C844.692 525.099 836.568 502.547 851.681 497.143Z" fill="#A0616A"/>
<path d="M872.896 441.355C868.875 442.449 853.686 420.161 851.148 418.222C848.123 415.522 846.356 411.8 846.235 407.872C846.114 403.944 847.647 400.131 850.5 397.269C853.353 394.407 857.293 392.729 861.454 392.603C865.616 392.478 869.661 393.915 872.701 396.6L896.062 412.032C896.724 412.476 897.278 413.048 897.686 413.71C898.095 414.373 898.348 415.11 898.43 415.872C898.512 416.635 898.421 417.405 898.162 418.131C897.902 418.857 897.482 419.523 896.928 420.083C894.134 421.876 876.867 442.724 872.896 441.355Z" fill="#47E6B1"/>
<path d="M880.843 775.737L862.747 775.735L860.042 709.864L880.846 709.865L880.843 775.737Z" fill="#A0616A"/>
<path d="M885.457 792.29L827.109 792.288C826.563 763.142 866.033 771.088 885.459 770.16L885.457 792.29Z" fill="#2F2E41"/>
<path d="M939.779 770.115L921.804 772.081L905.207 707.586L931.737 704.682L939.779 770.115Z" fill="#A0616A"/>
<path d="M946.385 786.056L888.426 792.401C884.323 763.509 924.501 767.108 943.684 764.074L946.385 786.056Z" fill="#2F2E41"/>
<path d="M884.08 760.098H854.326V654.26L836.951 565.905L813.181 487.4L868.942 461.799L879.575 477.566C881.219 478.981 907.861 502.246 910.735 525.299C913.664 548.796 885.371 750.901 884.165 759.493L884.08 760.098Z" fill="#2F2E41"/>
<path d="M815.197 503.843L806.01 465.844C803.856 463.888 783.467 444.164 806.036 418.957L817.927 389.696L852.766 379.512L866.388 389.464C871.875 393.467 876.235 398.681 879.084 404.648C881.933 410.615 883.185 417.152 882.728 423.682L879.008 477.443L815.197 503.843Z" fill="#2F2E41"/>
<path d="M845.026 316.483C880.928 335.763 851.454 386.633 814.884 368.519C778.983 349.239 808.457 298.369 845.026 316.483Z" fill="#A0616A"/>
<path d="M746.265 385.026C746.38 385.732 746.435 386.446 746.43 387.16L802.594 423.058L817.43 416.289L831.181 436.085C822.873 439.116 802.158 458.572 793.079 449.284L736.089 400.175C734.002 400.746 731.806 400.862 729.664 400.516C727.523 400.169 725.492 399.369 723.726 398.176C721.959 396.983 720.502 395.427 719.465 393.625C718.427 391.824 717.835 389.824 717.734 387.776C716.619 371.179 743.914 368.599 746.265 385.026Z" fill="#A0616A"/>
<path d="M803.643 419.924C803.403 415.637 832.137 405.934 834.935 403.874C838.707 401.515 843.317 400.664 847.753 401.507C852.189 402.35 856.09 404.819 858.601 408.373C861.111 411.926 862.026 416.274 861.145 420.463C860.264 424.652 857.659 428.34 853.9 430.719L830.851 450.272C830.191 450.824 829.413 451.237 828.569 451.482C827.726 451.728 826.837 451.8 825.961 451.695C825.086 451.589 824.244 451.309 823.493 450.872C822.742 450.434 822.099 449.851 821.606 449.16C820.281 445.928 801.133 423.555 803.643 419.924Z" fill="#47E6B1"/>
<path d="M907.898 739.115L870.974 651.826L895.573 618.454L949.649 736.115L907.898 739.115Z" fill="#2F2E41"/>
<path d="M1010.52 794H766.98C766.588 794 766.213 793.853 765.936 793.592C765.659 793.331 765.504 792.976 765.504 792.607C765.504 792.238 765.659 791.883 765.936 791.622C766.213 791.361 766.588 791.214 766.98 791.214H1010.52C1010.92 791.214 1011.29 791.361 1011.57 791.622C1011.84 791.883 1012 792.238 1012 792.607C1012 792.976 1011.84 793.331 1011.57 793.592C1011.29 793.853 1010.92 794 1010.52 794Z" fill="#CCCCCC"/>
<path d="M941.297 341.811C929.303 343.899 916.754 340.447 906.477 334.25C896.2 328.053 887.942 319.293 880.615 310.092C876.489 304.913 872.5 299.45 866.885 295.722C861.27 291.994 853.501 290.341 847.503 293.493C842.215 296.272 839.884 303.565 842.987 308.13C834.657 306.16 825.822 306.752 817.403 308.433C809.292 310.053 801.05 312.847 795.437 318.605C789.824 324.363 787.701 333.719 792.444 340.135L799.481 341.281C812.331 338.515 818.268 339.743 831.117 342.509C830.683 340.364 834.251 339.223 836.056 340.59C837.86 341.957 837.211 344.675 838.376 346.562C843.341 354.597 843.348 364.457 840.81 371.926C853.541 366.937 862.871 353.43 865.479 340.655C866.766 335.076 866.291 329.264 864.112 323.937C863.062 321.604 861.623 319.446 859.85 317.542C864.622 318.864 869.025 321.165 872.744 324.282C879.299 329.662 884.039 336.686 889.279 343.224C894.519 349.763 900.637 356.099 908.688 359.178C921.034 363.9 935.697 359.77 945.831 351.612C953.74 345.246 959.33 336.807 963.781 327.871C961.216 331.499 957.903 334.603 954.04 336.997C950.177 339.392 945.843 341.029 941.297 341.811V341.811Z" fill="#2F2E41"/>
<path d="M963.782 327.871C965.386 325.526 966.575 322.949 967.301 320.243C966.203 322.803 965.035 325.356 963.782 327.871Z" fill="#2F2E41"/>
</g>
<defs>
<clipPath id="clip0">
<rect width="1012" height="794" fill="white"/>
</clipPath>
</defs>
</svg>
