<svg width="1012" height="794" viewBox="0 0 1012 794" fill="none" xmlns="http://www.w3.org/2000/svg">
<g clip-path="url(#clip0)">
<path d="M329.31 196.137L209.381 295.596C214.326 301.026 218.119 307.402 220.53 314.34C222.94 321.277 223.919 328.632 223.406 335.959C222.894 343.285 220.9 350.432 217.547 356.966C214.194 363.5 209.55 369.286 203.897 373.975C198.243 378.663 191.698 382.156 184.656 384.243C177.614 386.329 170.222 386.966 162.927 386.115C155.632 385.263 148.586 382.94 142.214 379.288C135.842 375.635 130.277 370.728 125.856 364.864L18.3341 454.032L190.69 661.863L501.666 403.968L329.31 196.137Z" fill="#F2F2F2"/>
<path d="M1012 497.262C1012 620.101 938.974 662.992 848.892 662.992C758.809 662.992 685.783 620.101 685.783 497.262C685.783 374.422 848.892 218.151 848.892 218.151C848.892 218.151 1012 374.422 1012 497.262Z" fill="#F2F2F2"/>
<path d="M842.95 644.201L844.62 541.396L914.141 414.211L844.882 525.269L845.633 479.043L893.547 387.026L845.832 466.81V466.811L847.182 383.672L898.489 310.415L847.395 370.598L848.239 218.151L842.935 419.964L843.371 411.638L791.207 331.793L842.535 427.62L837.674 520.472L837.53 518.007L777.394 433.981L837.347 526.714L836.74 538.326L836.631 538.5L836.68 539.453L824.349 775.026H840.825L842.801 653.348L902.608 560.843L842.95 644.201Z" fill="#3F3D56"/>
<path d="M707 794C832.921 794 935 786.389 935 777C935 767.611 832.921 760 707 760C581.079 760 479 767.611 479 777C479 786.389 581.079 794 707 794Z" fill="#3F3D56"/>
<path d="M914.473 749.111C914.473 771.58 901.117 779.425 884.639 779.425C884.258 779.425 883.877 779.421 883.496 779.412C882.733 779.396 881.977 779.359 881.229 779.309C866.359 778.256 854.806 770.007 854.806 749.111C854.806 727.486 882.44 700.199 884.516 698.179L884.519 698.176C884.599 698.097 884.639 698.059 884.639 698.059C884.639 698.059 914.473 726.643 914.473 749.111Z" fill="#31CD76"/>
<path d="M883.552 775.988L894.464 760.741L883.525 777.662L883.496 779.412C882.733 779.396 881.976 779.359 881.229 779.309L882.405 756.829L882.396 756.655L882.416 756.622L882.527 754.499L871.561 737.536L882.562 752.906L882.587 753.357L883.476 736.373L874.088 718.845L883.591 733.392L884.516 698.179L884.519 698.059V698.176L884.365 725.943L893.712 714.935L884.327 728.335L884.08 743.542L892.806 728.947L884.043 745.779L883.905 754.233L896.574 733.921L883.858 757.183L883.552 775.988Z" fill="#3F3D56"/>
<path opacity="0.1" d="M672.94 439.804C672.94 439.804 676.921 554.932 679.278 558.467C681.634 562.003 679.278 439.443 679.278 439.443L672.94 439.804Z" fill="black"/>
<path d="M423.717 755C444.901 719.655 456.062 679.208 456 638C456 512.079 353.921 410 228 410C102.079 410 1.10526e-05 512.079 1.10526e-05 638C-0.0617792 679.208 11.0986 719.655 32.2833 755H423.717Z" fill="#3F3D56"/>
<path d="M228 645C240.15 645 250 635.15 250 623C250 610.85 240.15 601 228 601C215.85 601 206 610.85 206 623C206 635.15 215.85 645 228 645Z" fill="#31CD76"/>
<path d="M53 670C59.0751 670 64 665.075 64 659C64 652.925 59.0751 648 53 648C46.9249 648 42 652.925 42 659C42 665.075 46.9249 670 53 670Z" fill="#31CD76"/>
<path d="M59.4543 574.726C65.5295 574.726 70.4543 569.802 70.4543 563.726C70.4543 557.651 65.5295 552.726 59.4543 552.726C53.3792 552.726 48.4543 557.651 48.4543 563.726C48.4543 569.802 53.3792 574.726 59.4543 574.726Z" fill="#31CD76"/>
<path d="M114.056 496.385C120.132 496.385 125.056 491.46 125.056 485.385C125.056 479.31 120.132 474.385 114.056 474.385C107.981 474.385 103.056 479.31 103.056 485.385C103.056 491.46 107.981 496.385 114.056 496.385Z" fill="#31CD76"/>
<path d="M201.208 457.356C207.283 457.356 212.208 452.431 212.208 446.356C212.208 440.281 207.283 435.356 201.208 435.356C195.133 435.356 190.208 440.281 190.208 446.356C190.208 452.431 195.133 457.356 201.208 457.356Z" fill="#31CD76"/>
<path d="M296.013 468.787C302.089 468.787 307.013 463.863 307.013 457.787C307.013 451.712 302.089 446.787 296.013 446.787C289.938 446.787 285.013 451.712 285.013 457.787C285.013 463.863 289.938 468.787 296.013 468.787Z" fill="#31CD76"/>
<path d="M371.39 527.415C377.465 527.415 382.39 522.49 382.39 516.415C382.39 510.34 377.465 505.415 371.39 505.415C365.315 505.415 360.39 510.34 360.39 516.415C360.39 522.49 365.315 527.415 371.39 527.415Z" fill="#31CD76"/>
<path d="M405.804 616.49C411.879 616.49 416.804 611.565 416.804 605.49C416.804 599.415 411.879 594.49 405.804 594.49C399.729 594.49 394.804 599.415 394.804 605.49C394.804 611.565 399.729 616.49 405.804 616.49Z" fill="#31CD76"/>
<path d="M389.427 710.567C395.502 710.567 400.427 705.642 400.427 699.567C400.427 693.492 395.502 688.567 389.427 688.567C383.351 688.567 378.427 693.492 378.427 699.567C378.427 705.642 383.351 710.567 389.427 710.567Z" fill="#31CD76"/>
<path d="M228 623L341 537" stroke="#31CD76" stroke-width="4" stroke-miterlimit="10"/>
<path d="M332.542 213.108C340.691 213.108 347.298 206.501 347.298 198.352C347.298 190.203 340.691 183.596 332.542 183.596C324.393 183.596 317.786 190.203 317.786 198.352C317.786 206.501 324.393 213.108 332.542 213.108Z" stroke="#3F3D56" stroke-width="2" stroke-miterlimit="10"/>
<path d="M416.542 385.108C424.691 385.108 431.298 378.501 431.298 370.352C431.298 362.203 424.691 355.596 416.542 355.596C408.393 355.596 401.786 362.203 401.786 370.352C401.786 378.501 408.393 385.108 416.542 385.108Z" fill="#3F3D56"/>
<path d="M168.223 373.943C191.848 373.943 211 354.791 211 331.166C211 307.54 191.848 288.388 168.223 288.388C144.598 288.388 125.446 307.54 125.446 331.166C125.446 354.791 144.598 373.943 168.223 373.943Z" fill="#F2F2F2"/>
<path d="M859 94H271V389H859V94Z" fill="#3F3D56"/>
<path opacity="0.3" d="M787.5 200H353.5V201H787.5V200Z" fill="#31CD76"/>
<path opacity="0.3" d="M788 225H354V226H788V225Z" fill="#31CD76"/>
<path opacity="0.3" d="M788 275H354V276H788V275Z" fill="#31CD76"/>
<path opacity="0.3" d="M788 297H354V298H788V297Z" fill="#31CD76"/>
<path opacity="0.3" d="M788 250H354V251H788V250Z" fill="#31CD76"/>
<path d="M366.041 297.724L364.661 296.276L429.262 234.703L486.208 275.665L532.259 224.609L552.452 241.773L607.381 208.815L668.395 249.824L764.156 195.355L765.144 197.093L668.307 252.175L607.321 211.184L552.25 244.226L532.443 227.39L486.494 278.334L429.44 237.296L366.041 297.724Z" fill="#31CD76"/>
<path opacity="0.4" d="M920.5 114C939.002 114 954 99.0015 954 80.5C954 61.9985 939.002 47 920.5 47C901.998 47 887 61.9985 887 80.5C887 99.0015 901.998 114 920.5 114Z" fill="#31CD76"/>
<path opacity="0.4" d="M858.5 120C871.479 120 882 109.479 882 96.5C882 83.5213 871.479 73 858.5 73C845.521 73 835 83.5213 835 96.5C835 109.479 845.521 120 858.5 120Z" fill="#31CD76"/>
<path d="M763.5 213.5C770.68 213.5 776.5 207.68 776.5 200.5C776.5 193.32 770.68 187.5 763.5 187.5C756.32 187.5 750.5 193.32 750.5 200.5C750.5 207.68 756.32 213.5 763.5 213.5Z" fill="#31CD76"/>
<path d="M232 142H168V206H232V142Z" fill="#3F3D56"/>
</g>
<defs>
<clipPath id="clip0">
<rect width="1012" height="794" fill="white"/>
</clipPath>
</defs>
</svg>
