<svg width="1047" height="794" viewBox="0 0 1047 794" fill="none" xmlns="http://www.w3.org/2000/svg">
<g clip-path="url(#clip0)">
<path d="M525.347 11.1133L196.911 182.751C196.911 182.751 196.911 536.753 525.347 729.846C853.784 536.753 853.784 182.751 853.784 182.751L525.347 11.1133Z" fill="#3F3D56"/>
<path opacity="0.04" d="M527.308 11.1133L521.694 14.0472V726.498C523.558 727.617 525.422 728.737 527.308 729.846C855.745 536.753 855.745 182.751 855.745 182.751L527.308 11.1133Z" fill="#31CD76"/>
<g opacity="0.7">
<path opacity="0.7" d="M445.835 358.919L507.75 407.116L584.504 313.087L615.462 334.996L507.75 450.933L420.036 367.682L445.835 358.919Z" fill="url(#paint0_linear)"/>
</g>
<path d="M460.448 361.814L510.673 400.911L581.825 312.053L606.938 329.825L510.673 436.455L439.521 368.923L460.448 361.814Z" fill="#3AD29F"/>
<path opacity="0.5" d="M201.286 49.5938C200.279 49.2214 199.469 48.5477 199.009 47.7008C198.549 46.854 198.472 45.8931 198.792 45.0012C198.844 44.8644 198.877 44.7229 198.89 44.5797V44.5797C198.919 44.171 198.792 43.7652 198.529 43.4224C198.265 43.0795 197.879 42.8179 197.426 42.6762C196.974 42.5345 196.48 42.5203 196.018 42.6357C195.555 42.7511 195.148 42.9899 194.858 43.3168V43.3168C194.758 43.4328 194.675 43.5584 194.61 43.691C194.171 44.5459 193.378 45.2341 192.381 45.6246C191.384 46.015 190.252 46.0804 189.202 45.8084C189.041 45.7643 188.874 45.7366 188.706 45.7257C188.224 45.7009 187.746 45.8083 187.343 46.032C186.939 46.2558 186.631 46.5841 186.464 46.9682C186.297 47.3523 186.28 47.7719 186.416 48.1647C186.552 48.5575 186.833 48.9027 187.218 49.1492V49.1492C187.355 49.234 187.503 49.3047 187.659 49.3601C188.666 49.7324 189.476 50.4062 189.936 51.253C190.396 52.0999 190.473 53.0607 190.152 53.9527C190.1 54.0895 190.068 54.2309 190.055 54.3742V54.3742C190.026 54.7828 190.152 55.1886 190.416 55.5315C190.679 55.8743 191.066 56.136 191.518 56.2777C191.97 56.4194 192.465 56.4336 192.927 56.3182C193.39 56.2028 193.796 55.964 194.086 55.6371V55.6371C194.186 55.5211 194.27 55.3955 194.335 55.2629C194.773 54.4079 195.567 53.7197 196.564 53.3293C197.561 52.9389 198.693 52.8734 199.743 53.1455C199.904 53.1895 200.07 53.2173 200.239 53.2281V53.2281C200.72 53.253 201.198 53.1456 201.602 52.9218C202.006 52.698 202.314 52.3698 202.481 51.9856C202.648 51.6015 202.664 51.182 202.528 50.7892C202.393 50.3963 202.111 50.0511 201.726 49.8047V49.8047C201.59 49.7199 201.442 49.6491 201.286 49.5938V49.5938Z" fill="#4D8AF0"/>
<path opacity="0.5" d="M23.4904 385.691C22.4836 385.319 21.6732 384.645 21.2135 383.798C20.7537 382.951 20.6767 381.99 20.997 381.098C21.0489 380.962 21.0815 380.82 21.0943 380.677V380.677C21.1236 380.268 20.9971 379.862 20.7336 379.52C20.4701 379.177 20.0835 378.915 19.6312 378.773C19.1789 378.632 18.6849 378.617 18.2223 378.733C17.7597 378.848 17.3532 379.087 17.063 379.414V379.414C16.9632 379.53 16.8798 379.656 16.8147 379.788C16.3762 380.643 15.5828 381.331 14.5856 381.722C13.5883 382.112 12.4568 382.178 11.4065 381.906C11.2455 381.862 11.0789 381.834 10.9102 381.823V381.823C10.429 381.798 9.95112 381.905 9.54739 382.129C9.14367 382.353 8.83556 382.681 8.6687 383.065C8.50184 383.45 8.48511 383.869 8.62098 384.262C8.75685 384.655 9.03811 385 9.42308 385.246C9.55967 385.331 9.70755 385.402 9.86367 385.457C10.8705 385.83 11.6809 386.503 12.1406 387.35C12.6004 388.197 12.6774 389.158 12.357 390.05C12.3052 390.187 12.2725 390.328 12.2597 390.471V390.471C12.2304 390.88 12.3569 391.286 12.6204 391.629C12.884 391.972 13.2705 392.233 13.7228 392.375C14.1752 392.517 14.6692 392.531 15.1318 392.415C15.5944 392.3 16.0009 392.061 16.2911 391.734C16.3909 391.618 16.4743 391.493 16.5394 391.36C16.9779 390.505 17.7713 389.817 18.7685 389.427C19.7657 389.036 20.8972 388.971 21.9476 389.243C22.1086 389.287 22.2752 389.314 22.4439 389.325V389.325C22.9251 389.35 23.403 389.243 23.8067 389.019C24.2104 388.795 24.5185 388.467 24.6854 388.083C24.8522 387.699 24.8689 387.279 24.7331 386.886C24.5972 386.494 24.316 386.148 23.931 385.902C23.7944 385.817 23.6465 385.746 23.4904 385.691V385.691Z" fill="#4D8AF0"/>
<path opacity="0.5" d="M911.382 268.878C915.417 268.878 918.689 266.1 918.689 262.673C918.689 259.246 915.417 256.468 911.382 256.468C907.347 256.468 904.075 259.246 904.075 262.673C904.075 266.1 907.347 268.878 911.382 268.878Z" fill="#F55F44"/>
<path opacity="0.5" d="M147.837 712.526C151.872 712.526 155.144 709.748 155.144 706.321C155.144 702.894 151.872 700.116 147.837 700.116C143.802 700.116 140.53 702.894 140.53 706.321C140.53 709.748 143.802 712.526 147.837 712.526Z" fill="#F55F44"/>
<path opacity="0.5" d="M1035.6 507.765C1039.63 507.765 1042.9 504.987 1042.9 501.56C1042.9 498.134 1039.63 495.356 1035.6 495.356C1031.56 495.356 1028.29 498.134 1028.29 501.56C1028.29 504.987 1031.56 507.765 1035.6 507.765Z" fill="#F55F44"/>
<path opacity="0.5" d="M857.666 79.584C856.66 79.2116 855.849 78.5379 855.39 77.6911C854.93 76.8442 854.853 75.8833 855.173 74.9914C855.225 74.8546 855.258 74.7132 855.27 74.5699V74.5699C855.3 74.1612 855.173 73.7554 854.91 73.4126C854.646 73.0697 854.26 72.8081 853.807 72.6664C853.355 72.5247 852.861 72.5105 852.398 72.6259C851.936 72.7413 851.529 72.9801 851.239 73.307C851.139 73.423 851.056 73.5486 850.991 73.6812C850.552 74.5361 849.759 75.2243 848.762 75.6148C847.764 76.0052 846.633 76.0706 845.583 75.7986C845.422 75.7545 845.255 75.7268 845.086 75.7159V75.7159C844.605 75.6911 844.127 75.7985 843.723 76.0222C843.32 76.246 843.012 76.5743 842.845 76.9584C842.678 77.3426 842.661 77.7621 842.797 78.1549C842.933 78.5477 843.214 78.893 843.599 79.1394V79.1394C843.736 79.2242 843.884 79.295 844.04 79.3503C845.046 79.7226 845.857 80.3964 846.317 81.2432C846.776 82.0901 846.853 83.051 846.533 83.9429C846.481 84.0797 846.449 84.2211 846.436 84.3644V84.3644C846.406 84.7731 846.533 85.1789 846.796 85.5217C847.06 85.8646 847.447 86.1262 847.899 86.2679C848.351 86.4096 848.845 86.4238 849.308 86.3084C849.77 86.193 850.177 85.9542 850.467 85.6273V85.6273C850.567 85.5113 850.65 85.3857 850.715 85.2531C851.154 84.3982 851.947 83.71 852.945 83.3195C853.942 82.9291 855.073 82.8637 856.124 83.1357C856.285 83.1797 856.451 83.2075 856.62 83.2183V83.2183C857.101 83.2432 857.579 83.1358 857.983 82.912C858.386 82.6882 858.695 82.36 858.861 81.9759C859.028 81.5917 859.045 81.1722 858.909 80.7794C858.773 80.3866 858.492 80.0413 858.107 79.7949C857.97 79.7101 857.823 79.6393 857.666 79.584V79.584Z" fill="#4D8AF0"/>
<path opacity="0.5" d="M979.444 729.027C978.437 728.655 977.627 727.981 977.167 727.134C976.707 726.287 976.63 725.327 976.951 724.435C977.002 724.298 977.035 724.156 977.048 724.013V724.013C977.077 723.604 976.951 723.199 976.687 722.856C976.424 722.513 976.037 722.251 975.585 722.11C975.132 721.968 974.638 721.954 974.176 722.069C973.713 722.185 973.307 722.423 973.017 722.75C972.917 722.866 972.833 722.992 972.768 723.124C972.33 723.979 971.536 724.668 970.539 725.058C969.542 725.448 968.41 725.514 967.36 725.242C967.199 725.198 967.032 725.17 966.864 725.159V725.159C966.383 725.134 965.905 725.242 965.501 725.466C965.097 725.689 964.789 726.018 964.622 726.402C964.455 726.786 964.439 727.205 964.575 727.598C964.71 727.991 964.992 728.336 965.377 728.583V728.583C965.513 728.667 965.661 728.738 965.817 728.794C966.824 729.166 967.634 729.84 968.094 730.686C968.554 731.533 968.631 732.494 968.311 733.386C968.259 733.523 968.226 733.664 968.213 733.808V733.808C968.184 734.216 968.311 734.622 968.574 734.965C968.838 735.308 969.224 735.569 969.676 735.711C970.129 735.853 970.623 735.867 971.085 735.752C971.548 735.636 971.954 735.397 972.245 735.07V735.07C972.345 734.955 972.428 734.829 972.493 734.696C972.932 733.841 973.725 733.153 974.722 732.763C975.719 732.372 976.851 732.307 977.901 732.579C978.062 732.623 978.229 732.651 978.397 732.662V732.662C978.879 732.686 979.357 732.579 979.76 732.355C980.164 732.131 980.472 731.803 980.639 731.419C980.806 731.035 980.823 730.615 980.687 730.223C980.551 729.83 980.27 729.485 979.885 729.238C979.748 729.153 979.6 729.083 979.444 729.027V729.027Z" fill="#4D8AF0"/>
<path opacity="0.5" d="M14.9652 189.203C13.9585 188.831 13.1481 188.157 12.6883 187.31C12.2285 186.464 12.1515 185.503 12.4719 184.611C12.5237 184.474 12.5564 184.333 12.5692 184.189V184.189C12.5985 183.781 12.472 183.375 12.2085 183.032C11.9449 182.689 11.5584 182.427 11.1061 182.286C10.6537 182.144 10.1597 182.13 9.69713 182.245C9.23455 182.361 8.82805 182.599 8.53781 182.926C8.43801 183.042 8.35466 183.168 8.28951 183.301C7.85103 184.156 7.05765 184.844 6.06042 185.234C5.06318 185.625 3.9317 185.69 2.88135 185.418C2.72033 185.374 2.55375 185.346 2.38507 185.335V185.335C1.90384 185.31 1.42597 185.418 1.02225 185.642C0.618522 185.865 0.31041 186.194 0.143552 186.578C-0.0233059 186.962 -0.0400391 187.381 0.095834 187.774C0.231707 188.167 0.512964 188.512 0.897935 188.759V188.759C1.03452 188.844 1.18241 188.914 1.33853 188.97C2.34531 189.342 3.15572 190.016 3.61548 190.863C4.07525 191.709 4.15226 192.67 3.83189 193.562C3.78005 193.699 3.74739 193.841 3.73459 193.984V193.984C3.7053 194.392 3.83178 194.798 4.0953 195.141C4.35883 195.484 4.74538 195.746 5.1977 195.887C5.65003 196.029 6.14407 196.043 6.60665 195.928C7.06922 195.812 7.47575 195.574 7.76598 195.247V195.247C7.86579 195.131 7.94914 195.005 8.01429 194.873C8.45276 194.018 9.24612 193.329 10.2434 192.939C11.2406 192.548 12.3721 192.483 13.4224 192.755C13.5835 192.799 13.75 192.827 13.9187 192.838V192.838C14.3999 192.863 14.8778 192.755 15.2815 192.531C15.6853 192.308 15.9933 191.979 16.1602 191.595C16.3271 191.211 16.3438 190.792 16.2079 190.399C16.0721 190.006 15.7908 189.661 15.4058 189.414C15.2693 189.33 15.1214 189.259 14.9652 189.203V189.203Z" fill="#4D8AF0"/>
<path opacity="0.5" d="M96.6903 299.902C100.726 299.902 103.997 297.124 103.997 293.697C103.997 290.27 100.726 287.492 96.6903 287.492C92.655 287.492 89.3837 290.27 89.3837 293.697C89.3837 297.124 92.655 299.902 96.6903 299.902Z" fill="#47E6B1"/>
<path opacity="0.5" d="M1039.25 349.541C1043.28 349.541 1046.55 346.763 1046.55 343.336C1046.55 339.909 1043.28 337.131 1039.25 337.131C1035.21 337.131 1031.94 339.909 1031.94 343.336C1031.94 346.763 1035.21 349.541 1039.25 349.541Z" fill="#47E6B1"/>
<g opacity="0.5">
<path opacity="0.5" d="M714.102 0H710.449V17.5805H714.102V0Z" fill="#47E6B1"/>
<path opacity="0.5" d="M722.627 10.3414V7.23901L701.925 7.23901V10.3414H722.627Z" fill="#47E6B1"/>
</g>
<g opacity="0.5">
<path opacity="0.5" d="M727.498 688.741H723.845V706.321H727.498V688.741Z" fill="#47E6B1"/>
<path opacity="0.5" d="M736.022 699.082V695.98H715.32V699.082H736.022Z" fill="#47E6B1"/>
</g>
<g opacity="0.5">
<path opacity="0.5" d="M35.8015 725.97H32.1482V743.55H35.8015V725.97Z" fill="#47E6B1"/>
<path opacity="0.5" d="M44.3259 736.311V733.209H23.6237V736.311H44.3259Z" fill="#47E6B1"/>
</g>
<g opacity="0.5">
<path opacity="0.5" d="M867.542 409.522H863.889V427.102H867.542V409.522Z" fill="#47E6B1"/>
<path opacity="0.5" d="M876.066 419.863V416.761H855.364V419.863H876.066Z" fill="#47E6B1"/>
</g>
<path opacity="0.5" d="M968.869 127.218L976.715 133.326L987.831 119.444L991.755 122.22L976.715 138.88L965.6 128.329L968.869 127.218Z" fill="#47E6B1"/>
<path d="M744.876 247.442L717.81 248.333L719.159 277.885L746.225 276.993L744.876 247.442Z" fill="#31CD76"/>
<path d="M622.782 350.938C622.782 350.938 585.3 335.73 585.9 348.864C586.5 361.998 623.682 370.639 623.682 370.639L622.782 350.938Z" fill="#FFB9B9"/>
<path d="M643.346 462.067C643.346 462.067 625.663 498.823 619.129 525.345C612.595 551.868 602.645 588.368 615.444 614.254C628.243 640.141 664.633 716.221 665.007 724.429C665.382 732.638 661.891 740.974 669.624 740.719C677.357 740.465 719.439 729.214 721.147 724.225C722.856 719.236 706.79 706.611 706.79 706.611L667.118 601.043L708.509 532.267L738.365 634.87L744.213 762.927C744.213 762.927 772.912 755.405 777.078 761.844C777.078 761.844 789.936 746.623 791.57 739.992C793.203 733.361 785.497 607.01 785.497 607.01C785.497 607.01 811.841 463.096 790.575 463.796C769.309 464.496 686.012 421.201 643.346 462.067Z" fill="#31CD76"/>
<path d="M669.324 734.153C669.324 734.153 649.707 770.971 647.849 772.677C645.99 774.382 633.207 791.245 642.874 790.927C652.54 790.609 675.364 781.636 692.164 767.929C708.964 754.222 731.113 730.473 729.105 728.895C727.097 727.317 713.339 722.838 713.339 722.838L669.324 734.153Z" fill="#575A89"/>
<path d="M747.704 754.59C747.704 754.59 746.521 771.072 742.954 777.766C739.387 784.46 739.837 794.311 749.504 793.992C759.17 793.674 784.152 789.563 784.152 789.563C784.152 789.563 785.636 779.649 783.628 778.071C781.619 776.493 773.062 758.688 776.703 753.635C780.345 748.583 747.704 754.59 747.704 754.59Z" fill="#575A89"/>
<path d="M762.005 219.748C762.005 219.748 782.612 247.021 790.645 253.334C798.678 259.646 776.078 273.544 776.078 273.544L735.63 278.164C735.63 278.164 736.139 246.907 734.055 243.687C731.972 240.468 762.005 219.748 762.005 219.748Z" fill="#FFB9B9"/>
<path d="M726.847 255.434C726.847 255.434 735.18 268.314 742.913 268.059C750.646 267.804 790.645 253.334 792.353 248.345C794.062 243.356 805.602 284.081 805.602 284.081L707.728 430.351L683.854 416.34L695.422 330.459L704.922 284.108L726.847 255.434Z" fill="#31CD76"/>
<path d="M795.963 386.34C792.059 393.276 789.621 400.508 789.959 407.913C789.974 408.241 789.989 408.569 790.023 408.897C790.95 424.092 797.541 441.666 799.906 454.445C801.622 463.613 801.134 470.305 794.816 471.877C779.5 475.67 797.049 478.381 737.792 495.13C678.536 511.879 668.195 497.422 668.045 494.139C667.895 490.855 676.437 465.91 674.428 464.332C672.42 462.754 646.329 484.988 638.446 481.959C630.563 478.931 637.546 462.258 637.546 462.258C637.546 462.258 655.305 427.145 654.93 418.936C654.555 410.727 681.83 372.012 681.83 372.012L700.381 269.46C700.381 269.46 707.514 256.071 717.106 254.111C726.697 252.151 734.655 256.821 734.655 256.821L718.605 286.946L701.671 340.119L704.504 359.756C704.504 359.756 724.196 324.579 737.129 310.999C750.062 297.42 777.637 265.271 777.637 265.271C777.637 265.271 784.075 246.825 779.215 241.312C774.354 235.784 799.487 234.956 810.203 257.622C815.882 269.635 825.103 287.549 830.879 304.229C836.027 319.005 838.458 332.819 833.359 340.715C825.565 352.777 805.959 368.632 795.963 386.34Z" fill="#575A89"/>
<path opacity="0.1" d="M833.359 340.715C825.565 352.777 805.959 368.632 795.963 386.34C793.353 378.353 790.168 370.089 790.168 370.089C790.168 370.089 777.953 314.588 814.085 300.244C820.072 299.752 826.06 301.173 830.879 304.229C836.027 319.005 838.458 332.819 833.359 340.715Z" fill="black"/>
<path d="M689.922 337.217L659.289 344.803L616.757 346.203L612.382 377.588L682.279 381.863C682.279 381.863 699.738 340.182 689.922 337.217Z" fill="#575A89"/>
<path d="M739.872 442.741C739.872 442.741 698.892 448.515 708.245 458.987C717.599 469.46 753.902 458.45 753.902 458.45L739.872 442.741Z" fill="#FFB9B9"/>
<path opacity="0.1" d="M790.023 408.897C790.95 424.092 797.541 441.666 799.906 454.445C786.851 464.938 774.437 474.193 769.759 474.347C760.092 474.665 744.551 473.533 738.826 475.365C733.101 477.198 729.744 446.069 729.744 446.069C729.744 446.069 733.16 436.091 748.402 430.656C758.689 426.98 778.409 417.007 790.023 408.897Z" fill="black"/>
<path d="M813.635 290.394C813.635 290.394 846.351 286.028 844.584 332.124C842.816 378.22 848.032 407.645 834.874 416.299C821.716 424.953 778.975 464.178 769.309 464.496C759.642 464.815 744.101 463.682 738.376 465.515C732.651 467.348 729.294 436.218 729.294 436.218C729.294 436.218 732.71 426.24 747.952 420.806C763.193 415.371 799.1 396.102 798.801 389.535C798.501 382.968 789.718 360.238 789.718 360.238C789.718 360.238 777.503 304.737 813.635 290.394Z" fill="#575A89"/>
<path d="M733.156 260.132C756.663 260.132 775.72 243.949 775.72 223.986C775.72 204.024 756.663 187.841 733.156 187.841C709.648 187.841 690.592 204.024 690.592 223.986C690.592 243.949 709.648 260.132 733.156 260.132Z" fill="#FFB9B9"/>
<path d="M704.496 172.179C703.47 172.93 702.24 173.454 700.917 173.704C700.253 173.805 699.57 173.678 699.015 173.352C698.461 173.026 698.081 172.527 697.958 171.963C696.984 173.678 695.885 175.506 693.897 176.386C691.909 177.266 688.834 176.528 688.548 174.64C688.258 176.074 687.511 177.413 686.388 178.512C685.154 179.511 682.917 179.763 681.84 178.641C682.711 182.682 682.174 186.837 682.447 190.939C682.721 195.04 684.008 199.388 687.657 202.085C692.979 206.018 700.981 205.048 707.981 204.303C709.04 204.114 710.138 204.165 711.166 204.45C713.787 205.399 713.668 208.497 713.703 210.916C713.917 215.161 715.896 219.204 719.287 222.328C722.679 225.451 727.264 227.453 732.229 227.977C735.007 228.341 737.842 227.754 740.111 226.344C742.098 224.913 743.113 222.581 745.391 221.507C749.095 219.759 753.588 222.308 756.297 225.076C759.005 227.844 761.675 231.249 765.87 231.756C771.42 232.426 775.646 227.624 777.72 223.201C780.581 217.003 781.952 210.382 781.751 203.727C781.551 197.072 779.783 190.518 776.553 184.452C764.966 163.003 725.384 159.61 704.496 172.179Z" fill="#2F2E41"/>
</g>
<defs>
<linearGradient id="paint0_linear" x1="420.036" y1="382.01" x2="615.463" y2="382.01" gradientUnits="userSpaceOnUse">
<stop stop-color="#808080" stop-opacity="0.25"/>
<stop offset="0.53514" stop-color="#808080" stop-opacity="0.12"/>
<stop offset="1" stop-color="#808080" stop-opacity="0.1"/>
</linearGradient>
<clipPath id="clip0">
<rect width="1046.56" height="794" fill="white"/>
</clipPath>
</defs>
</svg>
