<svg width="1012" height="794" viewBox="0 0 1012 794" fill="none" xmlns="http://www.w3.org/2000/svg">
<g clip-path="url(#clip0)">
<path opacity="0.1" d="M367.161 765.502C568.952 765.502 732.536 745.201 732.536 720.158C732.536 695.115 568.952 674.814 367.161 674.814C165.371 674.814 1.78687 695.115 1.78687 720.158C1.78687 745.201 165.371 765.502 367.161 765.502Z" fill="#47E6B1"/>
<path d="M1004.32 0H28.2385C23.9973 0 20.559 3.48842 20.559 7.7916V540.839C20.559 545.142 23.9973 548.631 28.2385 548.631H1004.32C1008.56 548.631 1012 545.142 1012 540.839V7.7916C1012 3.48842 1008.56 0 1004.32 0Z" fill="#E8EAF2"/>
<path d="M1011.99 7.79161V34.1303H20.549V7.79161C20.549 6.76755 20.7479 5.75352 21.1345 4.80754C21.5211 3.86155 22.0876 3.00216 22.8018 2.27851C23.516 1.55486 24.3637 0.981146 25.2966 0.590181C26.2295 0.199216 27.2292 -0.00133197 28.2385 6.67503e-06H1004.31C1005.32 -0.00133397 1006.32 0.199286 1007.25 0.590375C1008.18 0.981465 1009.03 1.55534 1009.74 2.27912C1010.46 3.00291 1011.02 3.86238 1011.41 4.80831C1011.79 5.75423 1011.99 6.76803 1011.99 7.79161V7.79161Z" fill="#65617D"/>
<path opacity="0.8" d="M35.8578 23.7109C39.4726 23.7109 42.403 20.7378 42.403 17.0703C42.403 13.4027 39.4726 10.4296 35.8578 10.4296C32.2431 10.4296 29.3127 13.4027 29.3127 17.0703C29.3127 20.7378 32.2431 23.7109 35.8578 23.7109Z" fill="#FA5959"/>
<path opacity="0.8" d="M53.4956 23.7109C57.1104 23.7109 60.0408 20.7378 60.0408 17.0703C60.0408 13.4027 57.1104 10.4296 53.4956 10.4296C49.8808 10.4296 46.9505 13.4027 46.9505 17.0703C46.9505 20.7378 49.8808 23.7109 53.4956 23.7109Z" fill="#FED253"/>
<path opacity="0.8" d="M71.1435 23.7109C74.7583 23.7109 77.6886 20.7378 77.6886 17.0703C77.6886 13.4027 74.7583 10.4296 71.1435 10.4296C67.5287 10.4296 64.5983 13.4027 64.5983 17.0703C64.5983 20.7378 67.5287 23.7109 71.1435 23.7109Z" fill="#8CCF4D"/>
<path opacity="0.2" d="M539.253 69.5846H72.2778C68.0365 69.5846 64.5983 73.073 64.5983 77.3762V289.033C64.5983 293.336 68.0365 296.824 72.2778 296.824H539.253C543.494 296.824 546.932 293.336 546.932 289.033V77.3762C546.932 73.073 543.494 69.5846 539.253 69.5846Z" fill="#47E6B1"/>
<path d="M545.035 366.114H66.4956C65.4477 366.114 64.5983 366.976 64.5983 368.039V379.782C64.5983 380.845 65.4477 381.707 66.4956 381.707H545.035C546.083 381.707 546.932 380.845 546.932 379.782V368.039C546.932 366.976 546.083 366.114 545.035 366.114Z" fill="white"/>
<path d="M545.035 399.032H66.4956C65.4477 399.032 64.5983 399.894 64.5983 400.957V412.7C64.5983 413.764 65.4477 414.625 66.4956 414.625H545.035C546.083 414.625 546.932 413.764 546.932 412.7V400.957C546.932 399.894 546.083 399.032 545.035 399.032Z" fill="white"/>
<path d="M545.035 431.94H66.4956C65.4477 431.94 64.5983 432.802 64.5983 433.865V445.608C64.5983 446.671 65.4477 447.533 66.4956 447.533H545.035C546.083 447.533 546.932 446.671 546.932 445.608V433.865C546.932 432.802 546.083 431.94 545.035 431.94Z" fill="white"/>
<path d="M545.035 464.858H66.4956C65.4477 464.858 64.5983 465.72 64.5983 466.783V478.527C64.5983 479.59 65.4477 480.452 66.4956 480.452H545.035C546.083 480.452 546.932 479.59 546.932 478.527V466.783C546.932 465.72 546.083 464.858 545.035 464.858Z" fill="white"/>
<path d="M545.035 497.766H66.4956C65.4477 497.766 64.5983 498.628 64.5983 499.691V511.435C64.5983 512.498 65.4477 513.36 66.4956 513.36H545.035C546.083 513.36 546.932 512.498 546.932 511.435V499.691C546.932 498.628 546.083 497.766 545.035 497.766Z" fill="white"/>
<path d="M948.717 69.5846H610.657C606.416 69.5846 602.978 73.073 602.978 77.3762V505.568C602.978 509.871 606.416 513.36 610.657 513.36H948.717C952.958 513.36 956.396 509.871 956.396 505.568V77.3762C956.396 73.073 952.958 69.5846 948.717 69.5846Z" fill="white"/>
<path opacity="0.2" d="M684.461 120.714H624.511C623.463 120.714 622.613 121.576 622.613 122.639V134.382C622.613 135.445 623.463 136.307 624.511 136.307H684.461C685.509 136.307 686.358 135.445 686.358 134.382V122.639C686.358 121.576 685.509 120.714 684.461 120.714Z" fill="#47E6B1"/>
<path d="M937.714 150.159H624.511C623.463 150.159 622.613 151.021 622.613 152.084V163.827C622.613 164.89 623.463 165.752 624.511 165.752H937.714C938.762 165.752 939.612 164.89 939.612 163.827V152.084C939.612 151.021 938.762 150.159 937.714 150.159Z" fill="#E8EAF2"/>
<path d="M937.714 179.614H624.511C623.463 179.614 622.613 180.476 622.613 181.539V193.283C622.613 194.346 623.463 195.208 624.511 195.208H937.714C938.762 195.208 939.612 194.346 939.612 193.283V181.539C939.612 180.476 938.762 179.614 937.714 179.614Z" fill="#E8EAF2"/>
<path opacity="0.2" d="M684.461 238.505H624.511C623.463 238.505 622.613 239.366 622.613 240.43V252.173C622.613 253.236 623.463 254.098 624.511 254.098H684.461C685.509 254.098 686.358 253.236 686.358 252.173V240.43C686.358 239.366 685.509 238.505 684.461 238.505Z" fill="#47E6B1"/>
<path d="M937.714 267.96H624.511C623.463 267.96 622.613 268.822 622.613 269.885V281.628C622.613 282.691 623.463 283.553 624.511 283.553H937.714C938.762 283.553 939.612 282.691 939.612 281.628V269.885C939.612 268.822 938.762 267.96 937.714 267.96Z" fill="#E8EAF2"/>
<path d="M937.714 297.405H624.511C623.463 297.405 622.613 298.267 622.613 299.33V311.073C622.613 312.137 623.463 312.998 624.511 312.998H937.714C938.762 312.998 939.612 312.137 939.612 311.073V299.33C939.612 298.267 938.762 297.405 937.714 297.405Z" fill="#E8EAF2"/>
<path opacity="0.2" d="M684.461 356.305H624.511C623.463 356.305 622.613 357.167 622.613 358.23V369.974C622.613 371.037 623.463 371.899 624.511 371.899H684.461C685.509 371.899 686.358 371.037 686.358 369.974V358.23C686.358 357.167 685.509 356.305 684.461 356.305Z" fill="#47E6B1"/>
<path d="M937.714 385.75H624.511C623.463 385.75 622.613 386.612 622.613 387.675V399.419C622.613 400.482 623.463 401.344 624.511 401.344H937.714C938.762 401.344 939.612 400.482 939.612 399.419V387.675C939.612 386.612 938.762 385.75 937.714 385.75Z" fill="#E8EAF2"/>
<path d="M937.714 415.196H624.511C623.463 415.196 622.613 416.058 622.613 417.121V428.864C622.613 429.927 623.463 430.789 624.511 430.789H937.714C938.762 430.789 939.612 429.927 939.612 428.864V417.121C939.612 416.058 938.762 415.196 937.714 415.196Z" fill="#E8EAF2"/>
<path d="M933.167 474.096H873.217C872.169 474.096 871.319 474.958 871.319 476.021V487.765C871.319 488.828 872.169 489.69 873.217 489.69H933.167C934.215 489.69 935.064 488.828 935.064 487.765V476.021C935.064 474.958 934.215 474.096 933.167 474.096Z" fill="#47E6B1"/>
<path d="M545.035 312.998H485.085C484.037 312.998 483.187 313.86 483.187 314.923V326.667C483.187 327.73 484.037 328.592 485.085 328.592H545.035C546.083 328.592 546.932 327.73 546.932 326.667V314.923C546.932 313.86 546.083 312.998 545.035 312.998Z" fill="#47E6B1"/>
<path d="M507.501 341.873C508.446 343.187 509.58 344.351 510.864 345.326C511.707 346.029 512.56 346.742 513.454 347.363L514.237 347.893C514.206 347.938 514.179 347.985 514.156 348.035C513.945 348.423 513.864 348.87 513.925 349.308C514.118 349.838 514.469 350.294 514.929 350.612C517.019 352.581 518.427 355.181 518.945 358.027C519.256 359.677 518.162 361.439 518.232 363.119C518.391 364.763 518.822 366.367 519.507 367.865C520.872 371.4 522.328 375.056 525.068 377.633C525.715 383.308 527.87 388.698 531.302 393.226C534.183 396.975 538.028 399.796 541.813 402.576C543.013 403.551 544.32 404.381 545.708 405.051C546.955 405.513 548.242 405.854 549.552 406.07C560.667 408.357 571.955 409.672 583.292 410.001C583.613 416.846 583.75 423.697 583.704 430.555C583.765 431.682 583.608 432.81 583.242 433.875C582.68 434.877 582.006 435.81 581.234 436.656C578.634 440.159 578.504 444.895 578.725 449.275C578.978 454.401 579.565 459.505 580.481 464.553C581.656 471.01 580.582 478.15 582.84 484.291C583.734 486.715 584.627 489.15 585.511 491.574C585.811 492.253 585.991 492.98 586.043 493.723C586.043 495.322 585.039 496.676 584.236 498.062C583.121 500.076 582.579 502.364 582.67 504.672C582.66 504.933 582.726 505.192 582.86 505.415C583.152 505.813 583.744 505.782 584.236 505.7C586.233 505.411 588.243 505.224 590.259 505.14C589.891 505.597 589.555 506.081 589.255 506.587C588.773 507.443 588.347 508.331 587.98 509.245C587.259 510.769 586.691 512.362 586.284 514.001C586.21 514.238 586.153 514.48 586.113 514.725C586.003 515.213 585.902 515.743 585.822 516.201C585.392 519.093 585.217 522.017 585.3 524.94C585.019 530.389 584.748 536.072 584.226 537.743C583.493 540.096 584.406 543.854 585.31 547.449C585.357 549.929 585.798 552.384 586.615 554.721C586.686 557.299 586.979 559.865 587.488 562.391C590.587 580.12 593.893 597.818 597.406 615.486C597.718 617.014 598.019 618.541 598.41 620.049C599.716 624.96 602.001 629.546 605.126 633.524C607.873 637.05 610.229 640.872 612.153 644.921C611.952 645.878 611.741 646.846 611.511 647.803C609.503 656.257 606.933 664.588 606.019 673.266C605.658 676.708 605.558 680.253 604.213 683.451C603.53 685.07 602.526 686.608 602.385 688.37C602.305 689.485 602.564 690.598 603.128 691.558L602.466 692.108L602.094 692.414C599.545 694.451 596.131 694.889 592.989 695.724C589.847 696.559 586.474 698.229 585.501 701.397C585.436 701.593 585.386 701.794 585.35 701.998C584.778 704.911 586.514 708.007 588.964 709.718C591.574 711.541 594.826 712.102 597.999 712.519C601.171 712.937 604.383 713.232 607.224 714.668C609.684 715.901 611.751 717.927 614.351 718.824L614.823 718.956C614.231 719.313 613.649 719.659 613.036 719.975C610.344 721.388 607.435 722.328 604.433 722.755C601.422 723.173 597.788 723.377 596.232 726.055C594.957 728.265 595.88 731.26 597.718 733.012C599.555 734.763 602.104 735.538 604.564 736.067C610.196 737.187 615.898 737.905 621.629 738.216L627.191 738.654C632.622 739.072 638.063 739.5 643.524 739.52C650.255 739.542 656.974 738.949 663.601 737.748C663.863 737.77 664.126 737.732 664.371 737.635C664.616 737.538 664.836 737.385 665.014 737.188C665.191 736.991 665.322 736.756 665.395 736.499C665.469 736.243 665.483 735.973 665.438 735.711C665.319 728.791 664.492 721.903 662.968 715.157C662.507 713.12 659.786 715.901 658.27 717.642C658.059 716.624 657.839 715.605 657.578 714.658L658.772 714.088C659.685 713.734 660.455 713.082 660.961 712.234C661.203 711.55 661.283 710.817 661.191 710.095C660.971 705.654 660.7 701.051 658.622 697.15C657.266 694.816 655.574 692.701 653.602 690.876C653.129 676.909 651.449 663.011 648.583 649.341C647.047 642.385 645.14 635.347 641.175 629.46C640.673 628.726 640.171 627.993 639.599 627.25C639.17 620.559 638.372 613.897 637.209 607.297C636.977 606.426 636.977 605.509 637.209 604.639C637.589 603.891 638.077 603.204 638.655 602.602C641.044 599.475 640.07 595.034 639.789 591.082C639.398 585.419 640.713 579.787 642.028 574.256L646.877 553.795C647.273 551.854 647.844 549.955 648.583 548.121C649.858 545.636 651.318 543.253 652.95 540.992C657.478 533.752 659.609 525.235 659.033 516.68C659.957 517.016 660.87 517.352 661.774 517.699C662.456 511.985 660.077 505.476 661.774 500.129C664.694 497.971 667.051 495.121 668.64 491.828C669.975 488.773 670.347 485.412 671.742 482.417C672.525 480.727 673.629 479.178 674.091 477.325C674.774 474.616 673.91 471.764 673.951 468.963C674.041 462.852 678.388 457.219 677.454 451.21C677.002 448.358 675.366 445.7 675.446 442.807C675.581 441.239 675.971 439.704 676.601 438.265C679.913 429.394 683.156 419.932 681.469 410.612C681.038 408.219 680.275 405.846 680.405 403.422C680.546 400.641 681.841 397.942 681.409 395.182C681.246 394.134 680.829 393.143 680.195 392.3C681.377 390.455 682.386 388.501 683.206 386.463C683.75 385.296 684.021 384.017 683.999 382.726C683.884 381.847 683.595 381.001 683.15 380.238C682.705 379.475 682.113 378.811 681.409 378.285C679.992 377.257 678.479 376.374 676.892 375.647C676.394 375.422 675.947 375.096 675.577 374.69C675.294 374.231 675.045 373.75 674.834 373.253C673.951 371.695 672.023 371.216 670.517 370.269C665.046 366.878 665.568 358.149 660.9 353.688C659.311 352.243 657.283 351.393 655.153 351.278C653.022 351.163 650.916 351.79 649.185 353.056C648.745 353.513 648.164 353.804 647.539 353.881C646.935 353.757 646.38 353.456 645.943 353.016C644.781 352.222 643.397 351.832 641.998 351.905C641.139 348.431 640.768 344.852 640.894 341.272H641.315C641.867 341.29 642.418 341.224 642.951 341.079C645.351 340.376 646.716 337.85 647.7 335.507C648.548 333.525 649.253 331.483 649.808 329.396C649.858 329.193 649.898 328.999 649.948 328.795C654.546 332.075 659.887 335.507 661.171 334.784C663.52 333.47 650.631 324.161 650.631 324.161C652.147 322.796 652.99 320.332 653.371 318.152C654.283 313.821 654.317 309.348 653.472 305.003C652.468 300.715 649.928 296.631 646.073 294.624C644.367 293.728 642.299 293.117 641.054 291.742C640.865 291.538 640.7 291.313 640.562 291.07V291.07C640.493 290.954 640.429 290.835 640.371 290.713C640.24 290.333 640.057 289.974 639.829 289.644C639.127 288.809 637.822 289.063 636.818 289.196H636.466H636.185H635.894C632.07 289.277 628.365 287.108 624.5 287.108C620.264 287.108 616.65 289.603 612.926 291.314C612.173 291.661 611.46 291.976 610.788 292.333C608.449 293.443 606.612 294.614 605.437 297.283C604.695 298.167 604.163 299.212 603.881 300.338C603.766 300.854 603.699 301.379 603.68 301.907C600.465 305.136 598.149 309.171 596.967 313.602C595.786 318.033 595.78 322.703 596.951 327.137C598.123 331.571 600.429 335.611 603.637 338.849C606.844 342.086 610.839 344.405 615.215 345.57C615.305 345.825 615.406 346.08 615.486 346.344C616.252 348.686 616.628 351.14 616.6 353.606C616.6 353.779 616.6 353.953 616.6 354.136C614.651 354.603 612.786 355.372 611.069 356.417C608.879 357.731 607.221 359.793 606.391 362.233C606.341 362.427 606.29 362.61 606.25 362.783C604.888 362.328 603.468 362.081 602.034 362.05C601.388 361.956 600.729 362.007 600.103 362.196C599.478 362.386 598.9 362.712 598.41 363.15C598.081 363.564 597.848 364.048 597.728 364.566C597.236 365.024 597.145 365.828 596.794 366.44C595.72 368.354 592.919 367.723 590.771 368.253C588.482 368.823 586.675 371.002 584.326 371.013C583.43 370.873 582.52 370.839 581.616 370.911C580.732 371.135 580.04 372.367 580.712 372.948C580.184 372.893 579.651 372.987 579.172 373.221C578.694 373.455 578.289 373.818 578.002 374.272C577.349 375.127 576.928 376.146 576.205 376.951C575.896 376.511 575.467 376.173 574.971 375.978C574.476 375.783 573.934 375.738 573.414 375.851C572.375 376.083 571.379 376.482 570.463 377.032C570.054 377.254 569.614 377.409 569.158 377.49C568.625 377.525 568.09 377.476 567.572 377.348C565.051 376.921 562.462 377.276 560.143 378.366C558.135 379.385 556.128 377.541 553.879 377.399C553.055 377.445 552.243 377.188 551.59 376.676C551.167 376.14 550.872 375.513 550.727 374.842C550.221 373.372 549.352 372.057 548.202 371.025C547.053 369.992 545.662 369.276 544.162 368.945C544.747 367.071 544.609 365.041 543.776 363.266C542.943 361.491 541.477 360.102 539.674 359.381C539.821 358.038 539.641 356.679 539.151 355.422C538.661 354.165 537.876 353.049 536.864 352.17C536.367 351.834 535.897 351.46 535.458 351.05C534.862 350.335 534.417 349.503 534.153 348.605C533.484 346.826 532.815 345.044 532.145 343.258C531.272 343.075 530.579 342.708 529.746 342.566C529.746 342.382 529.746 342.199 529.746 342.016C529.72 340.187 529.415 338.373 528.843 336.638C527.819 333.822 526.384 331.179 524.586 328.795C522.689 326.096 520.571 323.448 517.75 321.819C516.807 321.306 515.835 320.851 514.839 320.454L509.709 318.305C509.416 318.164 509.099 318.081 508.776 318.06C507.39 318.06 507.139 320.22 507.922 321.381C509.488 323.713 513.002 324.365 513.996 327.013C513.161 327.042 512.357 327.339 511.699 327.861C511.041 328.382 510.562 329.101 510.332 329.916C510.293 330.346 510.121 330.753 509.84 331.077C509.388 331.454 508.675 331.24 508.163 331.525C507.25 332.014 507.651 333.399 507.551 334.448C507.33 335.358 507.017 336.242 506.617 337.086C506.401 337.9 506.369 338.753 506.522 339.582C506.675 340.41 507.009 341.193 507.501 341.873V341.873ZM630.473 706.775L630.353 705.166C630.463 705.451 630.564 705.746 630.674 706.031C631.578 708.435 632.582 710.811 633.686 713.161L633.495 713.069C632.719 712.707 631.893 712.467 631.046 712.356C630.825 712.356 630.594 712.305 630.363 712.295C630.66 710.47 630.697 708.611 630.473 706.775V706.775Z" fill="url(#paint0_linear)"/>
<path d="M616.57 355.684C616.47 359.483 615.205 363.17 615.004 366.959C626.047 367.519 636.918 362.091 647.83 363.751C644.819 361.714 643.152 358.139 642.189 354.584C640.965 349.998 640.601 345.22 641.114 340.498C641.142 340.234 641.186 339.972 641.245 339.714C641.656 337.86 642.701 335.232 642.419 333.766C642.048 331.831 640.251 332.218 638.635 332.33C633.699 332.706 628.787 333.348 623.918 334.255C622.643 334.479 610.286 337.606 610.105 337.31C612.271 340.844 614.065 344.599 615.456 348.514C616.215 350.825 616.592 353.248 616.57 355.684Z" fill="#EE8E9E"/>
<path d="M507.501 343.941C508.444 345.257 509.577 346.421 510.864 347.393C511.707 348.086 512.56 348.799 513.454 349.43C515.058 350.68 516.966 351.465 518.975 351.702C521.595 351.885 527.176 350.317 528.813 348.035C529.497 346.887 529.823 345.555 529.746 344.216C529.72 342.397 529.415 340.593 528.843 338.868C527.819 336.062 526.384 333.429 524.587 331.057C522.689 328.378 520.571 325.74 517.75 324.12C516.809 323.607 515.836 323.155 514.839 322.766L509.709 320.607C509.416 320.466 509.099 320.383 508.776 320.362C507.39 320.362 507.139 322.511 507.922 323.662C509.488 325.984 513.002 326.636 513.996 329.274C513.162 329.296 512.357 329.587 511.698 330.106C511.039 330.624 510.56 331.343 510.332 332.157C510.293 332.587 510.121 332.993 509.84 333.318C509.388 333.684 508.675 333.481 508.163 333.756C507.25 334.244 507.651 335.63 507.551 336.669C507.327 337.574 507.014 338.454 506.617 339.296C506.417 340.089 506.392 340.916 506.545 341.719C506.698 342.522 507.024 343.281 507.501 343.941V343.941Z" fill="#EE8E9E"/>
<path d="M659.585 724.955C658.732 724.1 657.347 724.242 656.162 724.436C649.779 725.444 643.329 725.958 636.868 725.974C636.065 721.981 638.404 718.09 639.157 714.088C639.261 713.036 639.518 712.007 639.92 711.032C640.833 709.26 642.931 708.455 644.799 708.048C648.262 707.304 653.683 706.011 655.62 709.545C657.939 713.853 658.682 720.158 659.585 724.955Z" fill="#65617D"/>
<path d="M589.044 709.81C591.654 711.623 594.907 712.183 598.079 712.601C601.251 713.018 604.463 713.314 607.304 714.729C609.764 715.962 611.832 717.978 614.432 718.865C616.851 719.542 619.401 719.584 621.84 718.987C624.762 718.427 627.863 717.347 629.45 714.79C630.855 712.509 630.704 709.627 630.514 706.948C630.283 703.892 630.072 700.837 629.851 697.853C629.857 697.082 629.663 696.323 629.289 695.653C627.181 692.526 622.041 696.956 619.25 696.956C614.894 696.956 610.216 694.553 607.074 691.619C606.797 691.331 606.479 691.087 606.13 690.896C604.885 690.336 603.65 691.375 602.546 692.292L602.175 692.597C599.625 694.634 596.212 695.062 593.07 695.887C589.928 696.712 586.555 698.382 585.581 701.529C585.517 701.729 585.466 701.934 585.43 702.141C584.858 705.033 586.595 708.119 589.044 709.81Z" fill="#3F3D56"/>
<path opacity="0.05" d="M589.044 709.81C591.654 711.623 594.907 712.183 598.079 712.601C601.251 713.018 604.463 713.314 607.304 714.729C609.764 715.962 611.832 717.978 614.432 718.865C616.851 719.542 619.401 719.584 621.84 718.987C624.762 718.427 627.863 717.347 629.45 714.79C630.855 712.509 630.704 709.627 630.514 706.948C630.283 703.892 630.072 700.837 629.851 697.853C629.857 697.082 629.663 696.323 629.289 695.653C627.181 692.526 622.041 696.956 619.25 696.956C614.894 696.956 610.216 694.553 607.074 691.619C606.797 691.331 606.479 691.087 606.13 690.896C604.885 690.336 603.65 691.375 602.546 692.292L602.175 692.597C599.625 694.634 596.212 695.062 593.07 695.887C589.928 696.712 586.555 698.382 585.581 701.529C585.517 701.729 585.466 701.934 585.43 702.141C584.858 705.033 586.595 708.119 589.044 709.81Z" fill="black"/>
<path d="M589.044 710.828C591.654 712.641 594.907 713.202 598.079 713.619C601.251 714.037 604.463 714.332 607.304 715.748C609.764 716.98 611.832 718.997 614.432 719.883C616.851 720.56 619.4 720.602 621.84 720.005C624.948 719.335 627.676 717.465 629.449 714.79C630.855 712.509 630.704 709.627 630.514 706.948C630.283 703.892 630.072 700.837 629.851 697.853C629.857 697.082 629.663 696.323 629.289 695.653C627.181 692.526 622.041 696.956 619.25 696.956C614.894 696.956 610.216 694.553 607.073 691.619C606.797 691.331 606.479 691.087 606.13 690.896C604.885 690.336 603.65 691.375 602.546 692.292C603.26 694.558 604.273 696.717 605.558 698.708C606.61 700.386 608.017 701.805 609.677 702.862C611.337 703.919 613.208 704.587 615.155 704.819C617.102 704.962 619.1 704.575 620.987 705.084C622.874 705.593 624.621 707.549 623.999 709.403C623.376 711.256 621.037 711.613 619.14 711.715C616.491 712.023 613.809 711.829 611.229 711.144C609.684 710.625 608.218 709.759 606.772 709.107C600.378 706.428 592.317 707.926 587.047 703.393C586.546 702.927 586.005 702.508 585.43 702.141C584.045 705.074 586.595 709.138 589.044 710.828Z" fill="#E8EAF2"/>
<path opacity="0.05" d="M589.044 710.828C591.654 712.641 594.907 713.202 598.079 713.619C601.251 714.037 604.463 714.332 607.304 715.748C609.764 716.98 611.832 718.997 614.432 719.883C616.851 720.56 619.4 720.602 621.84 720.005C624.948 719.335 627.676 717.465 629.449 714.79C630.855 712.509 630.704 709.627 630.514 706.948C630.283 703.892 630.072 700.837 629.851 697.853C629.857 697.082 629.663 696.323 629.289 695.653C627.181 692.526 622.041 696.956 619.25 696.956C614.894 696.956 610.216 694.553 607.073 691.619C606.797 691.331 606.479 691.087 606.13 690.896C604.885 690.336 603.65 691.375 602.546 692.292C603.26 694.558 604.273 696.717 605.558 698.708C606.61 700.386 608.017 701.805 609.677 702.862C611.337 703.919 613.208 704.587 615.155 704.819C617.102 704.962 619.1 704.575 620.987 705.084C622.874 705.593 624.621 707.549 623.999 709.403C623.376 711.256 621.037 711.613 619.14 711.715C616.491 712.023 613.809 711.829 611.229 711.144C609.684 710.625 608.218 709.759 606.772 709.107C600.378 706.428 592.317 707.926 587.047 703.393C586.546 702.927 586.005 702.508 585.43 702.141C584.045 705.074 586.595 709.138 589.044 710.828Z" fill="black"/>
<path d="M658.341 512.575C660.375 522.712 658.441 533.254 652.95 541.97C651.317 544.229 649.857 546.613 648.583 549.099C647.844 550.923 647.273 552.812 646.876 554.742L642.028 575.112C640.713 580.612 639.398 586.214 639.789 591.846C640.07 595.778 641.044 600.198 638.655 603.304C638.078 603.909 637.591 604.595 637.209 605.341C636.979 606.209 636.979 607.122 637.209 607.989C639.659 622.768 641.476 638.219 637.049 652.519C633.033 665.484 632.802 679.845 629.389 692.974C629.112 694.643 628.378 696.199 627.271 697.466C626.355 698.241 625.26 698.766 624.089 698.993C619.07 700.216 613.749 698.79 609.031 696.58C605.738 695.031 602.185 692.312 602.466 688.635C602.606 686.894 603.61 685.356 604.293 683.746C605.638 680.589 605.738 677.055 606.1 673.632C607.013 665.046 609.623 656.746 611.591 648.343C613.558 639.94 614.904 631.161 613.237 622.687C609.83 605.161 604.367 588.112 596.965 571.904C596.644 571.043 596.136 570.266 595.479 569.632C594.722 569.185 594.003 568.674 593.331 568.105C592.803 567.306 592.46 566.398 592.327 565.446C591.594 562.768 589.416 560.792 587.95 558.429C584.256 552.481 585.43 544.862 585.571 537.835C585.701 531.011 584.728 524.115 585.832 517.373C586.936 510.63 590.741 503.735 597.145 501.626C600.318 500.608 603.751 500.822 607.073 501.148C624.741 502.92 641.827 506.159 658.341 512.575Z" fill="#303D5C"/>
<path opacity="0.05" d="M658.341 512.575C660.375 522.712 658.441 533.254 652.95 541.97C651.317 544.229 649.857 546.613 648.583 549.099C647.844 550.923 647.273 552.812 646.876 554.742L642.028 575.112C640.713 580.612 639.398 586.214 639.789 591.846C640.07 595.778 641.044 600.198 638.655 603.304C638.078 603.909 637.591 604.595 637.209 605.341C636.979 606.209 636.979 607.122 637.209 607.989C639.659 622.768 641.476 638.219 637.049 652.519C633.033 665.484 632.802 679.845 629.389 692.974C629.112 694.643 628.378 696.199 627.271 697.466C626.355 698.241 625.26 698.766 624.089 698.993C619.07 700.216 613.749 698.79 609.031 696.58C605.738 695.031 602.185 692.312 602.466 688.635C602.606 686.894 603.61 685.356 604.293 683.746C605.638 680.589 605.738 677.055 606.1 673.632C607.013 665.046 609.623 656.746 611.591 648.343C613.558 639.94 614.904 631.161 613.237 622.687C609.83 605.161 604.367 588.112 596.965 571.904C596.644 571.043 596.136 570.266 595.479 569.632C594.722 569.185 594.003 568.674 593.331 568.105C592.803 567.306 592.46 566.398 592.327 565.446C591.594 562.768 589.416 560.792 587.95 558.429C584.256 552.481 585.43 544.862 585.571 537.835C585.701 531.011 584.728 524.115 585.832 517.373C586.936 510.63 590.741 503.735 597.145 501.626C600.318 500.608 603.751 500.822 607.073 501.148C624.741 502.92 641.827 506.159 658.341 512.575Z" fill="black"/>
<path d="M586.695 555.414C586.754 558.07 587.05 560.716 587.579 563.318C590.677 580.972 593.983 598.575 597.497 616.127C597.808 617.655 598.109 619.183 598.501 620.67C599.805 625.56 602.091 630.123 605.216 634.074C619.833 652.56 621.097 679.397 629.018 701.692C629.56 703.2 630.092 704.748 630.664 706.204C632.096 709.982 633.728 713.677 635.553 717.276C635.766 717.799 636.113 718.256 636.557 718.6C637.052 718.845 637.604 718.951 638.153 718.905C645.288 718.949 652.336 717.325 658.752 714.159C659.664 713.81 660.434 713.161 660.941 712.316C661.183 711.635 661.262 710.905 661.171 710.187C660.951 705.766 660.68 701.193 658.602 697.303C657.243 694.983 655.551 692.883 653.582 691.069C653.11 677.176 651.43 663.352 648.563 649.759C647.027 642.833 645.12 635.836 641.155 629.979C638.233 625.661 634.037 621.393 634.549 616.178C634.78 613.887 635.724 611.035 633.887 609.69C633.084 609.1 631.879 609.028 631.357 608.183C631.136 607.788 631.015 607.344 631.006 606.89C630.626 603.313 630.843 599.698 631.648 596.195C632.32 593.906 632.847 591.576 633.224 589.218C633.403 588.036 633.343 586.829 633.046 585.671C632.749 584.514 632.222 583.43 631.497 582.486C631.397 577.719 631.497 572.78 631.437 568.023C631.25 565.316 631.47 562.596 632.09 559.957C632.451 558.714 632.993 557.522 633.264 556.249C634.268 551.676 631.799 546.196 634.71 542.571C635.924 541.073 637.802 540.32 639.388 539.23C642.506 536.927 644.769 533.627 645.812 529.86C646.841 526.118 647.451 522.271 647.629 518.391C647.715 517.568 647.715 516.739 647.629 515.916C647.573 515.492 647.462 515.078 647.298 514.684C646.395 512.647 643.955 511.812 641.787 511.282C628.011 507.933 613.891 506.258 599.725 506.291C594.485 502.676 591.534 503.969 589.315 507.809C588.087 510.146 587.095 512.603 586.354 515.142C585.35 518.259 585.28 535.665 584.286 538.792C583.031 542.856 586.745 551.157 586.695 555.414Z" fill="#303D5C"/>
<path d="M681.449 396.995C681.831 399.735 680.536 402.423 680.446 405.143C680.315 407.567 681.078 409.92 681.51 412.272C683.196 421.551 679.954 430.952 676.641 439.772C676.013 441.205 675.623 442.733 675.486 444.294C675.396 447.177 677.032 449.815 677.494 452.656C678.428 458.635 674.081 464.257 673.991 470.307C673.991 473.098 674.814 475.929 674.131 478.628C673.504 480.376 672.718 482.061 671.782 483.66C670.387 486.634 670.015 490.015 668.68 493.02C666.281 498.459 661.121 502.003 656.202 505.242C653.412 504.295 650.39 503.205 648.854 500.628C648.178 499.364 647.742 497.982 647.569 496.554C646.505 490.362 646.565 484.037 646.565 477.752C646.474 472.348 646.756 466.943 647.409 461.579C648.412 454.744 650.591 448.165 652.157 441.453C654.165 432.979 655.168 424.23 658.18 416.102C660.88 408.973 665.097 402.556 669.524 396.424C671.22 394.082 672.535 390.731 675.838 391.271C677.242 391.518 678.536 392.202 679.541 393.227C680.546 394.252 681.213 395.569 681.449 396.995V396.995Z" fill="#3F3D56"/>
<path opacity="0.05" d="M681.449 396.995C681.831 399.735 680.536 402.423 680.446 405.143C680.315 407.567 681.078 409.92 681.51 412.272C683.196 421.551 679.954 430.952 676.641 439.772C676.013 441.205 675.623 442.733 675.486 444.294C675.396 447.177 677.032 449.815 677.494 452.656C678.428 458.635 674.081 464.257 673.991 470.307C673.991 473.098 674.814 475.929 674.131 478.628C673.504 480.376 672.718 482.061 671.782 483.66C670.387 486.634 670.015 490.015 668.68 493.02C666.281 498.459 661.121 502.003 656.202 505.242C653.412 504.295 650.39 503.205 648.854 500.628C648.178 499.364 647.742 497.982 647.569 496.554C646.505 490.362 646.565 484.037 646.565 477.752C646.474 472.348 646.756 466.943 647.409 461.579C648.412 454.744 650.591 448.165 652.157 441.453C654.165 432.979 655.168 424.23 658.18 416.102C660.88 408.973 665.097 402.556 669.524 396.424C671.22 394.082 672.535 390.731 675.838 391.271C677.242 391.518 678.536 392.202 679.541 393.227C680.546 394.252 681.213 395.569 681.449 396.995V396.995Z" fill="black"/>
<path opacity="0.1" d="M610.105 337.269C612.271 340.803 614.065 344.558 615.456 348.473C617.443 348.969 619.482 349.219 621.529 349.217C629.48 349.217 635.111 344.633 639.779 338.838C640.181 336.974 642.7 335.243 642.419 333.745C642.048 331.81 640.251 332.197 638.635 332.309C633.699 332.685 628.787 333.328 623.918 334.234C622.643 334.468 610.286 337.595 610.105 337.269Z" fill="black"/>
<path d="M621.529 348.504C635.595 348.504 646.997 336.935 646.997 322.664C646.997 308.393 635.595 296.824 621.529 296.824C607.464 296.824 596.061 308.393 596.061 322.664C596.061 336.935 607.464 348.504 621.529 348.504Z" fill="#EE8E9E"/>
<path opacity="0.1" d="M589.315 507.809C593.722 507.544 598.159 507.717 602.586 507.901C605.353 507.93 608.112 508.216 610.828 508.756C614.171 509.53 617.303 511.078 620.595 512.046C625.886 513.604 631.457 513.675 636.928 514.215C640.525 514.573 644.098 515.141 647.629 515.916C647.573 515.492 647.462 515.078 647.298 514.684C646.395 512.647 643.955 511.812 641.787 511.282C628.011 507.933 613.891 506.258 599.725 506.291C594.515 502.676 591.564 503.938 589.315 507.809Z" fill="black"/>
<path d="M606.702 364.963C607.816 366.266 609.302 367.703 610.948 367.285C611.544 367.073 612.103 366.767 612.605 366.379C615.536 364.464 619.14 364.016 622.593 363.486C629.557 362.418 636.438 360.849 643.182 358.791C645.137 358.068 647.188 357.646 649.266 357.538C653.582 357.538 657.407 360.471 660.117 363.883C662.828 367.295 664.735 371.288 667.395 374.74C669.283 377.205 671.531 379.375 673.298 381.931C677.765 388.378 678.719 396.791 677.564 404.583C676.41 412.374 673.348 419.718 670.307 426.99C668.686 431.202 666.704 435.261 664.384 439.12C665.388 445.038 664.866 451.811 662.095 457.118C661.192 458.849 660.087 460.53 659.786 462.465C659.649 463.773 659.703 465.094 659.947 466.386L661.242 475.746C661.633 478.598 662.025 481.45 662.537 484.271C663.47 489.455 664.745 495.077 662.376 499.763C659.545 505.375 662.527 512.565 661.774 518.829C653.807 515.704 645.459 513.692 636.958 512.85C631.487 512.3 625.916 512.229 620.626 510.671C617.333 509.652 614.201 508.155 610.858 507.381C608.142 506.841 605.384 506.555 602.616 506.526C596.513 506.281 590.369 506.026 584.326 506.943C583.834 507.014 583.242 507.055 582.951 506.658C582.818 506.438 582.752 506.183 582.76 505.925C582.67 503.626 583.212 501.348 584.326 499.345C585.099 497.97 586.163 496.615 586.133 495.027C586.08 494.288 585.9 493.564 585.601 492.888L582.931 485.605C580.672 479.494 581.746 472.365 580.572 465.968C579.655 460.948 579.068 455.872 578.815 450.772C578.594 446.413 578.725 441.697 581.325 438.214C582.098 437.377 582.772 436.451 583.332 435.454C583.698 434.395 583.855 433.274 583.794 432.154C583.854 423.435 583.62 414.72 583.091 406.009C585.35 401.935 587.699 397.677 589.968 393.563C592.598 388.765 595.258 383.877 596.322 378.499C597.025 374.934 597.005 371.278 597.507 367.682C597.487 367.114 597.599 366.548 597.834 366.032C598.069 365.515 598.421 365.062 598.861 364.709C599.301 364.356 599.816 364.113 600.366 364C600.915 363.886 601.483 363.906 602.024 364.056C603.62 364.117 605.197 364.423 606.702 364.963V364.963Z" fill="#3F3D56"/>
<path opacity="0.1" d="M513.454 349.441C515.058 350.69 516.966 351.475 518.975 351.712C521.595 351.895 527.176 350.327 528.813 348.045C529.497 346.897 529.823 345.565 529.746 344.226C529.393 344.105 529.025 344.033 528.652 344.012C525.804 343.683 522.923 343.799 520.109 344.358C518.697 344.645 517.366 345.253 516.217 346.134C515.068 347.016 514.13 348.15 513.474 349.451C513.474 349.451 513.464 349.43 513.454 349.441Z" fill="black"/>
<path d="M598.199 405.326C596.643 407.282 595.027 409.299 592.829 410.419C590.299 411.753 587.318 411.784 584.467 411.723C572.731 411.469 561.041 410.163 549.532 407.822C548.223 407.601 546.936 407.26 545.688 406.803C544.302 406.133 542.995 405.306 541.793 404.338C538.008 401.578 534.163 398.757 531.282 395.029C527.863 390.537 525.715 385.185 525.068 379.548C522.328 376.981 520.872 373.345 519.507 369.831C518.823 368.34 518.392 366.742 518.232 365.105C518.162 363.435 519.236 361.683 518.945 360.013C518.422 357.181 517.014 354.596 514.929 352.639C514.467 352.327 514.116 351.874 513.925 351.345C513.866 350.91 513.947 350.467 514.156 350.082C514.817 348.784 515.755 347.653 516.904 346.771C518.052 345.89 519.381 345.281 520.792 344.99C523.609 344.436 526.493 344.319 529.345 344.644C530.292 344.825 531.225 345.077 532.135 345.397L534.143 350.714C534.407 351.608 534.852 352.437 535.448 353.148C535.887 353.558 536.357 353.932 536.854 354.268C537.859 355.134 538.641 356.237 539.131 357.479C539.621 358.722 539.804 360.067 539.664 361.398C541.465 362.107 542.931 363.485 543.765 365.253C544.599 367.02 544.737 369.044 544.152 370.911C545.649 371.237 547.039 371.948 548.188 372.975C549.338 374.002 550.208 375.312 550.717 376.778C550.862 377.445 551.157 378.069 551.58 378.601C552.235 379.109 553.046 379.365 553.869 379.324C556.118 379.456 558.085 381.259 560.133 380.281C562.452 379.19 565.041 378.835 567.562 379.263C568.082 379.381 568.615 379.429 569.148 379.405C569.604 379.323 570.044 379.169 570.453 378.947C571.371 378.401 572.366 378.003 573.404 377.765C573.924 377.656 574.465 377.701 574.96 377.896C575.455 378.092 575.884 378.428 576.195 378.865C576.918 378.071 577.339 377.052 577.992 376.197C578.281 375.746 578.687 375.385 579.165 375.153C579.643 374.921 580.175 374.828 580.702 374.883C580.03 374.272 580.702 373.05 581.606 372.846C582.51 372.779 583.419 372.813 584.316 372.948C586.665 372.948 588.472 370.768 590.761 370.198C592.869 369.678 595.67 370.3 596.784 368.395C597.165 367.723 597.246 366.806 597.898 366.358C598.336 366.135 598.838 366.078 599.314 366.195C600.809 366.388 602.262 366.836 603.61 367.519C605.819 376.268 604.614 385.353 602.978 394.235C602.362 398.29 600.715 402.113 598.199 405.326Z" fill="#3F3D56"/>
<path opacity="0.1" d="M598.26 436.717L609.232 459.124C608.047 457.087 605.548 456.242 603.57 454.918C601.063 453.081 599.174 450.507 598.159 447.544C597.163 444.592 596.47 441.544 596.091 438.448C595.87 437.022 595.399 435.026 596.091 433.743C597.346 434.007 597.748 435.637 598.26 436.717Z" fill="black"/>
<path opacity="0.1" d="M629.821 455.743C632.3 458.228 635.322 460.051 638.053 462.251C644.407 467.343 648.944 474.473 653.372 481.368C654.625 483.172 655.675 485.113 656.504 487.153C655.982 487.602 655.209 487.153 654.697 486.675L646.083 478.995C645.026 478.121 644.063 477.134 643.212 476.052C641.717 474.015 641.054 471.458 639.699 469.319C638.218 467.267 636.453 465.442 634.459 463.901C632.451 462.18 623.416 454.388 625.605 451.353C627.211 452.178 628.516 454.429 629.821 455.743Z" fill="black"/>
<path d="M611.009 358.475C613.833 356.888 616.924 355.852 620.124 355.419C622.022 354.981 623.976 354.84 625.916 355.002C627.713 355.226 629.429 355.929 631.236 356.02C633.766 356.163 636.195 355.124 638.645 354.442C641.094 353.759 643.915 353.504 645.973 355.002C646.41 355.442 646.965 355.743 647.569 355.867C648.194 355.79 648.775 355.499 649.216 355.042C650.949 353.784 653.053 353.161 655.182 353.275C657.311 353.39 659.338 354.236 660.931 355.674C665.599 360.115 665.076 368.792 670.548 372.164C672.053 373.09 673.981 373.579 674.864 375.138C675.086 375.654 675.348 376.151 675.647 376.625C676.014 377.031 676.463 377.354 676.962 377.572C678.552 378.295 680.065 379.178 681.48 380.21C682.183 380.729 682.775 381.388 683.22 382.146C683.665 382.904 683.954 383.745 684.07 384.62C684.091 385.905 683.82 387.177 683.276 388.338C680.595 395 675.947 400.658 669.972 404.534C663.996 408.411 656.984 410.317 649.898 409.991C648.641 410.053 647.403 409.659 646.405 408.881C645.881 408.281 645.466 407.591 645.18 406.844C642.6 401.374 637.772 397.331 634.7 392.126C632.873 389.02 631.688 385.557 629.801 382.501C626.91 377.867 622.523 374.445 618.226 371.135C615.807 369.261 613.107 367.295 610.065 367.428C607.355 367.54 605.377 367.692 606.371 364.311C607.184 361.868 608.828 359.799 611.009 358.475V358.475Z" fill="#3F3D56"/>
<path opacity="0.05" d="M611.009 358.475C613.833 356.888 616.924 355.852 620.124 355.419C622.022 354.981 623.976 354.84 625.916 355.002C627.713 355.226 629.429 355.929 631.236 356.02C633.766 356.163 636.195 355.124 638.645 354.442C641.094 353.759 643.915 353.504 645.973 355.002C646.41 355.442 646.965 355.743 647.569 355.867C648.194 355.79 648.775 355.499 649.216 355.042C650.949 353.784 653.053 353.161 655.182 353.275C657.311 353.39 659.338 354.236 660.931 355.674C665.599 360.115 665.076 368.792 670.548 372.164C672.053 373.09 673.981 373.579 674.864 375.138C675.086 375.654 675.348 376.151 675.647 376.625C676.014 377.031 676.463 377.354 676.962 377.572C678.552 378.295 680.065 379.178 681.48 380.21C682.183 380.729 682.775 381.388 683.22 382.146C683.665 382.904 683.954 383.745 684.07 384.62C684.091 385.905 683.82 387.177 683.276 388.338C680.595 395 675.947 400.658 669.972 404.534C663.996 408.411 656.984 410.317 649.898 409.991C648.641 410.053 647.403 409.659 646.405 408.881C645.881 408.281 645.466 407.591 645.18 406.844C642.6 401.374 637.772 397.331 634.7 392.126C632.873 389.02 631.688 385.557 629.801 382.501C626.91 377.867 622.523 374.445 618.226 371.135C615.807 369.261 613.107 367.295 610.065 367.428C607.355 367.54 605.377 367.692 606.371 364.311C607.184 361.868 608.828 359.799 611.009 358.475V358.475Z" fill="black"/>
<path d="M597.748 733.012C599.595 734.763 602.134 735.527 604.594 736.067C610.226 737.184 615.929 737.898 621.66 738.206L627.221 738.634C632.652 739.051 638.093 739.479 643.554 739.5C650.285 739.525 657.004 738.935 663.631 737.738C663.894 737.765 664.159 737.729 664.406 737.633C664.653 737.538 664.875 737.385 665.053 737.187C665.232 736.989 665.362 736.752 665.434 736.494C665.506 736.235 665.518 735.964 665.468 735.7C665.35 728.818 664.522 721.967 662.998 715.259C662.366 712.499 657.497 718.681 657.276 718.936C656.774 719.658 656.112 720.25 655.343 720.666C654.574 721.081 653.72 721.309 652.849 721.329C647.248 721.635 640.974 718.182 636.517 715.106C635.567 714.388 634.559 713.751 633.505 713.202C632.727 712.847 631.902 712.611 631.056 712.499C628.173 712.223 625.274 712.818 622.724 714.21C619.381 715.891 616.439 718.284 613.127 720.046C610.433 721.453 607.524 722.386 604.524 722.806C601.512 723.234 597.878 723.438 596.322 726.096C594.987 728.296 595.911 731.27 597.748 733.012Z" fill="#3F3D56"/>
<path d="M597.748 734.03C599.595 735.782 602.135 736.546 604.594 737.086C610.226 738.202 615.929 738.917 621.66 739.225L627.221 739.652C632.652 740.07 638.093 740.498 643.554 740.518C650.285 740.543 657.004 739.954 663.631 738.756C663.935 738.746 664.234 738.671 664.509 738.538C664.783 738.405 665.028 738.216 665.227 737.982C665.751 737.277 666.171 736.498 666.472 735.67C666.351 728.795 664.524 721.93 662.998 715.228C662.366 712.468 657.497 718.651 657.276 718.905C656.774 719.627 656.112 720.219 655.343 720.635C654.574 721.051 653.72 721.278 652.849 721.299C647.248 721.604 640.974 718.152 636.517 715.076C635.567 714.357 634.559 713.72 633.505 713.171C632.727 712.817 631.902 712.58 631.056 712.468C631.778 716.542 637.561 721.492 640.542 723C646.565 726.055 653.753 724.527 660.489 724.884C660.983 724.862 661.474 724.982 661.904 725.23C662.707 725.77 662.758 726.931 662.737 727.909C662.677 729.539 662.476 731.453 661.081 732.288C660.383 732.625 659.615 732.785 658.843 732.757C642.245 733.491 625.617 732.898 609.111 730.985C606.335 730.803 603.602 730.188 601.01 729.162C599.316 728.362 597.735 727.335 596.312 726.106C594.144 727.776 595.911 732.288 597.748 734.03Z" fill="#E8EAF2"/>
<path d="M611.621 322.379C611.711 325.047 609.914 330.232 614.843 328.785C617.775 327.93 618.608 324.396 622.332 325.18C626.057 325.964 626.91 330.629 628.175 333.674C629.206 336.094 630.801 338.224 632.822 339.881C634.844 341.537 637.231 342.672 639.779 343.187C640.832 343.442 641.929 343.442 642.982 343.187C645.381 342.494 646.746 339.979 647.73 337.646C648.58 335.665 649.284 333.622 649.838 331.535C650.217 330.073 650.472 328.581 650.601 327.074V327.074C650.68 326.057 650.68 325.036 650.601 324.019C650.159 317.908 646.746 312.397 642.379 308.211C638.012 304.025 632.722 301 627.482 298.026C625.774 296.946 623.926 296.113 621.991 295.551C620.082 295.154 618.123 295.072 616.189 295.307C613.641 295.416 611.138 296.013 608.81 297.069C607.855 297.544 606.979 298.166 606.21 298.912C605.119 299.943 604.339 301.268 603.962 302.732C603.018 306.653 605.477 310.187 607.485 313.294C609.282 316.013 611.491 318.936 611.621 322.379Z" fill="#3F3D56"/>
<path opacity="0.1" d="M528.742 379.731C529.796 377.032 534.213 369.597 532.939 367.03C531.611 368.945 530.481 370.993 529.566 373.141C528.732 375.219 529.415 378.01 528.742 379.731Z" fill="black"/>
<path opacity="0.1" d="M607.385 313.263C605.377 310.157 602.907 306.623 603.851 302.691C604.319 300.965 605.327 299.439 606.722 298.342C606.399 298.918 606.153 299.534 605.989 300.175C605.046 304.107 607.515 307.641 609.523 310.747C611.31 313.497 613.538 316.431 613.639 319.863C613.739 322.532 611.942 327.726 616.871 326.27C619.802 325.414 620.636 321.88 624.36 322.664C628.084 323.448 628.937 328.103 630.202 331.158C631.234 333.578 632.829 335.708 634.85 337.365C636.871 339.022 639.258 340.156 641.807 340.671C642.856 340.926 643.95 340.926 644.999 340.671C645.55 340.53 646.07 340.289 646.535 339.958C645.789 341.487 644.48 342.658 642.891 343.218C641.842 343.472 640.748 343.472 639.699 343.218C637.15 342.703 634.763 341.568 632.742 339.911C630.721 338.254 629.126 336.124 628.094 333.705C626.829 330.649 626.006 326.015 622.252 325.21C618.497 324.406 617.694 327.96 614.763 328.816C609.834 330.272 611.631 325.078 611.531 322.409C611.4 318.946 609.172 316.013 607.385 313.263Z" fill="black"/>
<path opacity="0.1" d="M606.29 307.957C606.754 308.712 607.26 309.44 607.806 310.136C608.847 311.471 610.014 312.699 611.29 313.803C612.041 314.464 612.825 315.086 613.639 315.667C615.159 316.758 616.76 317.728 618.427 318.57C623.316 320.889 628.408 322.74 633.636 324.1L643.805 327.105C645.06 328.062 647.338 329.794 649.828 331.576C650.207 330.114 650.462 328.621 650.591 327.115C650.67 326.098 650.67 325.076 650.591 324.059C650.149 317.948 646.736 312.438 642.369 308.252C638.002 304.066 632.712 301.041 627.472 298.067C625.764 296.987 623.916 296.154 621.981 295.592C620.072 295.195 618.113 295.112 616.179 295.348C613.631 295.456 611.128 296.054 608.8 297.11C607.845 297.585 606.968 298.207 606.2 298.953C605.627 299.814 605.187 300.758 604.895 301.754C604.273 303.801 605.156 306.073 606.29 307.957Z" fill="black"/>
<path d="M606.29 307.254C606.754 308.013 607.26 308.744 607.806 309.444C608.845 310.777 610.011 312.002 611.29 313.1C612.039 313.768 612.823 314.393 613.639 314.974C615.162 316.054 616.763 317.018 618.427 317.857C623.318 320.171 628.409 322.023 633.636 323.387L643.805 326.392C647.358 329.111 659.234 338.033 661.232 336.923C663.581 335.609 650.691 326.351 650.691 326.351L650.099 326.809C651.986 325.597 652.97 322.807 653.402 320.393C654.313 316.086 654.347 311.636 653.502 307.315C652.498 303.048 649.958 298.984 646.104 296.987C644.397 296.091 642.329 295.49 641.084 294.115C640.895 293.915 640.73 293.693 640.592 293.453C640.523 293.338 640.459 293.219 640.402 293.097C640.27 292.717 640.087 292.357 639.86 292.027C639.157 291.202 637.852 291.457 636.848 291.589H636.497H635.924C632.1 291.671 628.395 289.552 624.531 289.552C620.294 289.552 616.68 292.037 612.956 293.738L610.818 294.757C608.117 296.03 606.09 297.385 604.975 301.01C604.273 303.098 605.156 305.38 606.29 307.254Z" fill="#303D5C"/>
<path opacity="0.1" d="M635.864 291.65C635.715 291.918 635.632 292.219 635.623 292.526C635.624 292.791 635.682 293.052 635.793 293.291C635.904 293.53 636.066 293.742 636.266 293.912C636.735 294.258 637.293 294.46 637.872 294.492C638.288 294.552 638.707 294.586 639.127 294.594C639.69 294.639 640.256 294.541 640.773 294.309C640.874 294.25 640.971 294.186 641.064 294.115C640.875 293.915 640.71 293.693 640.572 293.453C640.482 293.524 640.382 293.504 640 293.453C639.32 293.415 638.647 293.299 637.992 293.107C637.716 293.025 637.455 292.898 637.219 292.73C636.875 292.431 636.621 292.039 636.487 291.599L635.864 291.65Z" fill="black"/>
<path opacity="0.1" d="M650.41 326.249C649.869 326.585 649.269 326.81 648.643 326.911C647.857 327.143 647.032 327.2 646.222 327.076C645.413 326.953 644.64 326.654 643.955 326.198" fill="black"/>
<path d="M224.212 413.973C222.525 402.515 212.276 375.8 212.276 375.8C212.095 374.995 211.894 374.211 211.664 373.416C204.386 348.035 194.307 345.784 194.307 345.784L158.228 337.982C158.517 338.176 158.769 338.421 158.971 338.706L158.399 338.797C156.746 336.818 155.653 334.421 155.237 331.861C155.166 331.484 155.106 331.087 155.056 330.69C157.646 328.127 159.666 325.032 160.981 321.612C162.296 318.193 162.875 314.527 162.679 310.862C162.483 307.197 161.517 303.616 159.846 300.361C158.174 297.105 155.836 294.25 152.988 291.987C152.617 291.691 152.235 291.396 151.834 291.121C153.54 289.287 153.59 286.731 152.326 284.185C149.475 278.186 143.291 274.397 136.946 272.553C132.088 271.138 126.817 270.679 122.009 272.227C119.314 273.242 116.703 274.471 114.199 275.904C109.401 278.338 104.16 280.253 100.516 284.246C100.049 284.66 99.6829 285.177 99.4461 285.759C99.2092 286.34 99.1083 286.969 99.1511 287.597C99.4759 288.474 99.9331 289.296 100.506 290.031C101.51 291.854 101.269 294.105 100.577 296.142C99.8839 298.179 98.8399 299.972 98.348 302.009C97.8561 304.046 98.0469 306.439 99.5527 307.896C100.277 308.476 101.031 309.016 101.811 309.515C102.635 310.225 103.358 311.048 103.96 311.96L108.236 317.816C110.239 320.414 112.025 323.177 113.577 326.076C114.494 328.27 115.603 330.376 116.889 332.37C117.306 332.926 117.785 333.432 118.315 333.878L117.893 333.715C118.523 334.339 119.272 334.826 120.093 335.146C120.915 335.467 121.792 335.614 122.672 335.579H122.892C123.214 335.573 123.522 335.446 123.756 335.222V336.017C123.836 338.838 123.816 341.832 123.625 344.643L123.294 344.47C122.798 344.216 122.241 344.113 121.689 344.172C121.137 344.232 120.614 344.452 120.182 344.806L86.9442 371.848C86.9442 371.848 79.7164 381.88 80.7303 399.175L74.9079 425.126C74.9079 425.126 67.6199 447.146 73.2214 462.872C78.823 478.598 82.0654 487.591 82.0654 487.591C82.0654 487.591 84.3141 505.456 87.667 506.943C91.0199 508.43 92.4855 509.194 92.4855 509.194L93.1581 513.462C93.1581 513.462 93.3789 513.879 93.7704 514.582C96.2199 518.9 105.285 534.137 110.555 532.508C111.213 536.645 111.498 540.835 111.408 545.025L116.618 580.53C116.618 580.53 120.252 590.186 120.031 595.248C119.811 600.31 124.288 607.47 124.288 607.47C121.57 612.512 120.773 618.391 122.049 623.99C124.177 633.422 126.868 677.014 126.868 677.014L130.783 687.576L130.672 699.951C130.348 701.957 129.518 703.845 128.263 705.43C125.743 708.211 125.914 711.419 119.861 715.208C113.807 718.997 109.953 720.433 109.953 725.485C109.945 726.168 109.884 726.849 109.772 727.522C109.21 731.209 108.116 733.205 119.278 734.285C123.222 734.604 127.189 734.113 130.941 732.838C134.693 731.564 138.153 729.534 141.112 726.87C141.112 726.87 143.05 723.326 152.155 721.9C152.155 721.9 155.257 721.726 155.427 718.946C155.488 717.989 155.427 716.145 155.427 714.128C155.277 710.268 154.915 705.777 154.424 705.553C153.932 705.328 152.757 701.397 152.416 699.991H154.936C154.936 699.991 157.295 682.127 154.936 670.557C152.576 658.986 154.715 650.787 154.715 650.787L154.263 620.232C154.263 620.232 151.131 616.861 153.59 610.902C156.05 604.944 153.59 575.509 153.59 575.509C153.59 575.509 154.494 564.957 157.064 562.482C159.634 560.007 157.194 547.011 157.064 546.329L161.651 561.922C161.651 561.922 163.659 592.926 167.925 598.589L169.15 612.624C169.15 612.624 177.884 625.549 176.177 632.515C174.471 639.482 177.974 664.639 177.974 664.639V690.326C177.974 690.326 174.049 700.654 179.54 704.361L181.899 704.269C181.096 705.003 180.524 706.113 179.62 707.06C178.566 708.16 177.974 712.326 177.613 715.911C177.332 718.966 177.241 721.553 177.241 721.553C177.999 722.692 178.994 723.647 180.156 724.352C181.319 725.056 182.62 725.491 183.967 725.627C188.334 725.882 202.779 737.086 202.779 737.086C202.779 737.086 217.064 737.086 220.759 736.332L220.969 736.271C222.159 735.895 223.16 735.067 223.76 733.959C224.509 732.685 224.75 731.169 224.433 729.722C223.981 727.501 222.244 725.077 218.41 723.01C208.823 717.917 207.367 713.079 207.367 713.079L201.143 703.566H202.037C202.037 703.566 201.474 693.453 208.301 682.106L207.849 632.037C207.849 632.037 210.65 614.844 205.841 605.555C205.841 605.555 205.45 595.676 208.662 592.641C211.874 589.605 204.386 558.938 204.386 558.938C204.386 558.938 202.85 542.479 201.003 527.456C208.562 534.728 216.412 508.532 217.727 503.877H217.918L217.827 503.541L217.918 503.205C217.918 503.205 216.241 497.094 217.466 498.377C218.691 499.661 221.722 495.006 221.722 495.006C221.722 495.006 221.281 469.951 226.541 457.321C231.801 444.692 224.212 413.973 224.212 413.973ZM201.695 429.913V429.842C202.478 445.119 201.545 477.783 201.545 477.783C201.545 477.783 200.541 481.969 199.396 486.899L198.603 455.885L197.851 426.674L201.695 429.913ZM105.325 419.372C105.325 419.372 109.129 467.679 105.325 474.646C104.241 476.622 103.317 480.156 102.574 484.19C101.319 480.839 98.6592 472.986 99.5627 468.8C100.787 463.412 97.0932 449.255 97.0932 448.919C97.0932 448.582 96.7619 441.056 99.4523 435.26C102.143 429.465 100.346 427.01 100.346 427.01C100.346 427.01 102.594 417.569 105.285 419.402L105.325 419.372Z" fill="url(#paint1_linear)"/>
<path d="M114.55 528.159C111.238 542.947 98.0469 520.581 95.0454 515.224C94.6538 514.521 94.433 514.103 94.433 514.103L95.8685 507.299L103.428 504.183C104.623 504.815 105.756 505.562 106.811 506.413C110.946 509.693 117.11 516.7 114.55 528.159Z" fill="#A1616A"/>
<path d="M216.884 503.938C216.884 503.938 216.884 504.05 216.803 504.264L216.693 504.631C215.408 509.245 207.708 535.247 200.29 528.057C192.159 520.143 196.114 501.952 196.114 501.952H196.164L213.23 500.17L216.613 503.704L216.884 503.938Z" fill="#A1616A"/>
<path d="M206.986 631.863L207.417 681.485C200.722 692.75 201.274 702.792 201.274 702.792L179.189 703.679C173.798 700.002 177.653 689.745 177.653 689.745V664.201C177.653 664.201 174.24 639.227 175.886 632.312C177.532 625.396 168.969 612.573 168.969 612.573L167.745 598.66C163.569 593.089 161.591 562.309 161.591 562.309L157.094 546.838C157.214 547.51 159.543 560.476 157.094 562.87C154.644 565.263 153.691 575.805 153.691 575.805C153.691 575.805 156.11 605.015 153.691 610.933C151.271 616.851 154.343 620.191 154.343 620.191L154.785 650.523C154.785 650.523 152.697 658.671 155.006 670.139C157.315 681.607 155.006 699.36 155.006 699.36H131.255L131.365 686.985L127.54 676.464C127.54 676.464 124.9 633.208 122.812 623.838C121.557 618.285 122.338 612.459 125.011 607.45C125.011 607.45 120.614 600.32 120.834 595.289C121.055 590.257 117.502 580.683 117.502 580.683L112.392 545.443C112.528 538.645 111.662 531.865 109.822 525.327C106.811 515.295 102.464 502.136 102.464 502.136L107.423 502.584L132.469 504.845C132.469 504.845 193.353 500.689 196.084 504.142C196.66 505.268 197.047 506.483 197.228 507.738C199.959 520.204 203.572 559.233 203.572 559.233C203.572 559.233 210.941 589.677 207.779 592.681C204.617 595.686 205.008 605.504 205.008 605.504C209.726 614.803 206.986 631.863 206.986 631.863Z" fill="#3F3D56"/>
<path d="M155.518 718.141C155.347 720.912 152.305 721.075 152.305 721.075C143.401 722.49 141.504 726.014 141.504 726.014C138.61 728.651 135.218 730.664 131.533 731.93C127.849 733.196 123.949 733.688 120.072 733.378C109.119 732.299 110.194 730.323 110.746 726.656C110.859 725.983 110.919 725.302 110.926 724.619C110.926 719.598 114.711 718.172 120.654 714.434C126.597 710.696 126.416 707.488 128.895 704.738C131.375 701.988 131.616 696.59 131.616 696.59C134.417 691.66 141.504 697.343 141.504 697.343C141.835 699.095 152.386 698.851 152.386 698.851C152.386 698.851 153.791 704.534 154.504 704.87C154.986 705.094 155.337 709.555 155.508 713.385C155.558 715.371 155.578 717.194 155.518 718.141Z" fill="#303D5C"/>
<path opacity="0.1" d="M155.518 718.141C155.347 720.912 152.305 721.075 152.305 721.075C143.401 722.49 141.504 726.014 141.504 726.014C138.61 728.651 135.218 730.664 131.533 731.93C127.849 733.196 123.949 733.689 120.072 733.378C109.119 732.299 110.194 730.323 110.746 726.656C115.634 727.888 125 729.61 130.451 726.595C138.041 722.419 143.502 719.465 143.502 719.465L155.548 713.354C155.558 715.371 155.578 717.194 155.518 718.141Z" fill="black"/>
<path d="M222.606 733.032C222.013 734.122 221.033 734.942 219.865 735.324L219.654 735.385C216.03 736.128 202.006 736.128 202.006 736.128C202.006 736.128 187.832 725.006 183.546 724.752C182.223 724.616 180.946 724.186 179.806 723.493C178.666 722.799 177.691 721.859 176.95 720.739C176.95 720.739 177.03 718.152 177.312 715.137C177.643 711.582 178.225 707.447 179.259 706.357C181.156 704.32 181.568 701.591 185.854 703.302C185.854 703.302 191.948 692.414 199.115 700.827L206.544 712.254C206.544 712.254 207.939 717.021 217.345 722.124C221.11 724.161 222.816 726.575 223.258 728.775C223.577 730.227 223.344 731.747 222.606 733.032V733.032Z" fill="#303D5C"/>
<path opacity="0.1" d="M222.606 733.032C221.762 733.745 220.839 734.529 219.865 735.324L219.654 735.385C216.03 736.128 202.006 736.128 202.006 736.128C202.006 736.128 187.832 725.006 183.546 724.751C182.223 724.616 180.946 724.186 179.806 723.493C178.666 722.799 177.691 721.859 176.95 720.739C176.95 720.739 177.03 718.152 177.312 715.137C181.668 716.471 188.284 718.803 190.061 721.329C192.771 725.169 201.033 730.496 201.033 730.496C201.033 730.496 216.422 728.999 223.258 728.785C223.574 730.233 223.341 731.75 222.606 733.032V733.032Z" fill="black"/>
<path d="M162.675 343.88L142.407 365.625C142.407 365.625 117.843 363.781 122.129 356.458C124.318 352.71 124.659 344.857 124.468 338.033C124.288 331.454 123.615 325.811 123.615 325.811C123.615 325.811 158.078 308.385 155.437 324.681C154.873 327.741 154.839 330.877 155.337 333.949C156.843 342.097 162.675 343.88 162.675 343.88Z" fill="#A1616A"/>
<path opacity="0.1" d="M155.437 324.681C154.873 327.741 154.839 330.877 155.337 333.949C150.739 338.665 144.355 337.626 137.268 337.626C132.59 337.626 127.57 337.697 123.806 335.446C123.625 328.857 123.585 325.852 123.585 325.852C123.585 325.852 158.078 308.385 155.437 324.681Z" fill="black"/>
<path d="M162.675 314.496C162.673 321.328 159.996 327.88 155.233 332.71C150.47 337.54 144.012 340.254 137.278 340.254C130.549 340.246 124.098 337.529 119.342 332.699C114.586 327.87 111.913 321.323 111.91 314.496C112.137 307.819 114.91 301.493 119.646 296.851C124.381 292.209 130.708 289.615 137.293 289.615C143.877 289.615 150.204 292.209 154.94 296.851C159.675 301.493 162.449 307.819 162.675 314.496V314.496Z" fill="#A1616A"/>
<path opacity="0.1" d="M197.228 507.778C190.914 523.056 150.238 523.361 150.238 523.361V506.719L147.778 506.556C148.842 511.323 146.282 522.944 146.282 522.944C114.159 527.547 106.309 508.98 106.309 508.98L107.423 502.625L132.469 504.886C132.469 504.886 193.353 500.73 196.084 504.183C196.66 505.308 197.047 506.524 197.228 507.778V507.778Z" fill="black"/>
<path d="M150.238 521.355V504.702L147.778 504.55C148.842 509.306 146.282 520.937 146.282 520.937C122.089 524.4 111.669 514.735 107.995 509.734C107.339 508.873 106.774 507.944 106.309 506.963L116.116 450.945L118.425 368.446L121.969 353.983L122.782 347.037V346.955H122.872L125.372 348.045L140.339 354.615L157.345 341.588L157.586 341.394L158.439 340.743L159.844 341.893L163.338 344.735L174.551 418.17C174.551 418.17 193.996 474.728 197.64 497.552C197.78 498.459 197.901 499.304 197.991 500.099C200.36 520.968 150.238 521.355 150.238 521.355Z" fill="#E1E7EF"/>
<path d="M142.166 357.731C142.965 357.731 143.612 357.075 143.612 356.265C143.612 355.455 142.965 354.798 142.166 354.798C141.368 354.798 140.721 355.455 140.721 356.265C140.721 357.075 141.368 357.731 142.166 357.731Z" fill="#67647E"/>
<path d="M142.829 371.115C143.627 371.115 144.275 370.458 144.275 369.648C144.275 368.838 143.627 368.181 142.829 368.181C142.031 368.181 141.383 368.838 141.383 369.648C141.383 370.458 142.031 371.115 142.829 371.115Z" fill="#67647E"/>
<path d="M144.275 392.768C145.073 392.768 145.72 392.111 145.72 391.301C145.72 390.491 145.073 389.835 144.275 389.835C143.476 389.835 142.829 390.491 142.829 391.301C142.829 392.111 143.476 392.768 144.275 392.768Z" fill="#67647E"/>
<path d="M146.664 416.102C147.462 416.102 148.109 415.445 148.109 414.635C148.109 413.825 147.462 413.169 146.664 413.169C145.865 413.169 145.218 413.825 145.218 414.635C145.218 415.445 145.865 416.102 146.664 416.102Z" fill="#67647E"/>
<path d="M148.109 438.021C148.908 438.021 149.555 437.364 149.555 436.554C149.555 435.744 148.908 435.087 148.109 435.087C147.311 435.087 146.664 435.744 146.664 436.554C146.664 437.364 147.311 438.021 148.109 438.021Z" fill="#67647E"/>
<path d="M149.555 461.355C150.353 461.355 151 460.698 151 459.888C151 459.078 150.353 458.421 149.555 458.421C148.757 458.421 148.109 459.078 148.109 459.888C148.109 460.698 148.757 461.355 149.555 461.355Z" fill="#67647E"/>
<path d="M148.973 484.434C149.771 484.434 150.418 483.777 150.418 482.967C150.418 482.157 149.771 481.501 148.973 481.501C148.174 481.501 147.527 482.157 147.527 482.967C147.527 483.777 148.174 484.434 148.973 484.434Z" fill="#67647E"/>
<path opacity="0.1" d="M123.746 459.124C123.746 459.124 122.129 480.584 119.168 486.827C116.207 493.071 114.882 510.579 114.882 510.579L107.995 509.785C107.339 508.924 106.774 507.995 106.309 507.014L116.116 450.996L118.425 368.497L121.969 354.034L122.782 347.088H122.882C123.264 346.9 123.683 346.802 124.107 346.802C124.531 346.802 124.95 346.9 125.332 347.088L125.663 347.261C125.563 347.546 125.462 347.842 125.382 348.137C122.692 356.672 121.688 372.398 121.688 372.398C121.688 372.398 125.543 401.171 125.974 414.554C126.406 427.937 123.746 459.124 123.746 459.124Z" fill="black"/>
<path opacity="0.1" d="M106.811 506.413C106.732 506.593 106.642 506.766 106.54 506.933C103.869 511.516 97.1033 514.419 95.0454 515.224C94.6538 514.521 94.433 514.103 94.433 514.103L95.8685 507.299L103.428 504.183C104.623 504.815 105.756 505.562 106.811 506.413Z" fill="black"/>
<path d="M88.5002 396.903L82.2361 400.692L76.5242 426.46C76.5242 426.46 69.3767 448.307 74.8678 463.921C80.3589 479.535 83.5512 488.457 83.5512 488.457C83.5512 488.457 85.7496 506.189 89.0523 507.636C92.355 509.082 93.7805 509.866 93.7805 509.866L94.4129 514.124C94.4129 514.124 103.357 511.068 106.529 505.619C109.702 500.17 104.201 486.695 104.201 486.695C104.201 486.695 99.4724 475.206 100.677 469.859C101.882 464.512 98.2677 450.507 98.2677 450.12C98.2677 449.733 97.9365 442.308 100.567 436.564C103.197 430.82 101.45 428.416 101.45 428.416L99.8036 412.018L88.5002 396.903Z" fill="#303D5C"/>
<path opacity="0.1" d="M197.75 502.92C197.75 502.92 181.156 509.275 175.876 503.704C170.596 498.133 171.148 472.028 171.148 472.028C171.148 472.028 166.129 423.863 162.906 415.939C159.684 408.015 161.37 350.928 161.37 350.928C161.37 350.928 159.222 343.543 157.355 341.618C157.238 341.491 157.106 341.379 156.963 341.282L157.596 341.425L159.854 341.924L163.348 344.766L174.561 418.2C174.561 418.2 194.006 474.758 197.65 497.583L197.75 502.92Z" fill="black"/>
<path opacity="0.1" d="M216.884 504.631H216.693C214.615 504.906 196.164 507.167 196.094 503.266C196.092 502.817 196.115 502.368 196.164 501.922L213.23 500.139L216.613 503.674C216.673 503.898 216.723 504.101 216.773 504.254L216.884 504.631Z" fill="black"/>
<path d="M199.186 371.104L211.312 377.521C211.312 377.521 221.351 404.002 223.027 415.42C223.027 415.42 230.506 445.883 225.336 458.421C220.166 470.959 220.618 495.821 220.618 495.821C220.618 495.821 217.606 500.394 216.432 499.162C215.257 497.929 216.884 503.938 216.884 503.938C216.884 503.938 196.174 506.729 196.084 502.604C195.993 498.479 200.822 478.761 200.822 478.761C200.822 478.761 202.137 431.808 200.27 424.444C198.403 417.08 199.186 371.104 199.186 371.104Z" fill="#303D5C"/>
<path opacity="0.1" d="M163.017 421.103C163.017 421.103 156.21 438.051 153.982 439.171C151.753 440.292 154.414 444.743 154.414 444.743C154.414 444.743 166.871 427.122 163.017 421.103Z" fill="black"/>
<path opacity="0.1" d="M158.951 361.663C159.031 361.337 150.82 369.811 148.621 371.104C146.423 372.398 156.652 371.033 158.951 361.663Z" fill="black"/>
<path opacity="0.1" d="M136.093 419.769C136.093 419.769 123.565 427.988 125.211 431.237C126.858 434.486 136.093 419.769 136.093 419.769Z" fill="black"/>
<path opacity="0.1" d="M158.841 539.749C158.841 539.749 169.512 546.716 186.105 548.447L158.841 539.749Z" fill="black"/>
<path opacity="0.1" d="M133.232 556.483C133.232 556.483 143.13 569.123 147.617 569.418C152.105 569.714 133.232 556.483 133.232 556.483Z" fill="black"/>
<path opacity="0.1" d="M147.085 605.881C146.644 606.105 141.474 617.258 136.204 617.594C130.933 617.93 147.085 605.881 147.085 605.881Z" fill="black"/>
<path opacity="0.1" d="M192.912 630.305C192.912 630.305 202.719 628.075 204.898 635.214C204.898 635.214 204.235 632.984 192.912 630.305Z" fill="black"/>
<path opacity="0.1" d="M186.326 671.117C186.326 671.117 198.192 668.662 200.722 672.013C203.251 675.364 186.326 671.117 186.326 671.117Z" fill="black"/>
<path opacity="0.1" d="M152.727 676.8C152.727 676.912 140.681 679.255 141.112 680.823C141.544 682.392 154.012 682.157 154.444 679.703C154.527 679.398 154.549 679.078 154.507 678.765C154.465 678.451 154.361 678.149 154.2 677.877C154.04 677.605 153.826 677.37 153.573 677.185C153.32 677 153.032 676.869 152.727 676.8V676.8Z" fill="black"/>
<path opacity="0.1" d="M182.361 687.403C182.361 687.403 202.227 684.948 200.973 689.185C199.718 693.422 182.361 687.403 182.361 687.403Z" fill="black"/>
<path opacity="0.1" d="M78.3512 439.171C78.4616 439.507 91.4013 441.29 93.1882 445.527C93.1882 445.527 80.4392 439.507 78.4616 439.507" fill="black"/>
<path opacity="0.1" d="M96.6314 473.628C96.6314 473.628 85.86 477.08 86.5929 482.326C87.3257 487.571 85.5388 479.881 96.6314 473.628Z" fill="black"/>
<path opacity="0.1" d="M91.6122 500.17C91.6122 500.17 95.5372 494.701 99.2716 495.709C103.006 496.717 91.6122 500.17 91.6122 500.17Z" fill="black"/>
<path opacity="0.1" d="M153.139 294.309C152.759 294.681 152.334 295.003 151.874 295.266C148.752 297.099 147.858 299.931 146.413 303.19C145.048 306.174 143.522 309.301 140.751 311.033C137.177 313.222 132.459 312.418 128.705 314.322C127.058 315.202 125.707 316.559 124.822 318.221C123.937 319.882 123.559 321.772 123.736 323.652C123.955 325.1 124.291 326.527 124.739 327.92C125.592 330.933 125.975 334.064 125.874 337.198C125.884 337.29 125.884 337.382 125.874 337.473C122.693 335.857 119.883 333.58 117.625 330.791C115.367 328.002 113.712 324.762 112.768 321.282C111.823 317.802 111.61 314.16 112.142 310.591C112.674 307.023 113.939 303.607 115.856 300.566C117.772 297.525 120.297 294.927 123.267 292.94C126.236 290.953 129.585 289.621 133.094 289.031C136.604 288.441 140.196 288.606 143.639 289.515C147.082 290.424 150.298 292.058 153.078 294.309H153.139Z" fill="black"/>
<path d="M152.476 286.558C149.685 280.61 143.622 276.841 137.418 275.008C132.66 273.613 127.49 273.154 122.762 274.692C120.118 275.701 117.557 276.921 115.102 278.338C110.394 280.752 105.214 282.667 101.671 286.629C101.213 287.043 100.855 287.557 100.624 288.132C100.392 288.708 100.294 289.329 100.336 289.949C100.65 290.82 101.097 291.634 101.661 292.363C102.665 294.176 102.404 296.437 101.731 298.474C101.058 300.511 100.024 302.273 99.5426 304.3C99.0608 306.327 99.2515 308.69 100.727 310.136C101.436 310.71 102.173 311.247 102.936 311.746C103.75 312.449 104.463 313.265 105.054 314.17L109.24 319.985C111.208 322.568 112.964 325.31 114.49 328.184C115.389 330.359 116.478 332.449 117.743 334.428C119.138 336.312 121.316 337.819 123.635 337.616C123.813 337.621 123.99 337.582 124.15 337.504C124.311 337.427 124.451 337.311 124.559 337.168C124.645 336.983 124.686 336.781 124.679 336.577C124.77 333.443 124.387 330.314 123.545 327.298C123.071 325.909 122.715 324.481 122.481 323.031C122.309 321.146 122.694 319.251 123.588 317.589C124.482 315.928 125.844 314.574 127.5 313.701C131.234 311.796 135.953 312.611 139.546 310.422C142.317 308.721 143.843 305.563 145.208 302.569C146.704 299.31 147.537 296.458 150.669 294.645C153.801 292.832 154.022 289.685 152.476 286.558Z" fill="#303D5C"/>
<path opacity="0.1" d="M141.102 707.641C141.102 707.641 144.967 712.662 143.973 715.504C142.98 718.345 141.102 707.641 141.102 707.641Z" fill="black"/>
<path opacity="0.1" d="M193.644 720.158C193.644 720.158 194.508 713.426 197.971 713.365C201.434 713.303 201.595 712.998 204.235 714.027C206.875 715.055 209.355 716.664 208.572 716.909C207.789 717.153 204.014 713.049 200.169 715.137C197.762 716.474 195.563 718.166 193.644 720.158Z" fill="black"/>
<path opacity="0.1" d="M129.548 363.078L140.39 355.338C140.39 355.338 124.478 345.805 122.581 347.139C120.684 348.473 119.389 360.532 119.389 360.532L129.548 363.078Z" fill="black"/>
<path d="M129.468 362.569L140.349 354.666C140.349 354.666 124.438 345.132 122.541 346.518C120.644 347.903 119.349 360.573 119.349 360.573L129.468 362.569Z" fill="#E1E7EF"/>
<path opacity="0.03" d="M129.468 362.569L140.349 354.666C140.349 354.666 124.438 345.132 122.541 346.518C120.644 347.903 119.349 360.573 119.349 360.573L129.468 362.569Z" fill="black"/>
<path d="M124.348 346.558L124.017 346.395C123.536 346.153 122.998 346.056 122.464 346.113C121.931 346.171 121.425 346.382 121.005 346.721L88.3898 373.569C88.3898 373.569 81.3025 383.52 82.2863 400.692L101.44 428.355C101.44 428.355 103.638 418.985 106.279 420.767C106.279 420.767 110.013 468.718 106.279 475.634C102.544 482.55 100.888 508.42 100.888 508.42L113.526 509.866C113.526 509.866 114.851 492.358 117.813 486.115C120.774 479.871 122.4 458.421 122.4 458.421C122.4 458.421 125.071 427.234 124.629 413.851C124.187 400.468 120.343 371.705 120.343 371.705C120.343 371.705 121.447 354.839 124.348 346.558Z" fill="#303D5C"/>
<path opacity="0.1" d="M156.843 358.179L143.281 353.087C143.281 353.087 160.547 333.908 162.695 344.552L156.843 358.179Z" fill="black"/>
<path d="M156.843 357.507L143.281 352.415C143.281 352.415 160.547 333.226 162.695 343.869L156.843 357.507Z" fill="#E1E7EF"/>
<path opacity="0.03" d="M156.843 357.507L143.281 352.415C143.281 352.415 160.547 333.226 162.695 343.869L156.843 357.507Z" fill="black"/>
<path opacity="0.1" d="M156.401 341.201C156.596 341.164 156.797 341.204 156.963 341.313L156.401 341.201Z" fill="black"/>
<path d="M157.716 339.856L193.685 347.73C193.685 347.73 203.573 349.96 210.75 375.158C217.928 400.356 200.973 431.237 200.973 431.237L197.228 428.019L199.105 501.616C199.105 501.616 182.502 507.972 177.231 502.401C171.961 496.829 172.503 470.725 172.503 470.725C172.503 470.725 167.484 422.549 164.261 414.635C161.039 406.722 162.675 349.624 162.675 349.624C162.675 349.624 159.724 339.419 157.716 339.856Z" fill="#303D5C"/>
<path opacity="0.1" d="M190.613 386.81C190.101 387.289 189.508 409.553 191.707 426.532C193.057 436.856 195.14 447.068 197.941 457.087L194.678 389.173C194.678 389.173 192.149 385.302 190.613 386.81Z" fill="black"/>
<path opacity="0.1" d="M186.216 367.58C187.089 368.13 190.934 377.389 189.177 381.177C187.42 384.966 186.216 367.58 186.216 367.58Z" fill="black"/>
<path opacity="0.1" d="M152.265 286.558C150.506 283.025 147.753 280.1 144.355 278.155C146.875 279.981 148.913 282.409 150.288 285.224C151.824 288.35 151.382 291.487 148.36 293.26C145.339 295.032 144.345 297.914 142.899 301.184C141.534 304.168 140.018 307.295 137.238 309.026C133.664 311.216 128.946 310.411 125.191 312.316C123.544 313.195 122.191 314.552 121.307 316.213C120.422 317.875 120.044 319.766 120.222 321.645C120.443 323.093 120.779 324.52 121.226 325.913C122.079 328.927 122.462 332.058 122.36 335.192C122.372 335.396 122.331 335.6 122.24 335.782C122.132 335.927 121.993 336.042 121.832 336.12C121.671 336.198 121.494 336.236 121.316 336.231C120.385 336.298 119.452 336.123 118.606 335.721C119.221 336.339 119.954 336.821 120.761 337.139C121.567 337.456 122.43 337.601 123.294 337.565C123.43 337.581 123.567 337.566 123.696 337.521C123.826 337.475 123.943 337.401 124.04 337.303C124.136 337.205 124.21 337.086 124.254 336.955C124.299 336.824 124.314 336.684 124.298 336.546C124.397 333.413 124.017 330.283 123.173 327.268C122.699 325.879 122.343 324.451 122.109 323C121.933 321.12 122.311 319.23 123.196 317.569C124.08 315.907 125.432 314.551 127.078 313.671C130.803 311.766 135.521 312.581 139.125 310.391C141.905 308.69 143.421 305.533 144.787 302.538C146.292 299.279 147.126 296.427 150.248 294.614C153.37 292.801 153.801 289.685 152.265 286.558Z" fill="black"/>
<path opacity="0.1" d="M521.605 794C544.336 794 562.763 791.433 562.763 788.266C562.763 785.099 544.336 782.531 521.605 782.531C498.874 782.531 480.447 785.099 480.447 788.266C480.447 791.433 498.874 794 521.605 794Z" fill="#47E6B1"/>
<path d="M538.289 781.116C540.135 779.593 541.479 777.536 542.144 775.219C542.636 772.876 541.652 770.075 539.454 769.22C536.984 768.262 534.344 769.994 532.346 771.756C530.349 773.518 528.05 775.504 525.43 775.137C526.777 773.899 527.785 772.328 528.355 770.577C528.925 768.826 529.038 766.954 528.682 765.146C528.574 764.394 528.261 763.689 527.779 763.109C526.413 761.622 523.924 762.253 522.278 763.424C517.057 767.152 515.602 774.343 515.582 780.82C515.05 778.488 515.491 776.054 515.481 773.691C515.471 771.328 514.819 768.598 512.831 767.346C511.598 766.677 510.214 766.347 508.816 766.388C506.467 766.297 503.857 766.531 502.251 768.272C500.243 770.442 500.775 774.068 502.512 776.421C504.248 778.773 506.878 780.291 509.298 781.941C511.246 783.113 512.908 784.718 514.156 786.636C514.303 786.906 514.424 787.189 514.518 787.482H529.224C532.513 785.781 535.562 783.64 538.289 781.116V781.116Z" fill="#47E6B1"/>
<path opacity="0.1" d="M29.3624 757.649C45.5181 757.649 58.6149 755.825 58.6149 753.575C58.6149 751.325 45.5181 749.501 29.3624 749.501C13.2067 749.501 0.109985 751.325 0.109985 753.575C0.109985 755.825 13.2067 757.649 29.3624 757.649Z" fill="#47E6B1"/>
<path d="M37.3535 740.233C39.1985 738.705 40.5428 736.645 41.2083 734.325C41.7002 731.993 40.7265 729.182 38.518 728.326C36.0485 727.369 33.4083 729.111 31.4106 730.862C29.413 732.614 27.1141 734.611 24.4941 734.244C25.8431 733.007 26.8522 731.436 27.4224 729.684C27.9926 727.933 28.1043 726.061 27.7466 724.252C27.6383 723.501 27.3254 722.796 26.8431 722.215C25.4778 720.728 22.9883 721.36 21.352 722.531C16.1319 726.259 14.6763 733.449 14.6462 739.927C14.1142 737.595 14.5559 735.161 14.5458 732.798C14.5358 730.435 13.8833 727.705 11.8956 726.452C10.6631 725.781 9.27829 725.451 7.8802 725.495C5.53117 725.403 2.92113 725.648 1.31496 727.379C-0.692759 729.549 -0.160719 733.174 1.57596 735.527C3.31263 737.88 5.94275 739.408 8.37208 741.048C10.3155 742.223 11.9727 743.828 13.2207 745.743C13.367 746.013 13.488 746.296 13.5821 746.588H28.2886C31.577 744.891 34.6258 742.753 37.3535 740.233V740.233Z" fill="#47E6B1"/>
<path d="M737.736 666.493C737.736 666.493 743.257 673.816 735.196 684.826C727.135 695.836 720.49 705.196 723.15 712.091C723.15 712.091 735.306 691.568 745.235 691.283C755.163 690.998 748.628 678.837 737.736 666.493Z" fill="#47E6B1"/>
<path opacity="0.1" d="M737.736 666.493C738.219 667.202 738.601 667.977 738.87 668.795C748.527 680.304 753.667 691.049 744.381 691.314C735.738 691.568 725.368 707.253 722.879 711.215C722.959 711.524 723.06 711.827 723.18 712.122C723.18 712.122 735.337 691.599 745.265 691.314C755.193 691.029 748.628 678.837 737.736 666.493Z" fill="black"/>
<path d="M747.995 675.822C747.995 678.399 747.704 680.487 747.353 680.487C747.001 680.487 746.72 678.399 746.72 675.822C746.72 673.245 747.072 674.457 747.423 674.457C747.774 674.457 747.995 673.245 747.995 675.822Z" fill="#FFD037"/>
<path d="M751.509 678.898C749.28 680.131 747.343 680.874 747.172 680.558C747.001 680.243 748.668 679 750.896 677.768C753.125 676.535 752.252 677.431 752.422 677.768C752.593 678.104 753.737 677.666 751.509 678.898Z" fill="#FFD037"/>
<path d="M708.614 666.493C708.614 666.493 703.093 673.816 711.154 684.826C719.214 695.836 725.86 705.196 723.2 712.091C723.2 712.091 711.033 691.568 701.115 691.283C691.197 690.998 697.732 678.837 708.614 666.493Z" fill="#47E6B1"/>
<path opacity="0.1" d="M708.614 666.493C708.131 667.202 707.749 667.977 707.479 668.795C697.822 680.304 692.683 691.049 701.968 691.314C710.611 691.568 720.981 707.253 723.471 711.215C723.389 711.522 723.292 711.825 723.18 712.122C723.18 712.122 711.013 691.599 701.095 691.314C691.177 691.029 697.732 678.837 708.614 666.493Z" fill="black"/>
<path d="M698.354 675.822C698.354 678.399 698.645 680.487 698.997 680.487C699.348 680.487 699.629 678.399 699.629 675.822C699.629 673.245 699.278 674.457 698.927 674.457C698.575 674.457 698.354 673.245 698.354 675.822Z" fill="#FFD037"/>
<path d="M694.841 678.898C697.069 680.131 699.017 680.874 699.178 680.558C699.338 680.243 697.682 679 695.453 677.768C693.225 676.535 694.098 677.431 693.927 677.768C693.757 678.104 692.612 677.666 694.841 678.898Z" fill="#FFD037"/>
<path d="M700.111 711.165C700.111 711.165 715.53 710.676 720.188 707.325C724.846 703.974 743.91 699.961 745.064 705.288C746.218 710.615 768.233 732.064 750.826 732.207C733.419 732.35 710.381 729.457 705.743 726.595C701.105 723.733 700.111 711.165 700.111 711.165Z" fill="#A8A8A8"/>
<path opacity="0.2" d="M751.127 730.384C733.72 730.527 710.682 727.634 706.044 724.772C702.51 722.592 701.105 714.76 700.633 711.144H700.111C700.111 711.144 701.115 723.753 705.733 726.626C710.35 729.498 733.409 732.38 750.816 732.238C755.835 732.238 757.572 730.384 757.482 727.705C756.779 729.345 754.862 730.353 751.127 730.384Z" fill="black"/>
</g>
<defs>
<linearGradient id="paint0_linear" x1="595.238" y1="739.5" x2="595.238" y2="287.21" gradientUnits="userSpaceOnUse">
<stop stop-color="#808080" stop-opacity="0.25"/>
<stop offset="0.54" stop-color="#808080" stop-opacity="0.12"/>
<stop offset="1" stop-color="#808080" stop-opacity="0.1"/>
</linearGradient>
<linearGradient id="paint1_linear" x1="267161" y1="365432" x2="267161" y2="152377" gradientUnits="userSpaceOnUse">
<stop stop-color="#808080" stop-opacity="0.25"/>
<stop offset="0.54" stop-color="#808080" stop-opacity="0.12"/>
<stop offset="1" stop-color="#808080" stop-opacity="0.1"/>
</linearGradient>
<clipPath id="clip0">
<rect width="1012" height="794" fill="white"/>
</clipPath>
</defs>
</svg>
